<?xml version="1.0" encoding="UTF-8"?>
<svg xmlns="http://www.w3.org/2000/svg" viewBox="0 0 800 450" shape-rendering="crispEdges" preserveAspectRatio="xMidYMid slice">
<rect width="800" height="450" fill="#100a0a"/>
<rect x="0" y="270" width="800" height="10" fill="#4a1818"/>
<rect x="0" y="280" width="800" height="10" fill="#4a1818"/>
<rect x="0" y="290" width="800" height="10" fill="#4a1818"/>
<rect x="0" y="300" width="800" height="10" fill="#4a1818"/>
<rect x="0" y="310" width="800" height="10" fill="#4a1818"/>
<rect x="0" y="320" width="800" height="10" fill="#4a1818"/>
<rect x="0" y="330" width="800" height="10" fill="#4a1818"/>
<rect x="0" y="340" width="800" height="10" fill="#4a1818"/>
<rect x="0" y="350" width="800" height="10" fill="#100a0a"/>
<rect x="0" y="360" width="800" height="10" fill="#100a0a"/>
<rect x="0" y="370" width="800" height="10" fill="#100a0a"/>
<rect x="0" y="380" width="800" height="10" fill="#100a0a"/>
<rect x="0" y="390" width="800" height="10" fill="#100a0a"/>
<rect x="0" y="400" width="800" height="10" fill="#100a0a"/>
<rect x="0" y="410" width="800" height="10" fill="#100a0a"/>
<rect x="0" y="420" width="800" height="10" fill="#100a0a"/>
<rect x="0" y="430" width="800" height="10" fill="#100a0a"/>
<rect x="0" y="440" width="800" height="10" fill="#100a0a"/>
<rect x="240" y="0" width="10" height="10" fill="#a83a3a"/>
<rect x="360" y="0" width="10" height="10" fill="#a83a3a"/>
<rect x="600" y="0" width="10" height="10" fill="#ff6b6b"/>
<rect x="290" y="10" width="10" height="10" fill="#a83a3a"/>
<rect x="530" y="10" width="10" height="10" fill="#ff6b6b"/>
<rect x="610" y="10" width="10" height="10" fill="#a83a3a"/>
<rect x="0" y="20" width="10" height="10" fill="#a83a3a"/>
<rect x="300" y="20" width="10" height="10" fill="#ff6b6b"/>
<rect x="670" y="20" width="10" height="10" fill="#a83a3a"/>
<rect x="280" y="30" width="10" height="10" fill="#ff6b6b"/>
<rect x="370" y="30" width="10" height="10" fill="#ff6b6b"/>
<rect x="610" y="30" width="10" height="10" fill="#a83a3a"/>
<rect x="670" y="30" width="10" height="10" fill="#ff6b6b"/>
<rect x="710" y="30" width="10" height="10" fill="#a83a3a"/>
<rect x="730" y="30" width="10" height="10" fill="#a83a3a"/>
<rect x="760" y="30" width="10" height="10" fill="#a83a3a"/>
<rect x="160" y="40" width="10" height="10" fill="#ff6b6b"/>
<rect x="250" y="40" width="10" height="10" fill="#a83a3a"/>
<rect x="290" y="40" width="10" height="10" fill="#a83a3a"/>
<rect x="470" y="40" width="10" height="10" fill="#a83a3a"/>
<rect x="580" y="40" width="10" height="10" fill="#a83a3a"/>
<rect x="650" y="40" width="10" height="10" fill="#a83a3a"/>
<rect x="410" y="50" width="10" height="10" fill="#a83a3a"/>
<rect x="570" y="50" width="10" height="10" fill="#a83a3a"/>
<rect x="590" y="50" width="10" height="10" fill="#a83a3a"/>
<rect x="670" y="50" width="10" height="10" fill="#ff6b6b"/>
<rect x="70" y="60" width="10" height="10" fill="#a83a3a"/>
<rect x="140" y="60" width="10" height="10" fill="#a83a3a"/>
<rect x="600" y="60" width="10" height="10" fill="#a83a3a"/>
<rect x="50" y="70" width="10" height="10" fill="#a83a3a"/>
<rect x="690" y="70" width="10" height="10" fill="#a83a3a"/>
<rect x="720" y="70" width="10" height="10" fill="#a83a3a"/>
<rect x="340" y="80" width="10" height="10" fill="#a83a3a"/>
<rect x="470" y="80" width="10" height="10" fill="#a83a3a"/>
<rect x="510" y="80" width="10" height="10" fill="#ff6b6b"/>
<rect x="550" y="80" width="10" height="10" fill="#a83a3a"/>
<rect x="580" y="80" width="10" height="10" fill="#a83a3a"/>
<rect x="600" y="80" width="10" height="10" fill="#a83a3a"/>
<rect x="250" y="90" width="10" height="10" fill="#a83a3a"/>
<rect x="490" y="90" width="10" height="10" fill="#a83a3a"/>
<rect x="600" y="90" width="10" height="10" fill="#ff6b6b"/>
<rect x="570" y="100" width="10" height="10" fill="#a83a3a"/>
<rect x="40" y="110" width="10" height="10" fill="#ff6b6b"/>
<rect x="60" y="110" width="10" height="10" fill="#a83a3a"/>
<rect x="190" y="110" width="10" height="10" fill="#a83a3a"/>
<rect x="260" y="110" width="10" height="10" fill="#ff6b6b"/>
<rect x="770" y="110" width="10" height="10" fill="#a83a3a"/>
<rect x="50" y="120" width="10" height="10" fill="#a83a3a"/>
<rect x="70" y="120" width="10" height="10" fill="#a83a3a"/>
<rect x="500" y="120" width="10" height="10" fill="#a83a3a"/>
<rect x="190" y="130" width="10" height="10" fill="#ff6b6b"/>
<rect x="320" y="130" width="10" height="10" fill="#a83a3a"/>
<rect x="330" y="130" width="10" height="10" fill="#a83a3a"/>
<rect x="400" y="130" width="10" height="10" fill="#a83a3a"/>
<rect x="410" y="130" width="10" height="10" fill="#a83a3a"/>
<rect x="200" y="150" width="10" height="10" fill="#a83a3a"/>
<rect x="790" y="160" width="10" height="10" fill="#a83a3a"/>
<rect x="50" y="180" width="10" height="10" fill="#ff6b6b"/>
<rect x="250" y="180" width="10" height="10" fill="#a83a3a"/>
<rect x="330" y="180" width="10" height="10" fill="#a83a3a"/>
<rect x="380" y="180" width="10" height="10" fill="#ff6b6b"/>
<rect x="40" y="190" width="10" height="10" fill="#a83a3a"/>
<rect x="130" y="190" width="10" height="10" fill="#a83a3a"/>
<rect x="140" y="190" width="10" height="10" fill="#ff6b6b"/>
<rect x="790" y="190" width="10" height="10" fill="#ff6b6b"/>
<rect x="250" y="200" width="10" height="10" fill="#a83a3a"/>
<rect x="260" y="200" width="10" height="10" fill="#a83a3a"/>
<rect x="290" y="200" width="10" height="10" fill="#a83a3a"/>
<rect x="480" y="200" width="10" height="10" fill="#a83a3a"/>
<rect x="20" y="210" width="10" height="10" fill="#ff6b6b"/>
<rect x="210" y="210" width="10" height="10" fill="#ff6b6b"/>
<rect x="320" y="210" width="10" height="10" fill="#a83a3a"/>
<rect x="560" y="210" width="10" height="10" fill="#ff6b6b"/>
<rect x="710" y="210" width="10" height="10" fill="#a83a3a"/>
<rect x="180" y="220" width="10" height="10" fill="#ff6b6b"/>
<rect x="40" y="230" width="10" height="10" fill="#ff6b6b"/>
<rect x="330" y="230" width="10" height="10" fill="#ff6b6b"/>
<rect x="350" y="230" width="10" height="10" fill="#a83a3a"/>
<rect x="430" y="230" width="10" height="10" fill="#a83a3a"/>
<rect x="580" y="230" width="10" height="10" fill="#ff6b6b"/>
<rect x="750" y="230" width="10" height="10" fill="#a83a3a"/>
<rect x="80" y="240" width="10" height="10" fill="#a83a3a"/>
<rect x="400" y="240" width="10" height="10" fill="#a83a3a"/>
<rect x="480" y="240" width="10" height="10" fill="#ff6b6b"/>
<rect x="740" y="240" width="10" height="10" fill="#a83a3a"/>
<rect x="30" y="260" width="10" height="10" fill="#a83a3a"/>
<rect x="40" y="260" width="10" height="10" fill="#a83a3a"/>
<rect x="50" y="260" width="10" height="10" fill="#a83a3a"/>
<rect x="60" y="260" width="10" height="10" fill="#a83a3a"/>
<rect x="70" y="260" width="10" height="10" fill="#a83a3a"/>
<rect x="80" y="260" width="10" height="10" fill="#a83a3a"/>
<rect x="90" y="260" width="10" height="10" fill="#a83a3a"/>
<rect x="100" y="260" width="10" height="10" fill="#a83a3a"/>
<rect x="110" y="260" width="10" height="10" fill="#a83a3a"/>
<rect x="120" y="260" width="10" height="10" fill="#a83a3a"/>
<rect x="130" y="260" width="10" height="10" fill="#a83a3a"/>
<rect x="140" y="260" width="10" height="10" fill="#a83a3a"/>
<rect x="150" y="260" width="10" height="10" fill="#a83a3a"/>
<rect x="40" y="250" width="10" height="10" fill="#a83a3a"/>
<rect x="50" y="250" width="10" height="10" fill="#a83a3a"/>
<rect x="60" y="250" width="10" height="10" fill="#a83a3a"/>
<rect x="70" y="250" width="10" height="10" fill="#a83a3a"/>
<rect x="80" y="250" width="10" height="10" fill="#a83a3a"/>
<rect x="90" y="250" width="10" height="10" fill="#a83a3a"/>
<rect x="100" y="250" width="10" height="10" fill="#a83a3a"/>
<rect x="110" y="250" width="10" height="10" fill="#a83a3a"/>
<rect x="120" y="250" width="10" height="10" fill="#a83a3a"/>
<rect x="130" y="250" width="10" height="10" fill="#a83a3a"/>
<rect x="140" y="250" width="10" height="10" fill="#a83a3a"/>
<rect x="50" y="240" width="10" height="10" fill="#a83a3a"/>
<rect x="60" y="240" width="10" height="10" fill="#a83a3a"/>
<rect x="70" y="240" width="10" height="10" fill="#a83a3a"/>
<rect x="80" y="240" width="10" height="10" fill="#a83a3a"/>
<rect x="90" y="240" width="10" height="10" fill="#a83a3a"/>
<rect x="100" y="240" width="10" height="10" fill="#a83a3a"/>
<rect x="110" y="240" width="10" height="10" fill="#a83a3a"/>
<rect x="120" y="240" width="10" height="10" fill="#a83a3a"/>
<rect x="130" y="240" width="10" height="10" fill="#a83a3a"/>
<rect x="60" y="230" width="10" height="10" fill="#a83a3a"/>
<rect x="70" y="230" width="10" height="10" fill="#a83a3a"/>
<rect x="80" y="230" width="10" height="10" fill="#a83a3a"/>
<rect x="90" y="230" width="10" height="10" fill="#a83a3a"/>
<rect x="100" y="230" width="10" height="10" fill="#a83a3a"/>
<rect x="110" y="230" width="10" height="10" fill="#a83a3a"/>
<rect x="120" y="230" width="10" height="10" fill="#a83a3a"/>
<rect x="70" y="220" width="10" height="10" fill="#a83a3a"/>
<rect x="80" y="220" width="10" height="10" fill="#a83a3a"/>
<rect x="90" y="220" width="10" height="10" fill="#a83a3a"/>
<rect x="100" y="220" width="10" height="10" fill="#a83a3a"/>
<rect x="110" y="220" width="10" height="10" fill="#a83a3a"/>
<rect x="80" y="210" width="10" height="10" fill="#a83a3a"/>
<rect x="90" y="210" width="10" height="10" fill="#a83a3a"/>
<rect x="100" y="210" width="10" height="10" fill="#a83a3a"/>
<rect x="240" y="260" width="10" height="10" fill="#a83a3a"/>
<rect x="250" y="260" width="10" height="10" fill="#a83a3a"/>
<rect x="260" y="260" width="10" height="10" fill="#a83a3a"/>
<rect x="270" y="260" width="10" height="10" fill="#a83a3a"/>
<rect x="280" y="260" width="10" height="10" fill="#a83a3a"/>
<rect x="290" y="260" width="10" height="10" fill="#a83a3a"/>
<rect x="300" y="260" width="10" height="10" fill="#a83a3a"/>
<rect x="310" y="260" width="10" height="10" fill="#a83a3a"/>
<rect x="320" y="260" width="10" height="10" fill="#a83a3a"/>
<rect x="330" y="260" width="10" height="10" fill="#a83a3a"/>
<rect x="340" y="260" width="10" height="10" fill="#a83a3a"/>
<rect x="350" y="260" width="10" height="10" fill="#a83a3a"/>
<rect x="360" y="260" width="10" height="10" fill="#a83a3a"/>
<rect x="250" y="250" width="10" height="10" fill="#a83a3a"/>
<rect x="260" y="250" width="10" height="10" fill="#a83a3a"/>
<rect x="270" y="250" width="10" height="10" fill="#a83a3a"/>
<rect x="280" y="250" width="10" height="10" fill="#a83a3a"/>
<rect x="290" y="250" width="10" height="10" fill="#a83a3a"/>
<rect x="300" y="250" width="10" height="10" fill="#a83a3a"/>
<rect x="310" y="250" width="10" height="10" fill="#a83a3a"/>
<rect x="320" y="250" width="10" height="10" fill="#a83a3a"/>
<rect x="330" y="250" width="10" height="10" fill="#a83a3a"/>
<rect x="340" y="250" width="10" height="10" fill="#a83a3a"/>
<rect x="350" y="250" width="10" height="10" fill="#a83a3a"/>
<rect x="260" y="240" width="10" height="10" fill="#a83a3a"/>
<rect x="270" y="240" width="10" height="10" fill="#a83a3a"/>
<rect x="280" y="240" width="10" height="10" fill="#a83a3a"/>
<rect x="290" y="240" width="10" height="10" fill="#a83a3a"/>
<rect x="300" y="240" width="10" height="10" fill="#a83a3a"/>
<rect x="310" y="240" width="10" height="10" fill="#a83a3a"/>
<rect x="320" y="240" width="10" height="10" fill="#a83a3a"/>
<rect x="330" y="240" width="10" height="10" fill="#a83a3a"/>
<rect x="340" y="240" width="10" height="10" fill="#a83a3a"/>
<rect x="270" y="230" width="10" height="10" fill="#a83a3a"/>
<rect x="280" y="230" width="10" height="10" fill="#a83a3a"/>
<rect x="290" y="230" width="10" height="10" fill="#a83a3a"/>
<rect x="300" y="230" width="10" height="10" fill="#a83a3a"/>
<rect x="310" y="230" width="10" height="10" fill="#a83a3a"/>
<rect x="320" y="230" width="10" height="10" fill="#a83a3a"/>
<rect x="330" y="230" width="10" height="10" fill="#a83a3a"/>
<rect x="280" y="220" width="10" height="10" fill="#a83a3a"/>
<rect x="290" y="220" width="10" height="10" fill="#a83a3a"/>
<rect x="300" y="220" width="10" height="10" fill="#a83a3a"/>
<rect x="310" y="220" width="10" height="10" fill="#a83a3a"/>
<rect x="320" y="220" width="10" height="10" fill="#a83a3a"/>
<rect x="290" y="210" width="10" height="10" fill="#a83a3a"/>
<rect x="300" y="210" width="10" height="10" fill="#a83a3a"/>
<rect x="310" y="210" width="10" height="10" fill="#a83a3a"/>
<rect x="420" y="260" width="10" height="10" fill="#a83a3a"/>
<rect x="430" y="260" width="10" height="10" fill="#a83a3a"/>
<rect x="440" y="260" width="10" height="10" fill="#a83a3a"/>
<rect x="450" y="260" width="10" height="10" fill="#a83a3a"/>
<rect x="460" y="260" width="10" height="10" fill="#a83a3a"/>
<rect x="470" y="260" width="10" height="10" fill="#a83a3a"/>
<rect x="480" y="260" width="10" height="10" fill="#a83a3a"/>
<rect x="490" y="260" width="10" height="10" fill="#a83a3a"/>
<rect x="500" y="260" width="10" height="10" fill="#a83a3a"/>
<rect x="510" y="260" width="10" height="10" fill="#a83a3a"/>
<rect x="520" y="260" width="10" height="10" fill="#a83a3a"/>
<rect x="530" y="260" width="10" height="10" fill="#a83a3a"/>
<rect x="540" y="260" width="10" height="10" fill="#a83a3a"/>
<rect x="430" y="250" width="10" height="10" fill="#a83a3a"/>
<rect x="440" y="250" width="10" height="10" fill="#a83a3a"/>
<rect x="450" y="250" width="10" height="10" fill="#a83a3a"/>
<rect x="460" y="250" width="10" height="10" fill="#a83a3a"/>
<rect x="470" y="250" width="10" height="10" fill="#a83a3a"/>
<rect x="480" y="250" width="10" height="10" fill="#a83a3a"/>
<rect x="490" y="250" width="10" height="10" fill="#a83a3a"/>
<rect x="500" y="250" width="10" height="10" fill="#a83a3a"/>
<rect x="510" y="250" width="10" height="10" fill="#a83a3a"/>
<rect x="520" y="250" width="10" height="10" fill="#a83a3a"/>
<rect x="530" y="250" width="10" height="10" fill="#a83a3a"/>
<rect x="440" y="240" width="10" height="10" fill="#a83a3a"/>
<rect x="450" y="240" width="10" height="10" fill="#a83a3a"/>
<rect x="460" y="240" width="10" height="10" fill="#a83a3a"/>
<rect x="470" y="240" width="10" height="10" fill="#a83a3a"/>
<rect x="480" y="240" width="10" height="10" fill="#a83a3a"/>
<rect x="490" y="240" width="10" height="10" fill="#a83a3a"/>
<rect x="500" y="240" width="10" height="10" fill="#a83a3a"/>
<rect x="510" y="240" width="10" height="10" fill="#a83a3a"/>
<rect x="520" y="240" width="10" height="10" fill="#a83a3a"/>
<rect x="450" y="230" width="10" height="10" fill="#a83a3a"/>
<rect x="460" y="230" width="10" height="10" fill="#a83a3a"/>
<rect x="470" y="230" width="10" height="10" fill="#a83a3a"/>
<rect x="480" y="230" width="10" height="10" fill="#a83a3a"/>
<rect x="490" y="230" width="10" height="10" fill="#a83a3a"/>
<rect x="500" y="230" width="10" height="10" fill="#a83a3a"/>
<rect x="510" y="230" width="10" height="10" fill="#a83a3a"/>
<rect x="460" y="220" width="10" height="10" fill="#a83a3a"/>
<rect x="470" y="220" width="10" height="10" fill="#a83a3a"/>
<rect x="480" y="220" width="10" height="10" fill="#a83a3a"/>
<rect x="490" y="220" width="10" height="10" fill="#a83a3a"/>
<rect x="500" y="220" width="10" height="10" fill="#a83a3a"/>
<rect x="470" y="210" width="10" height="10" fill="#a83a3a"/>
<rect x="480" y="210" width="10" height="10" fill="#a83a3a"/>
<rect x="490" y="210" width="10" height="10" fill="#a83a3a"/>
<rect x="670" y="260" width="10" height="10" fill="#a83a3a"/>
<rect x="680" y="260" width="10" height="10" fill="#a83a3a"/>
<rect x="690" y="260" width="10" height="10" fill="#a83a3a"/>
<rect x="700" y="260" width="10" height="10" fill="#a83a3a"/>
<rect x="710" y="260" width="10" height="10" fill="#a83a3a"/>
<rect x="720" y="260" width="10" height="10" fill="#a83a3a"/>
<rect x="730" y="260" width="10" height="10" fill="#a83a3a"/>
<rect x="680" y="250" width="10" height="10" fill="#a83a3a"/>
<rect x="690" y="250" width="10" height="10" fill="#a83a3a"/>
<rect x="700" y="250" width="10" height="10" fill="#a83a3a"/>
<rect x="710" y="250" width="10" height="10" fill="#a83a3a"/>
<rect x="720" y="250" width="10" height="10" fill="#a83a3a"/>
<rect x="690" y="240" width="10" height="10" fill="#a83a3a"/>
<rect x="700" y="240" width="10" height="10" fill="#a83a3a"/>
<rect x="710" y="240" width="10" height="10" fill="#a83a3a"/>
<rect x="340" y="100" width="10" height="10" fill="#ff6b6b"/>
<rect x="330" y="110" width="10" height="10" fill="#ff6b6b"/>
<rect x="340" y="110" width="10" height="10" fill="#ff6b6b"/>
<rect x="350" y="110" width="10" height="10" fill="#ff6b6b"/>
<rect x="320" y="120" width="10" height="10" fill="#ff6b6b"/>
<rect x="330" y="120" width="10" height="10" fill="#ff6b6b"/>
<rect x="340" y="120" width="10" height="10" fill="#ff6b6b"/>
<rect x="350" y="120" width="10" height="10" fill="#ff6b6b"/>
<rect x="360" y="120" width="10" height="10" fill="#ff6b6b"/>
<rect x="330" y="130" width="10" height="10" fill="#ff6b6b"/>
<rect x="340" y="130" width="10" height="10" fill="#ff6b6b"/>
<rect x="350" y="130" width="10" height="10" fill="#ff6b6b"/>
<rect x="340" y="140" width="10" height="10" fill="#ff6b6b"/>
</svg>
