<?xml version="1.0" encoding="UTF-8"?>
<svg xmlns="http://www.w3.org/2000/svg" viewBox="0 0 800 450" shape-rendering="crispEdges" preserveAspectRatio="xMidYMid slice">
<rect width="800" height="450" fill="#0e0814"/>
<rect x="0" y="270" width="800" height="10" fill="#4f1c3a"/>
<rect x="0" y="280" width="800" height="10" fill="#4f1c3a"/>
<rect x="0" y="290" width="800" height="10" fill="#4f1c3a"/>
<rect x="0" y="300" width="800" height="10" fill="#4f1c3a"/>
<rect x="0" y="310" width="800" height="10" fill="#4f1c3a"/>
<rect x="0" y="320" width="800" height="10" fill="#4f1c3a"/>
<rect x="0" y="330" width="800" height="10" fill="#4f1c3a"/>
<rect x="0" y="340" width="800" height="10" fill="#4f1c3a"/>
<rect x="0" y="350" width="800" height="10" fill="#0e0814"/>
<rect x="0" y="360" width="800" height="10" fill="#0e0814"/>
<rect x="0" y="370" width="800" height="10" fill="#0e0814"/>
<rect x="0" y="380" width="800" height="10" fill="#0e0814"/>
<rect x="0" y="390" width="800" height="10" fill="#0e0814"/>
<rect x="0" y="400" width="800" height="10" fill="#0e0814"/>
<rect x="0" y="410" width="800" height="10" fill="#0e0814"/>
<rect x="0" y="420" width="800" height="10" fill="#0e0814"/>
<rect x="0" y="430" width="800" height="10" fill="#0e0814"/>
<rect x="0" y="440" width="800" height="10" fill="#0e0814"/>
<rect x="50" y="0" width="10" height="10" fill="#a83b78"/>
<rect x="210" y="0" width="10" height="10" fill="#a83b78"/>
<rect x="640" y="0" width="10" height="10" fill="#a83b78"/>
<rect x="690" y="0" width="10" height="10" fill="#f472b6"/>
<rect x="170" y="10" width="10" height="10" fill="#a83b78"/>
<rect x="240" y="10" width="10" height="10" fill="#a83b78"/>
<rect x="660" y="10" width="10" height="10" fill="#a83b78"/>
<rect x="570" y="20" width="10" height="10" fill="#a83b78"/>
<rect x="630" y="30" width="10" height="10" fill="#a83b78"/>
<rect x="460" y="40" width="10" height="10" fill="#f472b6"/>
<rect x="470" y="40" width="10" height="10" fill="#a83b78"/>
<rect x="600" y="40" width="10" height="10" fill="#a83b78"/>
<rect x="220" y="50" width="10" height="10" fill="#a83b78"/>
<rect x="310" y="50" width="10" height="10" fill="#a83b78"/>
<rect x="340" y="50" width="10" height="10" fill="#a83b78"/>
<rect x="720" y="50" width="10" height="10" fill="#f472b6"/>
<rect x="740" y="50" width="10" height="10" fill="#a83b78"/>
<rect x="200" y="60" width="10" height="10" fill="#a83b78"/>
<rect x="350" y="60" width="10" height="10" fill="#a83b78"/>
<rect x="370" y="60" width="10" height="10" fill="#f472b6"/>
<rect x="410" y="60" width="10" height="10" fill="#a83b78"/>
<rect x="530" y="60" width="10" height="10" fill="#a83b78"/>
<rect x="690" y="60" width="10" height="10" fill="#f472b6"/>
<rect x="760" y="60" width="10" height="10" fill="#a83b78"/>
<rect x="100" y="70" width="10" height="10" fill="#a83b78"/>
<rect x="120" y="70" width="10" height="10" fill="#a83b78"/>
<rect x="390" y="70" width="10" height="10" fill="#f472b6"/>
<rect x="20" y="80" width="10" height="10" fill="#f472b6"/>
<rect x="230" y="80" width="10" height="10" fill="#a83b78"/>
<rect x="260" y="80" width="10" height="10" fill="#a83b78"/>
<rect x="690" y="80" width="10" height="10" fill="#a83b78"/>
<rect x="780" y="80" width="10" height="10" fill="#a83b78"/>
<rect x="10" y="90" width="10" height="10" fill="#f472b6"/>
<rect x="100" y="90" width="10" height="10" fill="#a83b78"/>
<rect x="640" y="90" width="10" height="10" fill="#a83b78"/>
<rect x="720" y="90" width="10" height="10" fill="#a83b78"/>
<rect x="60" y="100" width="10" height="10" fill="#f472b6"/>
<rect x="190" y="100" width="10" height="10" fill="#a83b78"/>
<rect x="270" y="100" width="10" height="10" fill="#f472b6"/>
<rect x="260" y="110" width="10" height="10" fill="#a83b78"/>
<rect x="330" y="110" width="10" height="10" fill="#a83b78"/>
<rect x="740" y="110" width="10" height="10" fill="#a83b78"/>
<rect x="40" y="120" width="10" height="10" fill="#f472b6"/>
<rect x="70" y="120" width="10" height="10" fill="#a83b78"/>
<rect x="140" y="120" width="10" height="10" fill="#a83b78"/>
<rect x="720" y="120" width="10" height="10" fill="#f472b6"/>
<rect x="750" y="120" width="10" height="10" fill="#a83b78"/>
<rect x="20" y="130" width="10" height="10" fill="#a83b78"/>
<rect x="390" y="130" width="10" height="10" fill="#f472b6"/>
<rect x="400" y="130" width="10" height="10" fill="#a83b78"/>
<rect x="410" y="130" width="10" height="10" fill="#f472b6"/>
<rect x="460" y="130" width="10" height="10" fill="#a83b78"/>
<rect x="20" y="140" width="10" height="10" fill="#f472b6"/>
<rect x="350" y="150" width="10" height="10" fill="#f472b6"/>
<rect x="410" y="150" width="10" height="10" fill="#a83b78"/>
<rect x="780" y="150" width="10" height="10" fill="#a83b78"/>
<rect x="730" y="160" width="10" height="10" fill="#a83b78"/>
<rect x="740" y="170" width="10" height="10" fill="#a83b78"/>
<rect x="440" y="180" width="10" height="10" fill="#f472b6"/>
<rect x="640" y="180" width="10" height="10" fill="#a83b78"/>
<rect x="780" y="180" width="10" height="10" fill="#f472b6"/>
<rect x="210" y="190" width="10" height="10" fill="#f472b6"/>
<rect x="410" y="190" width="10" height="10" fill="#f472b6"/>
<rect x="510" y="190" width="10" height="10" fill="#a83b78"/>
<rect x="760" y="190" width="10" height="10" fill="#f472b6"/>
<rect x="130" y="200" width="10" height="10" fill="#f472b6"/>
<rect x="670" y="200" width="10" height="10" fill="#a83b78"/>
<rect x="250" y="210" width="10" height="10" fill="#a83b78"/>
<rect x="340" y="210" width="10" height="10" fill="#f472b6"/>
<rect x="350" y="210" width="10" height="10" fill="#a83b78"/>
<rect x="510" y="210" width="10" height="10" fill="#a83b78"/>
<rect x="690" y="210" width="10" height="10" fill="#a83b78"/>
<rect x="70" y="220" width="10" height="10" fill="#a83b78"/>
<rect x="80" y="220" width="10" height="10" fill="#a83b78"/>
<rect x="240" y="220" width="10" height="10" fill="#a83b78"/>
<rect x="400" y="220" width="10" height="10" fill="#a83b78"/>
<rect x="420" y="220" width="10" height="10" fill="#a83b78"/>
<rect x="430" y="220" width="10" height="10" fill="#a83b78"/>
<rect x="590" y="220" width="10" height="10" fill="#f472b6"/>
<rect x="720" y="220" width="10" height="10" fill="#f472b6"/>
<rect x="110" y="230" width="10" height="10" fill="#a83b78"/>
<rect x="130" y="240" width="10" height="10" fill="#f472b6"/>
<rect x="660" y="240" width="10" height="10" fill="#f472b6"/>
<rect x="40" y="260" width="10" height="10" fill="#a83b78"/>
<rect x="50" y="260" width="10" height="10" fill="#a83b78"/>
<rect x="60" y="260" width="10" height="10" fill="#a83b78"/>
<rect x="70" y="260" width="10" height="10" fill="#a83b78"/>
<rect x="80" y="260" width="10" height="10" fill="#a83b78"/>
<rect x="90" y="260" width="10" height="10" fill="#a83b78"/>
<rect x="100" y="260" width="10" height="10" fill="#a83b78"/>
<rect x="110" y="260" width="10" height="10" fill="#a83b78"/>
<rect x="120" y="260" width="10" height="10" fill="#a83b78"/>
<rect x="130" y="260" width="10" height="10" fill="#a83b78"/>
<rect x="140" y="260" width="10" height="10" fill="#a83b78"/>
<rect x="150" y="260" width="10" height="10" fill="#a83b78"/>
<rect x="160" y="260" width="10" height="10" fill="#a83b78"/>
<rect x="170" y="260" width="10" height="10" fill="#a83b78"/>
<rect x="180" y="260" width="10" height="10" fill="#a83b78"/>
<rect x="50" y="250" width="10" height="10" fill="#a83b78"/>
<rect x="60" y="250" width="10" height="10" fill="#a83b78"/>
<rect x="70" y="250" width="10" height="10" fill="#a83b78"/>
<rect x="80" y="250" width="10" height="10" fill="#a83b78"/>
<rect x="90" y="250" width="10" height="10" fill="#a83b78"/>
<rect x="100" y="250" width="10" height="10" fill="#a83b78"/>
<rect x="110" y="250" width="10" height="10" fill="#a83b78"/>
<rect x="120" y="250" width="10" height="10" fill="#a83b78"/>
<rect x="130" y="250" width="10" height="10" fill="#a83b78"/>
<rect x="140" y="250" width="10" height="10" fill="#a83b78"/>
<rect x="150" y="250" width="10" height="10" fill="#a83b78"/>
<rect x="160" y="250" width="10" height="10" fill="#a83b78"/>
<rect x="170" y="250" width="10" height="10" fill="#a83b78"/>
<rect x="60" y="240" width="10" height="10" fill="#a83b78"/>
<rect x="70" y="240" width="10" height="10" fill="#a83b78"/>
<rect x="80" y="240" width="10" height="10" fill="#a83b78"/>
<rect x="90" y="240" width="10" height="10" fill="#a83b78"/>
<rect x="100" y="240" width="10" height="10" fill="#a83b78"/>
<rect x="110" y="240" width="10" height="10" fill="#a83b78"/>
<rect x="120" y="240" width="10" height="10" fill="#a83b78"/>
<rect x="130" y="240" width="10" height="10" fill="#a83b78"/>
<rect x="140" y="240" width="10" height="10" fill="#a83b78"/>
<rect x="150" y="240" width="10" height="10" fill="#a83b78"/>
<rect x="160" y="240" width="10" height="10" fill="#a83b78"/>
<rect x="70" y="230" width="10" height="10" fill="#a83b78"/>
<rect x="80" y="230" width="10" height="10" fill="#a83b78"/>
<rect x="90" y="230" width="10" height="10" fill="#a83b78"/>
<rect x="100" y="230" width="10" height="10" fill="#a83b78"/>
<rect x="110" y="230" width="10" height="10" fill="#a83b78"/>
<rect x="120" y="230" width="10" height="10" fill="#a83b78"/>
<rect x="130" y="230" width="10" height="10" fill="#a83b78"/>
<rect x="140" y="230" width="10" height="10" fill="#a83b78"/>
<rect x="150" y="230" width="10" height="10" fill="#a83b78"/>
<rect x="80" y="220" width="10" height="10" fill="#a83b78"/>
<rect x="90" y="220" width="10" height="10" fill="#a83b78"/>
<rect x="100" y="220" width="10" height="10" fill="#a83b78"/>
<rect x="110" y="220" width="10" height="10" fill="#a83b78"/>
<rect x="120" y="220" width="10" height="10" fill="#a83b78"/>
<rect x="130" y="220" width="10" height="10" fill="#a83b78"/>
<rect x="140" y="220" width="10" height="10" fill="#a83b78"/>
<rect x="90" y="210" width="10" height="10" fill="#a83b78"/>
<rect x="100" y="210" width="10" height="10" fill="#a83b78"/>
<rect x="110" y="210" width="10" height="10" fill="#a83b78"/>
<rect x="120" y="210" width="10" height="10" fill="#a83b78"/>
<rect x="130" y="210" width="10" height="10" fill="#a83b78"/>
<rect x="100" y="200" width="10" height="10" fill="#a83b78"/>
<rect x="110" y="200" width="10" height="10" fill="#a83b78"/>
<rect x="120" y="200" width="10" height="10" fill="#a83b78"/>
<rect x="320" y="260" width="10" height="10" fill="#a83b78"/>
<rect x="330" y="260" width="10" height="10" fill="#a83b78"/>
<rect x="340" y="260" width="10" height="10" fill="#a83b78"/>
<rect x="350" y="260" width="10" height="10" fill="#a83b78"/>
<rect x="360" y="260" width="10" height="10" fill="#a83b78"/>
<rect x="370" y="260" width="10" height="10" fill="#a83b78"/>
<rect x="380" y="260" width="10" height="10" fill="#a83b78"/>
<rect x="390" y="260" width="10" height="10" fill="#a83b78"/>
<rect x="400" y="260" width="10" height="10" fill="#a83b78"/>
<rect x="410" y="260" width="10" height="10" fill="#a83b78"/>
<rect x="420" y="260" width="10" height="10" fill="#a83b78"/>
<rect x="430" y="260" width="10" height="10" fill="#a83b78"/>
<rect x="440" y="260" width="10" height="10" fill="#a83b78"/>
<rect x="450" y="260" width="10" height="10" fill="#a83b78"/>
<rect x="460" y="260" width="10" height="10" fill="#a83b78"/>
<rect x="330" y="250" width="10" height="10" fill="#a83b78"/>
<rect x="340" y="250" width="10" height="10" fill="#a83b78"/>
<rect x="350" y="250" width="10" height="10" fill="#a83b78"/>
<rect x="360" y="250" width="10" height="10" fill="#a83b78"/>
<rect x="370" y="250" width="10" height="10" fill="#a83b78"/>
<rect x="380" y="250" width="10" height="10" fill="#a83b78"/>
<rect x="390" y="250" width="10" height="10" fill="#a83b78"/>
<rect x="400" y="250" width="10" height="10" fill="#a83b78"/>
<rect x="410" y="250" width="10" height="10" fill="#a83b78"/>
<rect x="420" y="250" width="10" height="10" fill="#a83b78"/>
<rect x="430" y="250" width="10" height="10" fill="#a83b78"/>
<rect x="440" y="250" width="10" height="10" fill="#a83b78"/>
<rect x="450" y="250" width="10" height="10" fill="#a83b78"/>
<rect x="340" y="240" width="10" height="10" fill="#a83b78"/>
<rect x="350" y="240" width="10" height="10" fill="#a83b78"/>
<rect x="360" y="240" width="10" height="10" fill="#a83b78"/>
<rect x="370" y="240" width="10" height="10" fill="#a83b78"/>
<rect x="380" y="240" width="10" height="10" fill="#a83b78"/>
<rect x="390" y="240" width="10" height="10" fill="#a83b78"/>
<rect x="400" y="240" width="10" height="10" fill="#a83b78"/>
<rect x="410" y="240" width="10" height="10" fill="#a83b78"/>
<rect x="420" y="240" width="10" height="10" fill="#a83b78"/>
<rect x="430" y="240" width="10" height="10" fill="#a83b78"/>
<rect x="440" y="240" width="10" height="10" fill="#a83b78"/>
<rect x="350" y="230" width="10" height="10" fill="#a83b78"/>
<rect x="360" y="230" width="10" height="10" fill="#a83b78"/>
<rect x="370" y="230" width="10" height="10" fill="#a83b78"/>
<rect x="380" y="230" width="10" height="10" fill="#a83b78"/>
<rect x="390" y="230" width="10" height="10" fill="#a83b78"/>
<rect x="400" y="230" width="10" height="10" fill="#a83b78"/>
<rect x="410" y="230" width="10" height="10" fill="#a83b78"/>
<rect x="420" y="230" width="10" height="10" fill="#a83b78"/>
<rect x="430" y="230" width="10" height="10" fill="#a83b78"/>
<rect x="360" y="220" width="10" height="10" fill="#a83b78"/>
<rect x="370" y="220" width="10" height="10" fill="#a83b78"/>
<rect x="380" y="220" width="10" height="10" fill="#a83b78"/>
<rect x="390" y="220" width="10" height="10" fill="#a83b78"/>
<rect x="400" y="220" width="10" height="10" fill="#a83b78"/>
<rect x="410" y="220" width="10" height="10" fill="#a83b78"/>
<rect x="420" y="220" width="10" height="10" fill="#a83b78"/>
<rect x="370" y="210" width="10" height="10" fill="#a83b78"/>
<rect x="380" y="210" width="10" height="10" fill="#a83b78"/>
<rect x="390" y="210" width="10" height="10" fill="#a83b78"/>
<rect x="400" y="210" width="10" height="10" fill="#a83b78"/>
<rect x="410" y="210" width="10" height="10" fill="#a83b78"/>
<rect x="380" y="200" width="10" height="10" fill="#a83b78"/>
<rect x="390" y="200" width="10" height="10" fill="#a83b78"/>
<rect x="400" y="200" width="10" height="10" fill="#a83b78"/>
<rect x="640" y="260" width="10" height="10" fill="#a83b78"/>
<rect x="650" y="260" width="10" height="10" fill="#a83b78"/>
<rect x="660" y="260" width="10" height="10" fill="#a83b78"/>
<rect x="670" y="260" width="10" height="10" fill="#a83b78"/>
<rect x="680" y="260" width="10" height="10" fill="#a83b78"/>
<rect x="690" y="260" width="10" height="10" fill="#a83b78"/>
<rect x="700" y="260" width="10" height="10" fill="#a83b78"/>
<rect x="710" y="260" width="10" height="10" fill="#a83b78"/>
<rect x="720" y="260" width="10" height="10" fill="#a83b78"/>
<rect x="650" y="250" width="10" height="10" fill="#a83b78"/>
<rect x="660" y="250" width="10" height="10" fill="#a83b78"/>
<rect x="670" y="250" width="10" height="10" fill="#a83b78"/>
<rect x="680" y="250" width="10" height="10" fill="#a83b78"/>
<rect x="690" y="250" width="10" height="10" fill="#a83b78"/>
<rect x="700" y="250" width="10" height="10" fill="#a83b78"/>
<rect x="710" y="250" width="10" height="10" fill="#a83b78"/>
<rect x="660" y="240" width="10" height="10" fill="#a83b78"/>
<rect x="670" y="240" width="10" height="10" fill="#a83b78"/>
<rect x="680" y="240" width="10" height="10" fill="#a83b78"/>
<rect x="690" y="240" width="10" height="10" fill="#a83b78"/>
<rect x="700" y="240" width="10" height="10" fill="#a83b78"/>
<rect x="670" y="230" width="10" height="10" fill="#a83b78"/>
<rect x="680" y="230" width="10" height="10" fill="#a83b78"/>
<rect x="690" y="230" width="10" height="10" fill="#a83b78"/>
<rect x="330" y="100" width="10" height="10" fill="#f472b6"/>
<rect x="320" y="110" width="10" height="10" fill="#f472b6"/>
<rect x="330" y="110" width="10" height="10" fill="#f472b6"/>
<rect x="340" y="110" width="10" height="10" fill="#f472b6"/>
<rect x="310" y="120" width="10" height="10" fill="#f472b6"/>
<rect x="320" y="120" width="10" height="10" fill="#f472b6"/>
<rect x="330" y="120" width="10" height="10" fill="#f472b6"/>
<rect x="340" y="120" width="10" height="10" fill="#f472b6"/>
<rect x="350" y="120" width="10" height="10" fill="#f472b6"/>
<rect x="320" y="130" width="10" height="10" fill="#f472b6"/>
<rect x="330" y="130" width="10" height="10" fill="#f472b6"/>
<rect x="340" y="130" width="10" height="10" fill="#f472b6"/>
<rect x="330" y="140" width="10" height="10" fill="#f472b6"/>
</svg>
