<?xml version="1.0" encoding="UTF-8"?>
<svg xmlns="http://www.w3.org/2000/svg" viewBox="0 0 800 450" shape-rendering="crispEdges" preserveAspectRatio="xMidYMid slice">
<rect width="800" height="450" fill="#0a0814"/>
<rect x="0" y="270" width="800" height="10" fill="#2a1e57"/>
<rect x="0" y="280" width="800" height="10" fill="#2a1e57"/>
<rect x="0" y="290" width="800" height="10" fill="#2a1e57"/>
<rect x="0" y="300" width="800" height="10" fill="#2a1e57"/>
<rect x="0" y="310" width="800" height="10" fill="#2a1e57"/>
<rect x="0" y="320" width="800" height="10" fill="#2a1e57"/>
<rect x="0" y="330" width="800" height="10" fill="#2a1e57"/>
<rect x="0" y="340" width="800" height="10" fill="#2a1e57"/>
<rect x="0" y="350" width="800" height="10" fill="#0a0814"/>
<rect x="0" y="360" width="800" height="10" fill="#0a0814"/>
<rect x="0" y="370" width="800" height="10" fill="#0a0814"/>
<rect x="0" y="380" width="800" height="10" fill="#0a0814"/>
<rect x="0" y="390" width="800" height="10" fill="#0a0814"/>
<rect x="0" y="400" width="800" height="10" fill="#0a0814"/>
<rect x="0" y="410" width="800" height="10" fill="#0a0814"/>
<rect x="0" y="420" width="800" height="10" fill="#0a0814"/>
<rect x="0" y="430" width="800" height="10" fill="#0a0814"/>
<rect x="0" y="440" width="800" height="10" fill="#0a0814"/>
<rect x="80" y="0" width="10" height="10" fill="#a78bfa"/>
<rect x="260" y="0" width="10" height="10" fill="#5b3fb8"/>
<rect x="300" y="0" width="10" height="10" fill="#5b3fb8"/>
<rect x="490" y="0" width="10" height="10" fill="#5b3fb8"/>
<rect x="610" y="0" width="10" height="10" fill="#5b3fb8"/>
<rect x="660" y="0" width="10" height="10" fill="#5b3fb8"/>
<rect x="450" y="10" width="10" height="10" fill="#5b3fb8"/>
<rect x="460" y="10" width="10" height="10" fill="#a78bfa"/>
<rect x="710" y="20" width="10" height="10" fill="#5b3fb8"/>
<rect x="100" y="30" width="10" height="10" fill="#5b3fb8"/>
<rect x="320" y="30" width="10" height="10" fill="#5b3fb8"/>
<rect x="600" y="30" width="10" height="10" fill="#5b3fb8"/>
<rect x="110" y="40" width="10" height="10" fill="#5b3fb8"/>
<rect x="240" y="40" width="10" height="10" fill="#5b3fb8"/>
<rect x="170" y="50" width="10" height="10" fill="#a78bfa"/>
<rect x="540" y="50" width="10" height="10" fill="#5b3fb8"/>
<rect x="660" y="50" width="10" height="10" fill="#5b3fb8"/>
<rect x="680" y="50" width="10" height="10" fill="#5b3fb8"/>
<rect x="760" y="50" width="10" height="10" fill="#5b3fb8"/>
<rect x="80" y="60" width="10" height="10" fill="#a78bfa"/>
<rect x="340" y="60" width="10" height="10" fill="#a78bfa"/>
<rect x="350" y="60" width="10" height="10" fill="#5b3fb8"/>
<rect x="600" y="60" width="10" height="10" fill="#5b3fb8"/>
<rect x="220" y="70" width="10" height="10" fill="#5b3fb8"/>
<rect x="410" y="70" width="10" height="10" fill="#a78bfa"/>
<rect x="520" y="70" width="10" height="10" fill="#5b3fb8"/>
<rect x="660" y="70" width="10" height="10" fill="#5b3fb8"/>
<rect x="710" y="70" width="10" height="10" fill="#a78bfa"/>
<rect x="270" y="80" width="10" height="10" fill="#a78bfa"/>
<rect x="540" y="80" width="10" height="10" fill="#5b3fb8"/>
<rect x="320" y="90" width="10" height="10" fill="#5b3fb8"/>
<rect x="650" y="90" width="10" height="10" fill="#5b3fb8"/>
<rect x="710" y="90" width="10" height="10" fill="#a78bfa"/>
<rect x="100" y="100" width="10" height="10" fill="#5b3fb8"/>
<rect x="470" y="100" width="10" height="10" fill="#a78bfa"/>
<rect x="20" y="110" width="10" height="10" fill="#5b3fb8"/>
<rect x="170" y="110" width="10" height="10" fill="#a78bfa"/>
<rect x="430" y="110" width="10" height="10" fill="#a78bfa"/>
<rect x="190" y="120" width="10" height="10" fill="#5b3fb8"/>
<rect x="360" y="120" width="10" height="10" fill="#5b3fb8"/>
<rect x="600" y="120" width="10" height="10" fill="#5b3fb8"/>
<rect x="720" y="120" width="10" height="10" fill="#5b3fb8"/>
<rect x="660" y="130" width="10" height="10" fill="#5b3fb8"/>
<rect x="180" y="140" width="10" height="10" fill="#5b3fb8"/>
<rect x="310" y="140" width="10" height="10" fill="#5b3fb8"/>
<rect x="480" y="140" width="10" height="10" fill="#5b3fb8"/>
<rect x="160" y="150" width="10" height="10" fill="#5b3fb8"/>
<rect x="630" y="150" width="10" height="10" fill="#a78bfa"/>
<rect x="780" y="150" width="10" height="10" fill="#5b3fb8"/>
<rect x="60" y="160" width="10" height="10" fill="#5b3fb8"/>
<rect x="550" y="160" width="10" height="10" fill="#5b3fb8"/>
<rect x="580" y="160" width="10" height="10" fill="#5b3fb8"/>
<rect x="670" y="160" width="10" height="10" fill="#a78bfa"/>
<rect x="730" y="160" width="10" height="10" fill="#a78bfa"/>
<rect x="50" y="170" width="10" height="10" fill="#5b3fb8"/>
<rect x="180" y="170" width="10" height="10" fill="#a78bfa"/>
<rect x="480" y="170" width="10" height="10" fill="#a78bfa"/>
<rect x="550" y="170" width="10" height="10" fill="#a78bfa"/>
<rect x="780" y="170" width="10" height="10" fill="#5b3fb8"/>
<rect x="530" y="180" width="10" height="10" fill="#5b3fb8"/>
<rect x="610" y="180" width="10" height="10" fill="#a78bfa"/>
<rect x="150" y="190" width="10" height="10" fill="#5b3fb8"/>
<rect x="360" y="190" width="10" height="10" fill="#5b3fb8"/>
<rect x="700" y="190" width="10" height="10" fill="#5b3fb8"/>
<rect x="790" y="190" width="10" height="10" fill="#5b3fb8"/>
<rect x="30" y="200" width="10" height="10" fill="#a78bfa"/>
<rect x="380" y="200" width="10" height="10" fill="#a78bfa"/>
<rect x="30" y="210" width="10" height="10" fill="#a78bfa"/>
<rect x="90" y="210" width="10" height="10" fill="#a78bfa"/>
<rect x="170" y="210" width="10" height="10" fill="#5b3fb8"/>
<rect x="180" y="210" width="10" height="10" fill="#5b3fb8"/>
<rect x="500" y="210" width="10" height="10" fill="#5b3fb8"/>
<rect x="540" y="210" width="10" height="10" fill="#a78bfa"/>
<rect x="580" y="210" width="10" height="10" fill="#5b3fb8"/>
<rect x="430" y="220" width="10" height="10" fill="#5b3fb8"/>
<rect x="460" y="220" width="10" height="10" fill="#5b3fb8"/>
<rect x="450" y="230" width="10" height="10" fill="#5b3fb8"/>
<rect x="230" y="240" width="10" height="10" fill="#5b3fb8"/>
<rect x="240" y="240" width="10" height="10" fill="#5b3fb8"/>
<rect x="270" y="240" width="10" height="10" fill="#a78bfa"/>
<rect x="610" y="240" width="10" height="10" fill="#5b3fb8"/>
<rect x="680" y="240" width="10" height="10" fill="#5b3fb8"/>
<rect x="60" y="260" width="10" height="10" fill="#5b3fb8"/>
<rect x="70" y="260" width="10" height="10" fill="#5b3fb8"/>
<rect x="80" y="260" width="10" height="10" fill="#5b3fb8"/>
<rect x="90" y="260" width="10" height="10" fill="#5b3fb8"/>
<rect x="100" y="260" width="10" height="10" fill="#5b3fb8"/>
<rect x="110" y="260" width="10" height="10" fill="#5b3fb8"/>
<rect x="120" y="260" width="10" height="10" fill="#5b3fb8"/>
<rect x="130" y="260" width="10" height="10" fill="#5b3fb8"/>
<rect x="140" y="260" width="10" height="10" fill="#5b3fb8"/>
<rect x="150" y="260" width="10" height="10" fill="#5b3fb8"/>
<rect x="160" y="260" width="10" height="10" fill="#5b3fb8"/>
<rect x="70" y="250" width="10" height="10" fill="#5b3fb8"/>
<rect x="80" y="250" width="10" height="10" fill="#5b3fb8"/>
<rect x="90" y="250" width="10" height="10" fill="#5b3fb8"/>
<rect x="100" y="250" width="10" height="10" fill="#5b3fb8"/>
<rect x="110" y="250" width="10" height="10" fill="#5b3fb8"/>
<rect x="120" y="250" width="10" height="10" fill="#5b3fb8"/>
<rect x="130" y="250" width="10" height="10" fill="#5b3fb8"/>
<rect x="140" y="250" width="10" height="10" fill="#5b3fb8"/>
<rect x="150" y="250" width="10" height="10" fill="#5b3fb8"/>
<rect x="80" y="240" width="10" height="10" fill="#5b3fb8"/>
<rect x="90" y="240" width="10" height="10" fill="#5b3fb8"/>
<rect x="100" y="240" width="10" height="10" fill="#5b3fb8"/>
<rect x="110" y="240" width="10" height="10" fill="#5b3fb8"/>
<rect x="120" y="240" width="10" height="10" fill="#5b3fb8"/>
<rect x="130" y="240" width="10" height="10" fill="#5b3fb8"/>
<rect x="140" y="240" width="10" height="10" fill="#5b3fb8"/>
<rect x="90" y="230" width="10" height="10" fill="#5b3fb8"/>
<rect x="100" y="230" width="10" height="10" fill="#5b3fb8"/>
<rect x="110" y="230" width="10" height="10" fill="#5b3fb8"/>
<rect x="120" y="230" width="10" height="10" fill="#5b3fb8"/>
<rect x="130" y="230" width="10" height="10" fill="#5b3fb8"/>
<rect x="100" y="220" width="10" height="10" fill="#5b3fb8"/>
<rect x="110" y="220" width="10" height="10" fill="#5b3fb8"/>
<rect x="120" y="220" width="10" height="10" fill="#5b3fb8"/>
<rect x="320" y="260" width="10" height="10" fill="#5b3fb8"/>
<rect x="330" y="260" width="10" height="10" fill="#5b3fb8"/>
<rect x="340" y="260" width="10" height="10" fill="#5b3fb8"/>
<rect x="350" y="260" width="10" height="10" fill="#5b3fb8"/>
<rect x="360" y="260" width="10" height="10" fill="#5b3fb8"/>
<rect x="370" y="260" width="10" height="10" fill="#5b3fb8"/>
<rect x="380" y="260" width="10" height="10" fill="#5b3fb8"/>
<rect x="390" y="260" width="10" height="10" fill="#5b3fb8"/>
<rect x="400" y="260" width="10" height="10" fill="#5b3fb8"/>
<rect x="410" y="260" width="10" height="10" fill="#5b3fb8"/>
<rect x="420" y="260" width="10" height="10" fill="#5b3fb8"/>
<rect x="430" y="260" width="10" height="10" fill="#5b3fb8"/>
<rect x="440" y="260" width="10" height="10" fill="#5b3fb8"/>
<rect x="450" y="260" width="10" height="10" fill="#5b3fb8"/>
<rect x="460" y="260" width="10" height="10" fill="#5b3fb8"/>
<rect x="330" y="250" width="10" height="10" fill="#5b3fb8"/>
<rect x="340" y="250" width="10" height="10" fill="#5b3fb8"/>
<rect x="350" y="250" width="10" height="10" fill="#5b3fb8"/>
<rect x="360" y="250" width="10" height="10" fill="#5b3fb8"/>
<rect x="370" y="250" width="10" height="10" fill="#5b3fb8"/>
<rect x="380" y="250" width="10" height="10" fill="#5b3fb8"/>
<rect x="390" y="250" width="10" height="10" fill="#5b3fb8"/>
<rect x="400" y="250" width="10" height="10" fill="#5b3fb8"/>
<rect x="410" y="250" width="10" height="10" fill="#5b3fb8"/>
<rect x="420" y="250" width="10" height="10" fill="#5b3fb8"/>
<rect x="430" y="250" width="10" height="10" fill="#5b3fb8"/>
<rect x="440" y="250" width="10" height="10" fill="#5b3fb8"/>
<rect x="450" y="250" width="10" height="10" fill="#5b3fb8"/>
<rect x="340" y="240" width="10" height="10" fill="#5b3fb8"/>
<rect x="350" y="240" width="10" height="10" fill="#5b3fb8"/>
<rect x="360" y="240" width="10" height="10" fill="#5b3fb8"/>
<rect x="370" y="240" width="10" height="10" fill="#5b3fb8"/>
<rect x="380" y="240" width="10" height="10" fill="#5b3fb8"/>
<rect x="390" y="240" width="10" height="10" fill="#5b3fb8"/>
<rect x="400" y="240" width="10" height="10" fill="#5b3fb8"/>
<rect x="410" y="240" width="10" height="10" fill="#5b3fb8"/>
<rect x="420" y="240" width="10" height="10" fill="#5b3fb8"/>
<rect x="430" y="240" width="10" height="10" fill="#5b3fb8"/>
<rect x="440" y="240" width="10" height="10" fill="#5b3fb8"/>
<rect x="350" y="230" width="10" height="10" fill="#5b3fb8"/>
<rect x="360" y="230" width="10" height="10" fill="#5b3fb8"/>
<rect x="370" y="230" width="10" height="10" fill="#5b3fb8"/>
<rect x="380" y="230" width="10" height="10" fill="#5b3fb8"/>
<rect x="390" y="230" width="10" height="10" fill="#5b3fb8"/>
<rect x="400" y="230" width="10" height="10" fill="#5b3fb8"/>
<rect x="410" y="230" width="10" height="10" fill="#5b3fb8"/>
<rect x="420" y="230" width="10" height="10" fill="#5b3fb8"/>
<rect x="430" y="230" width="10" height="10" fill="#5b3fb8"/>
<rect x="360" y="220" width="10" height="10" fill="#5b3fb8"/>
<rect x="370" y="220" width="10" height="10" fill="#5b3fb8"/>
<rect x="380" y="220" width="10" height="10" fill="#5b3fb8"/>
<rect x="390" y="220" width="10" height="10" fill="#5b3fb8"/>
<rect x="400" y="220" width="10" height="10" fill="#5b3fb8"/>
<rect x="410" y="220" width="10" height="10" fill="#5b3fb8"/>
<rect x="420" y="220" width="10" height="10" fill="#5b3fb8"/>
<rect x="370" y="210" width="10" height="10" fill="#5b3fb8"/>
<rect x="380" y="210" width="10" height="10" fill="#5b3fb8"/>
<rect x="390" y="210" width="10" height="10" fill="#5b3fb8"/>
<rect x="400" y="210" width="10" height="10" fill="#5b3fb8"/>
<rect x="410" y="210" width="10" height="10" fill="#5b3fb8"/>
<rect x="380" y="200" width="10" height="10" fill="#5b3fb8"/>
<rect x="390" y="200" width="10" height="10" fill="#5b3fb8"/>
<rect x="400" y="200" width="10" height="10" fill="#5b3fb8"/>
<rect x="600" y="260" width="10" height="10" fill="#5b3fb8"/>
<rect x="610" y="260" width="10" height="10" fill="#5b3fb8"/>
<rect x="620" y="260" width="10" height="10" fill="#5b3fb8"/>
<rect x="630" y="260" width="10" height="10" fill="#5b3fb8"/>
<rect x="640" y="260" width="10" height="10" fill="#5b3fb8"/>
<rect x="650" y="260" width="10" height="10" fill="#5b3fb8"/>
<rect x="660" y="260" width="10" height="10" fill="#5b3fb8"/>
<rect x="670" y="260" width="10" height="10" fill="#5b3fb8"/>
<rect x="680" y="260" width="10" height="10" fill="#5b3fb8"/>
<rect x="690" y="260" width="10" height="10" fill="#5b3fb8"/>
<rect x="700" y="260" width="10" height="10" fill="#5b3fb8"/>
<rect x="610" y="250" width="10" height="10" fill="#5b3fb8"/>
<rect x="620" y="250" width="10" height="10" fill="#5b3fb8"/>
<rect x="630" y="250" width="10" height="10" fill="#5b3fb8"/>
<rect x="640" y="250" width="10" height="10" fill="#5b3fb8"/>
<rect x="650" y="250" width="10" height="10" fill="#5b3fb8"/>
<rect x="660" y="250" width="10" height="10" fill="#5b3fb8"/>
<rect x="670" y="250" width="10" height="10" fill="#5b3fb8"/>
<rect x="680" y="250" width="10" height="10" fill="#5b3fb8"/>
<rect x="690" y="250" width="10" height="10" fill="#5b3fb8"/>
<rect x="620" y="240" width="10" height="10" fill="#5b3fb8"/>
<rect x="630" y="240" width="10" height="10" fill="#5b3fb8"/>
<rect x="640" y="240" width="10" height="10" fill="#5b3fb8"/>
<rect x="650" y="240" width="10" height="10" fill="#5b3fb8"/>
<rect x="660" y="240" width="10" height="10" fill="#5b3fb8"/>
<rect x="670" y="240" width="10" height="10" fill="#5b3fb8"/>
<rect x="680" y="240" width="10" height="10" fill="#5b3fb8"/>
<rect x="630" y="230" width="10" height="10" fill="#5b3fb8"/>
<rect x="640" y="230" width="10" height="10" fill="#5b3fb8"/>
<rect x="650" y="230" width="10" height="10" fill="#5b3fb8"/>
<rect x="660" y="230" width="10" height="10" fill="#5b3fb8"/>
<rect x="670" y="230" width="10" height="10" fill="#5b3fb8"/>
<rect x="640" y="220" width="10" height="10" fill="#5b3fb8"/>
<rect x="650" y="220" width="10" height="10" fill="#5b3fb8"/>
<rect x="660" y="220" width="10" height="10" fill="#5b3fb8"/>
<rect x="170" y="100" width="10" height="10" fill="#a78bfa"/>
<rect x="160" y="110" width="10" height="10" fill="#a78bfa"/>
<rect x="170" y="110" width="10" height="10" fill="#a78bfa"/>
<rect x="180" y="110" width="10" height="10" fill="#a78bfa"/>
<rect x="150" y="120" width="10" height="10" fill="#a78bfa"/>
<rect x="160" y="120" width="10" height="10" fill="#a78bfa"/>
<rect x="170" y="120" width="10" height="10" fill="#a78bfa"/>
<rect x="180" y="120" width="10" height="10" fill="#a78bfa"/>
<rect x="190" y="120" width="10" height="10" fill="#a78bfa"/>
<rect x="160" y="130" width="10" height="10" fill="#a78bfa"/>
<rect x="170" y="130" width="10" height="10" fill="#a78bfa"/>
<rect x="180" y="130" width="10" height="10" fill="#a78bfa"/>
<rect x="170" y="140" width="10" height="10" fill="#a78bfa"/>
</svg>
