<?xml version="1.0" encoding="UTF-8"?>
<svg xmlns="http://www.w3.org/2000/svg" viewBox="0 0 800 450" shape-rendering="crispEdges" preserveAspectRatio="xMidYMid slice">
<rect x="0" y="0" width="800" height="10" fill="#0d2723"/>
<rect x="0" y="10" width="800" height="10" fill="#0d2723"/>
<rect x="0" y="20" width="800" height="10" fill="#0d2723"/>
<rect x="0" y="30" width="800" height="10" fill="#0d2723"/>
<rect x="0" y="40" width="800" height="10" fill="#0d2723"/>
<rect x="0" y="50" width="800" height="10" fill="#0d2723"/>
<rect x="0" y="60" width="800" height="10" fill="#0d2723"/>
<rect x="0" y="70" width="800" height="10" fill="#0d2723"/>
<rect x="0" y="80" width="390" height="10" fill="#0d2723"/>
<rect x="390" y="80" width="10" height="10" fill="#facc15"/>
<rect x="400" y="80" width="20" height="10" fill="#fde047"/>
<rect x="420" y="80" width="380" height="10" fill="#0d2723"/>
<rect x="0" y="90" width="370" height="10" fill="#0d2723"/>
<rect x="370" y="90" width="20" height="10" fill="#34d399"/>
<rect x="390" y="90" width="10" height="10" fill="#facc15"/>
<rect x="400" y="90" width="20" height="10" fill="#fde047"/>
<rect x="420" y="90" width="20" height="10" fill="#34d399"/>
<rect x="440" y="90" width="360" height="10" fill="#0d2723"/>
<rect x="0" y="100" width="360" height="10" fill="#0d2723"/>
<rect x="360" y="100" width="20" height="10" fill="#34d399"/>
<rect x="380" y="100" width="10" height="10" fill="#facc15"/>
<rect x="390" y="100" width="20" height="10" fill="#fde047"/>
<rect x="410" y="100" width="40" height="10" fill="#34d399"/>
<rect x="450" y="100" width="350" height="10" fill="#0d2723"/>
<rect x="0" y="110" width="280" height="10" fill="#0d2723"/>
<rect x="280" y="110" width="10" height="10" fill="#34d399"/>
<rect x="290" y="110" width="40" height="10" fill="#0d2723"/>
<rect x="330" y="110" width="10" height="10" fill="#34d399"/>
<rect x="340" y="110" width="10" height="10" fill="#0d2723"/>
<rect x="350" y="110" width="30" height="10" fill="#34d399"/>
<rect x="380" y="110" width="10" height="10" fill="#facc15"/>
<rect x="390" y="110" width="20" height="10" fill="#fde047"/>
<rect x="410" y="110" width="50" height="10" fill="#34d399"/>
<rect x="460" y="110" width="10" height="10" fill="#0d2723"/>
<rect x="470" y="110" width="10" height="10" fill="#34d399"/>
<rect x="480" y="110" width="40" height="10" fill="#0d2723"/>
<rect x="520" y="110" width="10" height="10" fill="#34d399"/>
<rect x="530" y="110" width="270" height="10" fill="#0d2723"/>
<rect x="0" y="120" width="250" height="10" fill="#0d2723"/>
<rect x="250" y="120" width="130" height="10" fill="#34d399"/>
<rect x="380" y="120" width="10" height="10" fill="#facc15"/>
<rect x="390" y="120" width="20" height="10" fill="#fde047"/>
<rect x="410" y="120" width="150" height="10" fill="#34d399"/>
<rect x="560" y="120" width="240" height="10" fill="#0d2723"/>
<rect x="0" y="130" width="240" height="10" fill="#0d2723"/>
<rect x="240" y="130" width="150" height="10" fill="#34d399"/>
<rect x="390" y="130" width="20" height="10" fill="#facc15"/>
<rect x="410" y="130" width="20" height="10" fill="#fde047"/>
<rect x="430" y="130" width="140" height="10" fill="#34d399"/>
<rect x="570" y="130" width="230" height="10" fill="#0d2723"/>
<rect x="0" y="140" width="240" height="10" fill="#0d2723"/>
<rect x="240" y="140" width="160" height="10" fill="#34d399"/>
<rect x="400" y="140" width="10" height="10" fill="#fde047"/>
<rect x="410" y="140" width="10" height="10" fill="#facc15"/>
<rect x="420" y="140" width="20" height="10" fill="#fde047"/>
<rect x="440" y="140" width="130" height="10" fill="#34d399"/>
<rect x="570" y="140" width="230" height="10" fill="#0d2723"/>
<rect x="0" y="150" width="240" height="10" fill="#0d2723"/>
<rect x="240" y="150" width="40" height="10" fill="#34d399"/>
<rect x="280" y="150" width="10" height="10" fill="#67deb3"/>
<rect x="290" y="150" width="120" height="10" fill="#34d399"/>
<rect x="410" y="150" width="10" height="10" fill="#facc15"/>
<rect x="420" y="150" width="20" height="10" fill="#fde047"/>
<rect x="440" y="150" width="60" height="10" fill="#34d399"/>
<rect x="500" y="150" width="10" height="10" fill="#67deb3"/>
<rect x="510" y="150" width="60" height="10" fill="#34d399"/>
<rect x="570" y="150" width="230" height="10" fill="#0d2723"/>
<rect x="0" y="160" width="230" height="10" fill="#0d2723"/>
<rect x="230" y="160" width="30" height="10" fill="#34d399"/>
<rect x="260" y="160" width="10" height="10" fill="#67deb3"/>
<rect x="270" y="160" width="10" height="10" fill="#a4ebd1"/>
<rect x="280" y="160" width="30" height="10" fill="#67deb3"/>
<rect x="310" y="160" width="90" height="10" fill="#34d399"/>
<rect x="400" y="160" width="10" height="10" fill="#facc15"/>
<rect x="410" y="160" width="20" height="10" fill="#fde047"/>
<rect x="430" y="160" width="50" height="10" fill="#34d399"/>
<rect x="480" y="160" width="10" height="10" fill="#67deb3"/>
<rect x="490" y="160" width="10" height="10" fill="#a4ebd1"/>
<rect x="500" y="160" width="30" height="10" fill="#67deb3"/>
<rect x="530" y="160" width="50" height="10" fill="#34d399"/>
<rect x="580" y="160" width="220" height="10" fill="#0d2723"/>
<rect x="0" y="170" width="240" height="10" fill="#0d2723"/>
<rect x="240" y="170" width="20" height="10" fill="#34d399"/>
<rect x="260" y="170" width="30" height="10" fill="#a4ebd1"/>
<rect x="290" y="170" width="20" height="10" fill="#67deb3"/>
<rect x="310" y="170" width="90" height="10" fill="#34d399"/>
<rect x="400" y="170" width="10" height="10" fill="#facc15"/>
<rect x="410" y="170" width="20" height="10" fill="#fde047"/>
<rect x="430" y="170" width="50" height="10" fill="#34d399"/>
<rect x="480" y="170" width="30" height="10" fill="#a4ebd1"/>
<rect x="510" y="170" width="20" height="10" fill="#67deb3"/>
<rect x="530" y="170" width="40" height="10" fill="#34d399"/>
<rect x="570" y="170" width="230" height="10" fill="#0d2723"/>
<rect x="0" y="180" width="230" height="10" fill="#0d2723"/>
<rect x="230" y="180" width="20" height="10" fill="#34d399"/>
<rect x="250" y="180" width="20" height="10" fill="#67deb3"/>
<rect x="270" y="180" width="10" height="10" fill="#a4ebd1"/>
<rect x="280" y="180" width="40" height="10" fill="#67deb3"/>
<rect x="320" y="180" width="20" height="10" fill="#34d399"/>
<rect x="340" y="180" width="50" height="10" fill="#1f7f5c"/>
<rect x="390" y="180" width="10" height="10" fill="#34d399"/>
<rect x="400" y="180" width="10" height="10" fill="#facc15"/>
<rect x="410" y="180" width="20" height="10" fill="#fde047"/>
<rect x="430" y="180" width="40" height="10" fill="#1f7f5c"/>
<rect x="470" y="180" width="20" height="10" fill="#67deb3"/>
<rect x="490" y="180" width="10" height="10" fill="#a4ebd1"/>
<rect x="500" y="180" width="40" height="10" fill="#67deb3"/>
<rect x="540" y="180" width="40" height="10" fill="#34d399"/>
<rect x="580" y="180" width="220" height="10" fill="#0d2723"/>
<rect x="0" y="190" width="230" height="10" fill="#0d2723"/>
<rect x="230" y="190" width="30" height="10" fill="#34d399"/>
<rect x="260" y="190" width="50" height="10" fill="#67deb3"/>
<rect x="310" y="190" width="100" height="10" fill="#34d399"/>
<rect x="410" y="190" width="20" height="10" fill="#facc15"/>
<rect x="430" y="190" width="20" height="10" fill="#fde047"/>
<rect x="450" y="190" width="30" height="10" fill="#34d399"/>
<rect x="480" y="190" width="50" height="10" fill="#67deb3"/>
<rect x="530" y="190" width="50" height="10" fill="#34d399"/>
<rect x="580" y="190" width="220" height="10" fill="#0d2723"/>
<rect x="0" y="200" width="230" height="10" fill="#0d2723"/>
<rect x="230" y="200" width="30" height="10" fill="#34d399"/>
<rect x="260" y="200" width="50" height="10" fill="#67deb3"/>
<rect x="310" y="200" width="110" height="10" fill="#34d399"/>
<rect x="420" y="200" width="10" height="10" fill="#fde047"/>
<rect x="430" y="200" width="10" height="10" fill="#facc15"/>
<rect x="440" y="200" width="20" height="10" fill="#fde047"/>
<rect x="460" y="200" width="20" height="10" fill="#34d399"/>
<rect x="480" y="200" width="50" height="10" fill="#67deb3"/>
<rect x="530" y="200" width="50" height="10" fill="#34d399"/>
<rect x="580" y="200" width="220" height="10" fill="#0d2723"/>
<rect x="0" y="210" width="230" height="10" fill="#0d2723"/>
<rect x="230" y="210" width="50" height="10" fill="#34d399"/>
<rect x="280" y="210" width="10" height="10" fill="#67deb3"/>
<rect x="290" y="210" width="130" height="10" fill="#34d399"/>
<rect x="420" y="210" width="10" height="10" fill="#facc15"/>
<rect x="430" y="210" width="20" height="10" fill="#fde047"/>
<rect x="450" y="210" width="50" height="10" fill="#34d399"/>
<rect x="500" y="210" width="10" height="10" fill="#67deb3"/>
<rect x="510" y="210" width="70" height="10" fill="#34d399"/>
<rect x="580" y="210" width="220" height="10" fill="#0d2723"/>
<rect x="0" y="220" width="220" height="10" fill="#0d2723"/>
<rect x="220" y="220" width="20" height="10" fill="#34d399"/>
<rect x="240" y="220" width="90" height="10" fill="#1f7f5c"/>
<rect x="330" y="220" width="90" height="10" fill="#34d399"/>
<rect x="420" y="220" width="10" height="10" fill="#facc15"/>
<rect x="430" y="220" width="20" height="10" fill="#fde047"/>
<rect x="450" y="220" width="30" height="10" fill="#34d399"/>
<rect x="480" y="220" width="90" height="10" fill="#1f7f5c"/>
<rect x="570" y="220" width="20" height="10" fill="#34d399"/>
<rect x="590" y="220" width="210" height="10" fill="#0d2723"/>
<rect x="0" y="230" width="230" height="10" fill="#0d2723"/>
<rect x="230" y="230" width="180" height="10" fill="#34d399"/>
<rect x="410" y="230" width="10" height="10" fill="#facc15"/>
<rect x="420" y="230" width="20" height="10" fill="#fde047"/>
<rect x="440" y="230" width="140" height="10" fill="#34d399"/>
<rect x="580" y="230" width="220" height="10" fill="#0d2723"/>
<rect x="0" y="240" width="230" height="10" fill="#0d2723"/>
<rect x="230" y="240" width="170" height="10" fill="#34d399"/>
<rect x="400" y="240" width="10" height="10" fill="#facc15"/>
<rect x="410" y="240" width="20" height="10" fill="#fde047"/>
<rect x="430" y="240" width="150" height="10" fill="#34d399"/>
<rect x="580" y="240" width="220" height="10" fill="#0d2723"/>
<rect x="0" y="250" width="230" height="10" fill="#0d2723"/>
<rect x="230" y="250" width="170" height="10" fill="#34d399"/>
<rect x="400" y="250" width="10" height="10" fill="#facc15"/>
<rect x="410" y="250" width="20" height="10" fill="#fde047"/>
<rect x="430" y="250" width="150" height="10" fill="#34d399"/>
<rect x="580" y="250" width="220" height="10" fill="#0d2723"/>
<rect x="0" y="260" width="230" height="10" fill="#0d2723"/>
<rect x="230" y="260" width="50" height="10" fill="#34d399"/>
<rect x="280" y="260" width="90" height="10" fill="#1f7f5c"/>
<rect x="370" y="260" width="20" height="10" fill="#34d399"/>
<rect x="390" y="260" width="10" height="10" fill="#facc15"/>
<rect x="400" y="260" width="20" height="10" fill="#fde047"/>
<rect x="420" y="260" width="20" height="10" fill="#34d399"/>
<rect x="440" y="260" width="90" height="10" fill="#1f7f5c"/>
<rect x="530" y="260" width="50" height="10" fill="#34d399"/>
<rect x="580" y="260" width="220" height="10" fill="#0d2723"/>
<rect x="0" y="270" width="240" height="10" fill="#0d2723"/>
<rect x="240" y="270" width="160" height="10" fill="#34d399"/>
<rect x="400" y="270" width="10" height="10" fill="#facc15"/>
<rect x="410" y="270" width="20" height="10" fill="#fde047"/>
<rect x="430" y="270" width="140" height="10" fill="#34d399"/>
<rect x="570" y="270" width="230" height="10" fill="#0d2723"/>
<rect x="0" y="280" width="240" height="10" fill="#0d2723"/>
<rect x="240" y="280" width="170" height="10" fill="#34d399"/>
<rect x="410" y="280" width="10" height="10" fill="#facc15"/>
<rect x="420" y="280" width="20" height="10" fill="#fde047"/>
<rect x="440" y="280" width="130" height="10" fill="#34d399"/>
<rect x="570" y="280" width="230" height="10" fill="#0d2723"/>
<rect x="0" y="290" width="250" height="10" fill="#0d2723"/>
<rect x="250" y="290" width="150" height="10" fill="#34d399"/>
<rect x="400" y="290" width="10" height="10" fill="#facc15"/>
<rect x="410" y="290" width="20" height="10" fill="#fde047"/>
<rect x="430" y="290" width="130" height="10" fill="#34d399"/>
<rect x="560" y="290" width="240" height="10" fill="#0d2723"/>
<rect x="0" y="300" width="260" height="10" fill="#0d2723"/>
<rect x="260" y="300" width="130" height="10" fill="#34d399"/>
<rect x="390" y="300" width="10" height="10" fill="#facc15"/>
<rect x="400" y="300" width="20" height="10" fill="#fde047"/>
<rect x="420" y="300" width="130" height="10" fill="#34d399"/>
<rect x="550" y="300" width="250" height="10" fill="#0d2723"/>
<rect x="0" y="310" width="270" height="10" fill="#0f2e28"/>
<rect x="270" y="310" width="110" height="10" fill="#34d399"/>
<rect x="380" y="310" width="10" height="10" fill="#facc15"/>
<rect x="390" y="310" width="20" height="10" fill="#fde047"/>
<rect x="410" y="310" width="130" height="10" fill="#34d399"/>
<rect x="540" y="310" width="260" height="10" fill="#0f2e28"/>
<rect x="0" y="320" width="290" height="10" fill="#0f312a"/>
<rect x="290" y="320" width="80" height="10" fill="#34d399"/>
<rect x="370" y="320" width="10" height="10" fill="#facc15"/>
<rect x="380" y="320" width="20" height="10" fill="#fde047"/>
<rect x="400" y="320" width="30" height="10" fill="#0f312a"/>
<rect x="430" y="320" width="90" height="10" fill="#34d399"/>
<rect x="520" y="320" width="280" height="10" fill="#0f312a"/>
<rect x="0" y="330" width="330" height="10" fill="#10332b"/>
<rect x="330" y="330" width="10" height="10" fill="#34d399"/>
<rect x="340" y="330" width="40" height="10" fill="#10332b"/>
<rect x="380" y="330" width="40" height="10" fill="#1f7f5c"/>
<rect x="420" y="330" width="50" height="10" fill="#10332b"/>
<rect x="470" y="330" width="10" height="10" fill="#34d399"/>
<rect x="480" y="330" width="320" height="10" fill="#10332b"/>
<rect x="0" y="340" width="380" height="10" fill="#10352d"/>
<rect x="380" y="340" width="40" height="10" fill="#1f7f5c"/>
<rect x="420" y="340" width="380" height="10" fill="#10352d"/>
<rect x="0" y="350" width="380" height="10" fill="#11382e"/>
<rect x="380" y="350" width="40" height="10" fill="#1f7f5c"/>
<rect x="420" y="350" width="380" height="10" fill="#11382e"/>
<rect x="0" y="360" width="380" height="10" fill="#113a30"/>
<rect x="380" y="360" width="40" height="10" fill="#1f7f5c"/>
<rect x="420" y="360" width="380" height="10" fill="#113a30"/>
<rect x="0" y="370" width="360" height="10" fill="#123c32"/>
<rect x="360" y="370" width="80" height="10" fill="#1f7f5c"/>
<rect x="440" y="370" width="360" height="10" fill="#123c32"/>
<rect x="0" y="380" width="360" height="10" fill="#123f33"/>
<rect x="360" y="380" width="80" height="10" fill="#1f7f5c"/>
<rect x="440" y="380" width="360" height="10" fill="#123f33"/>
<rect x="0" y="390" width="800" height="10" fill="#134135"/>
<rect x="0" y="400" width="800" height="10" fill="#134336"/>
<rect x="0" y="410" width="800" height="10" fill="#144538"/>
<rect x="0" y="420" width="800" height="10" fill="#144839"/>
<rect x="0" y="430" width="800" height="10" fill="#154a3b"/>
<rect x="0" y="440" width="800" height="10" fill="#154c3d"/>
</svg>
