<?xml version="1.0" encoding="UTF-8"?>
<svg xmlns="http://www.w3.org/2000/svg" viewBox="0 0 800 450" shape-rendering="crispEdges" preserveAspectRatio="xMidYMid slice">
<rect x="0" y="0" width="800" height="10" fill="#2d2410"/>
<rect x="0" y="10" width="800" height="10" fill="#2d2410"/>
<rect x="0" y="20" width="800" height="10" fill="#2d2410"/>
<rect x="0" y="30" width="800" height="10" fill="#2d2410"/>
<rect x="0" y="40" width="800" height="10" fill="#2d2410"/>
<rect x="0" y="50" width="800" height="10" fill="#2d2410"/>
<rect x="0" y="60" width="800" height="10" fill="#2d2410"/>
<rect x="0" y="70" width="800" height="10" fill="#2d2410"/>
<rect x="0" y="80" width="660" height="10" fill="#2d2410"/>
<rect x="660" y="80" width="10" height="10" fill="#64d68e"/>
<rect x="670" y="80" width="130" height="10" fill="#2d2410"/>
<rect x="0" y="90" width="650" height="10" fill="#2d2410"/>
<rect x="650" y="90" width="10" height="10" fill="#188a42"/>
<rect x="660" y="90" width="10" height="10" fill="#22c55e"/>
<rect x="670" y="90" width="10" height="10" fill="#64d68e"/>
<rect x="680" y="90" width="120" height="10" fill="#2d2410"/>
<rect x="0" y="100" width="650" height="10" fill="#2d2410"/>
<rect x="650" y="100" width="10" height="10" fill="#188a42"/>
<rect x="660" y="100" width="10" height="10" fill="#22c55e"/>
<rect x="670" y="100" width="10" height="10" fill="#64d68e"/>
<rect x="680" y="100" width="120" height="10" fill="#2d2410"/>
<rect x="0" y="110" width="640" height="10" fill="#2d2410"/>
<rect x="640" y="110" width="10" height="10" fill="#188a42"/>
<rect x="650" y="110" width="30" height="10" fill="#22c55e"/>
<rect x="680" y="110" width="10" height="10" fill="#64d68e"/>
<rect x="690" y="110" width="110" height="10" fill="#2d2410"/>
<rect x="0" y="120" width="630" height="10" fill="#2d2410"/>
<rect x="630" y="120" width="10" height="10" fill="#188a42"/>
<rect x="640" y="120" width="50" height="10" fill="#22c55e"/>
<rect x="690" y="120" width="10" height="10" fill="#64d68e"/>
<rect x="700" y="120" width="100" height="10" fill="#2d2410"/>
<rect x="0" y="130" width="620" height="10" fill="#2d2410"/>
<rect x="620" y="130" width="10" height="10" fill="#188a42"/>
<rect x="630" y="130" width="70" height="10" fill="#22c55e"/>
<rect x="700" y="130" width="10" height="10" fill="#64d68e"/>
<rect x="710" y="130" width="90" height="10" fill="#2d2410"/>
<rect x="0" y="140" width="360" height="10" fill="#2d2410"/>
<rect x="360" y="140" width="30" height="10" fill="#1c1c2c"/>
<rect x="390" y="140" width="230" height="10" fill="#2d2410"/>
<rect x="620" y="140" width="10" height="10" fill="#188a42"/>
<rect x="630" y="140" width="70" height="10" fill="#22c55e"/>
<rect x="700" y="140" width="10" height="10" fill="#64d68e"/>
<rect x="710" y="140" width="90" height="10" fill="#2d2410"/>
<rect x="0" y="150" width="360" height="10" fill="#2d2410"/>
<rect x="360" y="150" width="30" height="10" fill="#1c1c2c"/>
<rect x="390" y="150" width="220" height="10" fill="#2d2410"/>
<rect x="610" y="150" width="10" height="10" fill="#188a42"/>
<rect x="620" y="150" width="90" height="10" fill="#22c55e"/>
<rect x="710" y="150" width="10" height="10" fill="#64d68e"/>
<rect x="720" y="150" width="80" height="10" fill="#2d2410"/>
<rect x="0" y="160" width="360" height="10" fill="#2d2410"/>
<rect x="360" y="160" width="30" height="10" fill="#fbbf24"/>
<rect x="390" y="160" width="210" height="10" fill="#2d2410"/>
<rect x="600" y="160" width="10" height="10" fill="#188a42"/>
<rect x="610" y="160" width="110" height="10" fill="#22c55e"/>
<rect x="720" y="160" width="10" height="10" fill="#64d68e"/>
<rect x="730" y="160" width="70" height="10" fill="#2d2410"/>
<rect x="0" y="170" width="180" height="10" fill="#2d2410"/>
<rect x="180" y="170" width="180" height="10" fill="#7d5a37"/>
<rect x="360" y="170" width="30" height="10" fill="#fbbf24"/>
<rect x="390" y="170" width="30" height="10" fill="#7d5a37"/>
<rect x="420" y="170" width="220" height="10" fill="#2d2410"/>
<rect x="640" y="170" width="60" height="10" fill="#22c55e"/>
<rect x="700" y="170" width="100" height="10" fill="#2d2410"/>
<rect x="0" y="180" width="180" height="10" fill="#2d2410"/>
<rect x="180" y="180" width="20" height="10" fill="#7d5a37"/>
<rect x="200" y="180" width="10" height="10" fill="#d6a463"/>
<rect x="210" y="180" width="70" height="10" fill="#7d5a37"/>
<rect x="280" y="180" width="10" height="10" fill="#22c55e"/>
<rect x="290" y="180" width="70" height="10" fill="#7d5a37"/>
<rect x="360" y="180" width="30" height="10" fill="#fbbf24"/>
<rect x="390" y="180" width="30" height="10" fill="#7d5a37"/>
<rect x="420" y="180" width="220" height="10" fill="#2d2410"/>
<rect x="640" y="180" width="60" height="10" fill="#22c55e"/>
<rect x="700" y="180" width="100" height="10" fill="#2d2410"/>
<rect x="0" y="190" width="180" height="10" fill="#2d2410"/>
<rect x="180" y="190" width="20" height="10" fill="#d6a463"/>
<rect x="200" y="190" width="10" height="10" fill="#e6b277"/>
<rect x="210" y="190" width="20" height="10" fill="#d6a463"/>
<rect x="230" y="190" width="30" height="10" fill="#2d2410"/>
<rect x="260" y="190" width="50" height="10" fill="#ef4444"/>
<rect x="310" y="190" width="50" height="10" fill="#2d2410"/>
<rect x="360" y="190" width="30" height="10" fill="#fbbf24"/>
<rect x="390" y="190" width="10" height="10" fill="#2d2410"/>
<rect x="400" y="190" width="20" height="10" fill="#7d5a37"/>
<rect x="420" y="190" width="220" height="10" fill="#2d2410"/>
<rect x="640" y="190" width="10" height="10" fill="#22c55e"/>
<rect x="650" y="190" width="10" height="10" fill="#fff"/>
<rect x="660" y="190" width="40" height="10" fill="#22c55e"/>
<rect x="700" y="190" width="100" height="10" fill="#2d2410"/>
<rect x="0" y="200" width="180" height="10" fill="#2d2410"/>
<rect x="180" y="200" width="10" height="10" fill="#d6a463"/>
<rect x="190" y="200" width="30" height="10" fill="#e6b277"/>
<rect x="220" y="200" width="10" height="10" fill="#d6a463"/>
<rect x="230" y="200" width="30" height="10" fill="#2d2410"/>
<rect x="260" y="200" width="50" height="10" fill="#ef4444"/>
<rect x="310" y="200" width="50" height="10" fill="#2d2410"/>
<rect x="360" y="200" width="30" height="10" fill="#fbbf24"/>
<rect x="390" y="200" width="10" height="10" fill="#2d2410"/>
<rect x="400" y="200" width="20" height="10" fill="#7d5a37"/>
<rect x="420" y="200" width="220" height="10" fill="#2d2410"/>
<rect x="640" y="200" width="10" height="10" fill="#22c55e"/>
<rect x="650" y="200" width="10" height="10" fill="#fff"/>
<rect x="660" y="200" width="20" height="10" fill="#22c55e"/>
<rect x="680" y="200" width="10" height="10" fill="#fff"/>
<rect x="690" y="200" width="10" height="10" fill="#22c55e"/>
<rect x="700" y="200" width="100" height="10" fill="#2d2410"/>
<rect x="0" y="210" width="170" height="10" fill="#2d2410"/>
<rect x="170" y="210" width="10" height="10" fill="#d6a463"/>
<rect x="180" y="210" width="50" height="10" fill="#e6b277"/>
<rect x="230" y="210" width="10" height="10" fill="#d6a463"/>
<rect x="240" y="210" width="10" height="10" fill="#2d2410"/>
<rect x="250" y="210" width="70" height="10" fill="#ef4444"/>
<rect x="320" y="210" width="30" height="10" fill="#2d2410"/>
<rect x="350" y="210" width="50" height="10" fill="#1c1c2c"/>
<rect x="400" y="210" width="20" height="10" fill="#7d5a37"/>
<rect x="420" y="210" width="220" height="10" fill="#2d2410"/>
<rect x="640" y="210" width="30" height="10" fill="#22c55e"/>
<rect x="670" y="210" width="10" height="10" fill="#fff"/>
<rect x="680" y="210" width="20" height="10" fill="#22c55e"/>
<rect x="700" y="210" width="100" height="10" fill="#2d2410"/>
<rect x="0" y="220" width="140" height="10" fill="#2d2410"/>
<rect x="140" y="220" width="40" height="10" fill="#8b6843"/>
<rect x="180" y="220" width="10" height="10" fill="#d6a463"/>
<rect x="190" y="220" width="30" height="10" fill="#e6b277"/>
<rect x="220" y="220" width="10" height="10" fill="#d6a463"/>
<rect x="230" y="220" width="30" height="10" fill="#8b6843"/>
<rect x="260" y="220" width="50" height="10" fill="#ef4444"/>
<rect x="310" y="220" width="40" height="10" fill="#8b6843"/>
<rect x="350" y="220" width="50" height="10" fill="#1c1c2c"/>
<rect x="400" y="220" width="60" height="10" fill="#8b6843"/>
<rect x="460" y="220" width="180" height="10" fill="#2d2410"/>
<rect x="640" y="220" width="10" height="10" fill="#22c55e"/>
<rect x="650" y="220" width="20" height="10" fill="#fff"/>
<rect x="670" y="220" width="30" height="10" fill="#22c55e"/>
<rect x="700" y="220" width="100" height="10" fill="#2d2410"/>
<rect x="0" y="230" width="140" height="10" fill="#2d2410"/>
<rect x="140" y="230" width="10" height="10" fill="#7d5a37"/>
<rect x="150" y="230" width="20" height="10" fill="#a47a4f"/>
<rect x="170" y="230" width="10" height="10" fill="#7d5a37"/>
<rect x="180" y="230" width="20" height="10" fill="#d6a463"/>
<rect x="200" y="230" width="10" height="10" fill="#e6b277"/>
<rect x="210" y="230" width="20" height="10" fill="#d6a463"/>
<rect x="230" y="230" width="10" height="10" fill="#7d5a37"/>
<rect x="240" y="230" width="20" height="10" fill="#a47a4f"/>
<rect x="260" y="230" width="50" height="10" fill="#ef4444"/>
<rect x="310" y="230" width="10" height="10" fill="#a47a4f"/>
<rect x="320" y="230" width="10" height="10" fill="#7d5a37"/>
<rect x="330" y="230" width="20" height="10" fill="#a47a4f"/>
<rect x="350" y="230" width="10" height="10" fill="#7d5a37"/>
<rect x="360" y="230" width="20" height="10" fill="#a47a4f"/>
<rect x="380" y="230" width="10" height="10" fill="#7d5a37"/>
<rect x="390" y="230" width="20" height="10" fill="#a47a4f"/>
<rect x="410" y="230" width="10" height="10" fill="#7d5a37"/>
<rect x="420" y="230" width="20" height="10" fill="#a47a4f"/>
<rect x="440" y="230" width="10" height="10" fill="#7d5a37"/>
<rect x="450" y="230" width="10" height="10" fill="#1c1c2c"/>
<rect x="460" y="230" width="180" height="10" fill="#2d2410"/>
<rect x="640" y="230" width="10" height="10" fill="#22c55e"/>
<rect x="650" y="230" width="10" height="10" fill="#fff"/>
<rect x="660" y="230" width="40" height="10" fill="#22c55e"/>
<rect x="700" y="230" width="100" height="10" fill="#2d2410"/>
<rect x="0" y="240" width="140" height="10" fill="#2d2410"/>
<rect x="140" y="240" width="10" height="10" fill="#7d5a37"/>
<rect x="150" y="240" width="20" height="10" fill="#a47a4f"/>
<rect x="170" y="240" width="10" height="10" fill="#7d5a37"/>
<rect x="180" y="240" width="20" height="10" fill="#a47a4f"/>
<rect x="200" y="240" width="10" height="10" fill="#d6a463"/>
<rect x="210" y="240" width="20" height="10" fill="#a47a4f"/>
<rect x="230" y="240" width="10" height="10" fill="#7d5a37"/>
<rect x="240" y="240" width="20" height="10" fill="#a47a4f"/>
<rect x="260" y="240" width="10" height="10" fill="#7d5a37"/>
<rect x="270" y="240" width="10" height="10" fill="#a47a4f"/>
<rect x="280" y="240" width="10" height="10" fill="#ef4444"/>
<rect x="290" y="240" width="10" height="10" fill="#7d5a37"/>
<rect x="300" y="240" width="20" height="10" fill="#a47a4f"/>
<rect x="320" y="240" width="10" height="10" fill="#7d5a37"/>
<rect x="330" y="240" width="20" height="10" fill="#a47a4f"/>
<rect x="350" y="240" width="10" height="10" fill="#7d5a37"/>
<rect x="360" y="240" width="20" height="10" fill="#a47a4f"/>
<rect x="380" y="240" width="10" height="10" fill="#7d5a37"/>
<rect x="390" y="240" width="20" height="10" fill="#a47a4f"/>
<rect x="410" y="240" width="10" height="10" fill="#7d5a37"/>
<rect x="420" y="240" width="20" height="10" fill="#a47a4f"/>
<rect x="440" y="240" width="10" height="10" fill="#7d5a37"/>
<rect x="450" y="240" width="10" height="10" fill="#1c1c2c"/>
<rect x="460" y="240" width="180" height="10" fill="#2d2410"/>
<rect x="640" y="240" width="10" height="10" fill="#fff"/>
<rect x="650" y="240" width="50" height="10" fill="#22c55e"/>
<rect x="700" y="240" width="100" height="10" fill="#2d2410"/>
<rect x="0" y="250" width="140" height="10" fill="#2d2410"/>
<rect x="140" y="250" width="320" height="10" fill="#8b6843"/>
<rect x="460" y="250" width="180" height="10" fill="#2d2410"/>
<rect x="640" y="250" width="60" height="10" fill="#22c55e"/>
<rect x="700" y="250" width="100" height="10" fill="#2d2410"/>
<rect x="0" y="260" width="140" height="10" fill="#2d2410"/>
<rect x="140" y="260" width="10" height="10" fill="#7d5a37"/>
<rect x="150" y="260" width="20" height="10" fill="#a47a4f"/>
<rect x="170" y="260" width="10" height="10" fill="#7d5a37"/>
<rect x="180" y="260" width="20" height="10" fill="#a47a4f"/>
<rect x="200" y="260" width="10" height="10" fill="#7d5a37"/>
<rect x="210" y="260" width="20" height="10" fill="#a47a4f"/>
<rect x="230" y="260" width="10" height="10" fill="#7d5a37"/>
<rect x="240" y="260" width="20" height="10" fill="#a47a4f"/>
<rect x="260" y="260" width="10" height="10" fill="#7d5a37"/>
<rect x="270" y="260" width="20" height="10" fill="#a47a4f"/>
<rect x="290" y="260" width="10" height="10" fill="#7d5a37"/>
<rect x="300" y="260" width="20" height="10" fill="#a47a4f"/>
<rect x="320" y="260" width="10" height="10" fill="#7d5a37"/>
<rect x="330" y="260" width="20" height="10" fill="#a47a4f"/>
<rect x="350" y="260" width="10" height="10" fill="#7d5a37"/>
<rect x="360" y="260" width="20" height="10" fill="#a47a4f"/>
<rect x="380" y="260" width="10" height="10" fill="#7d5a37"/>
<rect x="390" y="260" width="20" height="10" fill="#a47a4f"/>
<rect x="410" y="260" width="10" height="10" fill="#7d5a37"/>
<rect x="420" y="260" width="20" height="10" fill="#a47a4f"/>
<rect x="440" y="260" width="10" height="10" fill="#7d5a37"/>
<rect x="450" y="260" width="10" height="10" fill="#1c1c2c"/>
<rect x="460" y="260" width="180" height="10" fill="#2d2410"/>
<rect x="640" y="260" width="60" height="10" fill="#22c55e"/>
<rect x="700" y="260" width="100" height="10" fill="#2d2410"/>
<rect x="0" y="270" width="140" height="10" fill="#2d2410"/>
<rect x="140" y="270" width="10" height="10" fill="#7d5a37"/>
<rect x="150" y="270" width="20" height="10" fill="#a47a4f"/>
<rect x="170" y="270" width="10" height="10" fill="#7d5a37"/>
<rect x="180" y="270" width="20" height="10" fill="#a47a4f"/>
<rect x="200" y="270" width="10" height="10" fill="#7d5a37"/>
<rect x="210" y="270" width="20" height="10" fill="#a47a4f"/>
<rect x="230" y="270" width="10" height="10" fill="#7d5a37"/>
<rect x="240" y="270" width="20" height="10" fill="#a47a4f"/>
<rect x="260" y="270" width="10" height="10" fill="#7d5a37"/>
<rect x="270" y="270" width="20" height="10" fill="#a47a4f"/>
<rect x="290" y="270" width="10" height="10" fill="#7d5a37"/>
<rect x="300" y="270" width="20" height="10" fill="#a47a4f"/>
<rect x="320" y="270" width="10" height="10" fill="#7d5a37"/>
<rect x="330" y="270" width="20" height="10" fill="#a47a4f"/>
<rect x="350" y="270" width="10" height="10" fill="#7d5a37"/>
<rect x="360" y="270" width="20" height="10" fill="#a47a4f"/>
<rect x="380" y="270" width="10" height="10" fill="#7d5a37"/>
<rect x="390" y="270" width="20" height="10" fill="#a47a4f"/>
<rect x="410" y="270" width="10" height="10" fill="#7d5a37"/>
<rect x="420" y="270" width="20" height="10" fill="#a47a4f"/>
<rect x="440" y="270" width="10" height="10" fill="#7d5a37"/>
<rect x="450" y="270" width="10" height="10" fill="#1c1c2c"/>
<rect x="460" y="270" width="180" height="10" fill="#2d2410"/>
<rect x="640" y="270" width="60" height="10" fill="#22c55e"/>
<rect x="700" y="270" width="100" height="10" fill="#2d2410"/>
<rect x="0" y="280" width="140" height="10" fill="#2d2410"/>
<rect x="140" y="280" width="320" height="10" fill="#8b6843"/>
<rect x="460" y="280" width="340" height="10" fill="#2d2410"/>
<rect x="0" y="290" width="140" height="10" fill="#2d2410"/>
<rect x="140" y="290" width="10" height="10" fill="#7d5a37"/>
<rect x="150" y="290" width="20" height="10" fill="#a47a4f"/>
<rect x="170" y="290" width="10" height="10" fill="#7d5a37"/>
<rect x="180" y="290" width="20" height="10" fill="#a47a4f"/>
<rect x="200" y="290" width="10" height="10" fill="#7d5a37"/>
<rect x="210" y="290" width="20" height="10" fill="#a47a4f"/>
<rect x="230" y="290" width="10" height="10" fill="#7d5a37"/>
<rect x="240" y="290" width="20" height="10" fill="#a47a4f"/>
<rect x="260" y="290" width="10" height="10" fill="#7d5a37"/>
<rect x="270" y="290" width="20" height="10" fill="#a47a4f"/>
<rect x="290" y="290" width="10" height="10" fill="#7d5a37"/>
<rect x="300" y="290" width="20" height="10" fill="#a47a4f"/>
<rect x="320" y="290" width="10" height="10" fill="#7d5a37"/>
<rect x="330" y="290" width="20" height="10" fill="#a47a4f"/>
<rect x="350" y="290" width="10" height="10" fill="#7d5a37"/>
<rect x="360" y="290" width="20" height="10" fill="#a47a4f"/>
<rect x="380" y="290" width="10" height="10" fill="#7d5a37"/>
<rect x="390" y="290" width="20" height="10" fill="#a47a4f"/>
<rect x="410" y="290" width="10" height="10" fill="#7d5a37"/>
<rect x="420" y="290" width="20" height="10" fill="#a47a4f"/>
<rect x="440" y="290" width="10" height="10" fill="#7d5a37"/>
<rect x="450" y="290" width="10" height="10" fill="#1c1c2c"/>
<rect x="460" y="290" width="340" height="10" fill="#2d2410"/>
<rect x="0" y="300" width="140" height="10" fill="#2d2410"/>
<rect x="140" y="300" width="10" height="10" fill="#7d5a37"/>
<rect x="150" y="300" width="20" height="10" fill="#a47a4f"/>
<rect x="170" y="300" width="10" height="10" fill="#7d5a37"/>
<rect x="180" y="300" width="20" height="10" fill="#a47a4f"/>
<rect x="200" y="300" width="10" height="10" fill="#7d5a37"/>
<rect x="210" y="300" width="20" height="10" fill="#a47a4f"/>
<rect x="230" y="300" width="10" height="10" fill="#7d5a37"/>
<rect x="240" y="300" width="20" height="10" fill="#a47a4f"/>
<rect x="260" y="300" width="10" height="10" fill="#7d5a37"/>
<rect x="270" y="300" width="20" height="10" fill="#a47a4f"/>
<rect x="290" y="300" width="10" height="10" fill="#7d5a37"/>
<rect x="300" y="300" width="20" height="10" fill="#a47a4f"/>
<rect x="320" y="300" width="10" height="10" fill="#7d5a37"/>
<rect x="330" y="300" width="20" height="10" fill="#a47a4f"/>
<rect x="350" y="300" width="10" height="10" fill="#7d5a37"/>
<rect x="360" y="300" width="20" height="10" fill="#a47a4f"/>
<rect x="380" y="300" width="10" height="10" fill="#7d5a37"/>
<rect x="390" y="300" width="20" height="10" fill="#a47a4f"/>
<rect x="410" y="300" width="10" height="10" fill="#7d5a37"/>
<rect x="420" y="300" width="20" height="10" fill="#a47a4f"/>
<rect x="440" y="300" width="10" height="10" fill="#7d5a37"/>
<rect x="450" y="300" width="10" height="10" fill="#1c1c2c"/>
<rect x="460" y="300" width="340" height="10" fill="#2d2410"/>
<rect x="0" y="310" width="140" height="10" fill="#362b11"/>
<rect x="140" y="310" width="320" height="10" fill="#8b6843"/>
<rect x="460" y="310" width="340" height="10" fill="#362b11"/>
<rect x="0" y="320" width="140" height="10" fill="#392d11"/>
<rect x="140" y="320" width="10" height="10" fill="#7d5a37"/>
<rect x="150" y="320" width="20" height="10" fill="#a47a4f"/>
<rect x="170" y="320" width="10" height="10" fill="#7d5a37"/>
<rect x="180" y="320" width="20" height="10" fill="#a47a4f"/>
<rect x="200" y="320" width="10" height="10" fill="#7d5a37"/>
<rect x="210" y="320" width="20" height="10" fill="#a47a4f"/>
<rect x="230" y="320" width="10" height="10" fill="#7d5a37"/>
<rect x="240" y="320" width="20" height="10" fill="#a47a4f"/>
<rect x="260" y="320" width="10" height="10" fill="#7d5a37"/>
<rect x="270" y="320" width="20" height="10" fill="#a47a4f"/>
<rect x="290" y="320" width="10" height="10" fill="#7d5a37"/>
<rect x="300" y="320" width="20" height="10" fill="#a47a4f"/>
<rect x="320" y="320" width="10" height="10" fill="#7d5a37"/>
<rect x="330" y="320" width="20" height="10" fill="#a47a4f"/>
<rect x="350" y="320" width="10" height="10" fill="#7d5a37"/>
<rect x="360" y="320" width="20" height="10" fill="#a47a4f"/>
<rect x="380" y="320" width="10" height="10" fill="#7d5a37"/>
<rect x="390" y="320" width="20" height="10" fill="#a47a4f"/>
<rect x="410" y="320" width="10" height="10" fill="#7d5a37"/>
<rect x="420" y="320" width="20" height="10" fill="#a47a4f"/>
<rect x="440" y="320" width="10" height="10" fill="#7d5a37"/>
<rect x="450" y="320" width="10" height="10" fill="#1c1c2c"/>
<rect x="460" y="320" width="340" height="10" fill="#392d11"/>
<rect x="0" y="330" width="140" height="10" fill="#3b2f11"/>
<rect x="140" y="330" width="10" height="10" fill="#7d5a37"/>
<rect x="150" y="330" width="20" height="10" fill="#a47a4f"/>
<rect x="170" y="330" width="10" height="10" fill="#7d5a37"/>
<rect x="180" y="330" width="20" height="10" fill="#a47a4f"/>
<rect x="200" y="330" width="10" height="10" fill="#7d5a37"/>
<rect x="210" y="330" width="20" height="10" fill="#a47a4f"/>
<rect x="230" y="330" width="10" height="10" fill="#7d5a37"/>
<rect x="240" y="330" width="20" height="10" fill="#a47a4f"/>
<rect x="260" y="330" width="10" height="10" fill="#7d5a37"/>
<rect x="270" y="330" width="20" height="10" fill="#a47a4f"/>
<rect x="290" y="330" width="10" height="10" fill="#7d5a37"/>
<rect x="300" y="330" width="20" height="10" fill="#a47a4f"/>
<rect x="320" y="330" width="10" height="10" fill="#7d5a37"/>
<rect x="330" y="330" width="20" height="10" fill="#a47a4f"/>
<rect x="350" y="330" width="10" height="10" fill="#7d5a37"/>
<rect x="360" y="330" width="20" height="10" fill="#a47a4f"/>
<rect x="380" y="330" width="10" height="10" fill="#7d5a37"/>
<rect x="390" y="330" width="20" height="10" fill="#a47a4f"/>
<rect x="410" y="330" width="10" height="10" fill="#7d5a37"/>
<rect x="420" y="330" width="20" height="10" fill="#a47a4f"/>
<rect x="440" y="330" width="10" height="10" fill="#7d5a37"/>
<rect x="450" y="330" width="10" height="10" fill="#1c1c2c"/>
<rect x="460" y="330" width="340" height="10" fill="#3b2f11"/>
<rect x="0" y="340" width="140" height="10" fill="#3e3112"/>
<rect x="140" y="340" width="320" height="10" fill="#8b6843"/>
<rect x="460" y="340" width="340" height="10" fill="#3e3112"/>
<rect x="0" y="350" width="140" height="10" fill="#413312"/>
<rect x="140" y="350" width="10" height="10" fill="#7d5a37"/>
<rect x="150" y="350" width="20" height="10" fill="#1c1c2c"/>
<rect x="170" y="350" width="10" height="10" fill="#7d5a37"/>
<rect x="180" y="350" width="20" height="10" fill="#1c1c2c"/>
<rect x="200" y="350" width="10" height="10" fill="#7d5a37"/>
<rect x="210" y="350" width="20" height="10" fill="#1c1c2c"/>
<rect x="230" y="350" width="10" height="10" fill="#7d5a37"/>
<rect x="240" y="350" width="20" height="10" fill="#1c1c2c"/>
<rect x="260" y="350" width="10" height="10" fill="#7d5a37"/>
<rect x="270" y="350" width="20" height="10" fill="#1c1c2c"/>
<rect x="290" y="350" width="10" height="10" fill="#7d5a37"/>
<rect x="300" y="350" width="20" height="10" fill="#1c1c2c"/>
<rect x="320" y="350" width="10" height="10" fill="#7d5a37"/>
<rect x="330" y="350" width="20" height="10" fill="#1c1c2c"/>
<rect x="350" y="350" width="10" height="10" fill="#7d5a37"/>
<rect x="360" y="350" width="20" height="10" fill="#1c1c2c"/>
<rect x="380" y="350" width="10" height="10" fill="#7d5a37"/>
<rect x="390" y="350" width="20" height="10" fill="#1c1c2c"/>
<rect x="410" y="350" width="10" height="10" fill="#7d5a37"/>
<rect x="420" y="350" width="20" height="10" fill="#1c1c2c"/>
<rect x="440" y="350" width="10" height="10" fill="#7d5a37"/>
<rect x="450" y="350" width="10" height="10" fill="#1c1c2c"/>
<rect x="460" y="350" width="340" height="10" fill="#413312"/>
<rect x="0" y="360" width="140" height="10" fill="#443512"/>
<rect x="140" y="360" width="320" height="10" fill="#1c1c2c"/>
<rect x="460" y="360" width="340" height="10" fill="#443512"/>
<rect x="0" y="370" width="140" height="10" fill="#463712"/>
<rect x="140" y="370" width="320" height="10" fill="#1c1c2c"/>
<rect x="460" y="370" width="340" height="10" fill="#463712"/>
<rect x="0" y="380" width="800" height="10" fill="#735537"/>
<rect x="0" y="390" width="800" height="10" fill="#423120"/>
<rect x="0" y="400" width="800" height="10" fill="#423120"/>
<rect x="0" y="410" width="800" height="10" fill="#423120"/>
<rect x="0" y="420" width="800" height="10" fill="#423120"/>
<rect x="0" y="430" width="800" height="10" fill="#423120"/>
<rect x="0" y="440" width="800" height="10" fill="#423120"/>
</svg>
