<?xml version="1.0" encoding="UTF-8"?>
<svg xmlns="http://www.w3.org/2000/svg" viewBox="0 0 800 450" shape-rendering="crispEdges" preserveAspectRatio="xMidYMid slice">
<rect x="0" y="0" width="800" height="10" fill="#112032"/>
<rect x="0" y="10" width="800" height="10" fill="#112032"/>
<rect x="0" y="20" width="800" height="10" fill="#112032"/>
<rect x="0" y="30" width="800" height="10" fill="#112032"/>
<rect x="0" y="40" width="800" height="10" fill="#112032"/>
<rect x="0" y="50" width="800" height="10" fill="#112032"/>
<rect x="0" y="60" width="800" height="10" fill="#112032"/>
<rect x="0" y="70" width="800" height="10" fill="#112032"/>
<rect x="0" y="80" width="800" height="10" fill="#112032"/>
<rect x="0" y="90" width="800" height="10" fill="#112032"/>
<rect x="0" y="100" width="800" height="10" fill="#112032"/>
<rect x="0" y="110" width="800" height="10" fill="#112032"/>
<rect x="0" y="120" width="800" height="10" fill="#112032"/>
<rect x="0" y="130" width="800" height="10" fill="#112032"/>
<rect x="0" y="140" width="400" height="10" fill="#112032"/>
<rect x="400" y="140" width="10" height="10" fill="#3678ad"/>
<rect x="410" y="140" width="390" height="10" fill="#112032"/>
<rect x="0" y="150" width="400" height="10" fill="#112032"/>
<rect x="400" y="150" width="30" height="10" fill="#3678ad"/>
<rect x="430" y="150" width="370" height="10" fill="#112032"/>
<rect x="0" y="160" width="300" height="10" fill="#112032"/>
<rect x="300" y="160" width="20" height="10" fill="#82c4f9"/>
<rect x="320" y="160" width="80" height="10" fill="#112032"/>
<rect x="400" y="160" width="10" height="10" fill="#3678ad"/>
<rect x="410" y="160" width="10" height="10" fill="#ffffff"/>
<rect x="420" y="160" width="10" height="10" fill="#9ec3e8"/>
<rect x="430" y="160" width="20" height="10" fill="#3678ad"/>
<rect x="450" y="160" width="350" height="10" fill="#112032"/>
<rect x="0" y="170" width="400" height="10" fill="#112032"/>
<rect x="400" y="170" width="10" height="10" fill="#3678ad"/>
<rect x="410" y="170" width="20" height="10" fill="#ffffff"/>
<rect x="430" y="170" width="10" height="10" fill="#9ec3e8"/>
<rect x="440" y="170" width="10" height="10" fill="#ffffff"/>
<rect x="450" y="170" width="10" height="10" fill="#3678ad"/>
<rect x="460" y="170" width="340" height="10" fill="#112032"/>
<rect x="0" y="180" width="260" height="10" fill="#112032"/>
<rect x="260" y="180" width="20" height="10" fill="#82c4f9"/>
<rect x="280" y="180" width="120" height="10" fill="#112032"/>
<rect x="400" y="180" width="10" height="10" fill="#3678ad"/>
<rect x="410" y="180" width="20" height="10" fill="#ffffff"/>
<rect x="430" y="180" width="10" height="10" fill="#9ec3e8"/>
<rect x="440" y="180" width="20" height="10" fill="#ffffff"/>
<rect x="460" y="180" width="20" height="10" fill="#3678ad"/>
<rect x="480" y="180" width="320" height="10" fill="#112032"/>
<rect x="0" y="190" width="400" height="10" fill="#112032"/>
<rect x="400" y="190" width="10" height="10" fill="#3678ad"/>
<rect x="410" y="190" width="30" height="10" fill="#ffffff"/>
<rect x="440" y="190" width="10" height="10" fill="#9ec3e8"/>
<rect x="450" y="190" width="30" height="10" fill="#ffffff"/>
<rect x="480" y="190" width="20" height="10" fill="#3678ad"/>
<rect x="500" y="190" width="300" height="10" fill="#112032"/>
<rect x="0" y="200" width="220" height="10" fill="#112032"/>
<rect x="220" y="200" width="20" height="10" fill="#82c4f9"/>
<rect x="240" y="200" width="160" height="10" fill="#112032"/>
<rect x="400" y="200" width="10" height="10" fill="#3678ad"/>
<rect x="410" y="200" width="40" height="10" fill="#ffffff"/>
<rect x="450" y="200" width="10" height="10" fill="#9ec3e8"/>
<rect x="460" y="200" width="40" height="10" fill="#ffffff"/>
<rect x="500" y="200" width="10" height="10" fill="#3678ad"/>
<rect x="510" y="200" width="290" height="10" fill="#112032"/>
<rect x="0" y="210" width="400" height="10" fill="#112032"/>
<rect x="400" y="210" width="10" height="10" fill="#3678ad"/>
<rect x="410" y="210" width="50" height="10" fill="#ffffff"/>
<rect x="460" y="210" width="10" height="10" fill="#9ec3e8"/>
<rect x="470" y="210" width="40" height="10" fill="#ffffff"/>
<rect x="510" y="210" width="20" height="10" fill="#3678ad"/>
<rect x="530" y="210" width="270" height="10" fill="#112032"/>
<rect x="0" y="220" width="180" height="10" fill="#112032"/>
<rect x="180" y="220" width="20" height="10" fill="#82c4f9"/>
<rect x="200" y="220" width="200" height="10" fill="#112032"/>
<rect x="400" y="220" width="10" height="10" fill="#3678ad"/>
<rect x="410" y="220" width="20" height="10" fill="#9ec3e8"/>
<rect x="430" y="220" width="40" height="10" fill="#ffffff"/>
<rect x="470" y="220" width="10" height="10" fill="#9ec3e8"/>
<rect x="480" y="220" width="50" height="10" fill="#ffffff"/>
<rect x="530" y="220" width="20" height="10" fill="#3678ad"/>
<rect x="550" y="220" width="250" height="10" fill="#112032"/>
<rect x="0" y="230" width="400" height="10" fill="#112032"/>
<rect x="400" y="230" width="10" height="10" fill="#3678ad"/>
<rect x="410" y="230" width="20" height="10" fill="#f3eee0"/>
<rect x="430" y="230" width="60" height="10" fill="#9ec3e8"/>
<rect x="490" y="230" width="60" height="10" fill="#ffffff"/>
<rect x="550" y="230" width="10" height="10" fill="#3678ad"/>
<rect x="560" y="230" width="240" height="10" fill="#112032"/>
<rect x="0" y="240" width="140" height="10" fill="#112032"/>
<rect x="140" y="240" width="20" height="10" fill="#82c4f9"/>
<rect x="160" y="240" width="240" height="10" fill="#112032"/>
<rect x="400" y="240" width="10" height="10" fill="#3678ad"/>
<rect x="410" y="240" width="70" height="10" fill="#f3eee0"/>
<rect x="480" y="240" width="50" height="10" fill="#9ec3e8"/>
<rect x="530" y="240" width="30" height="10" fill="#ffffff"/>
<rect x="560" y="240" width="20" height="10" fill="#3678ad"/>
<rect x="580" y="240" width="220" height="10" fill="#112032"/>
<rect x="0" y="250" width="400" height="10" fill="#112032"/>
<rect x="400" y="250" width="10" height="10" fill="#3678ad"/>
<rect x="410" y="250" width="80" height="10" fill="#f3eee0"/>
<rect x="490" y="250" width="10" height="10" fill="#9ec3e8"/>
<rect x="500" y="250" width="30" height="10" fill="#f3eee0"/>
<rect x="530" y="250" width="50" height="10" fill="#9ec3e8"/>
<rect x="580" y="250" width="20" height="10" fill="#3678ad"/>
<rect x="600" y="250" width="200" height="10" fill="#112032"/>
<rect x="0" y="260" width="100" height="10" fill="#112032"/>
<rect x="100" y="260" width="20" height="10" fill="#82c4f9"/>
<rect x="120" y="260" width="280" height="10" fill="#112032"/>
<rect x="400" y="260" width="210" height="10" fill="#3678ad"/>
<rect x="610" y="260" width="190" height="10" fill="#112032"/>
<rect x="0" y="270" width="530" height="10" fill="#112032"/>
<rect x="530" y="270" width="60" height="10" fill="#9ec3e8"/>
<rect x="590" y="270" width="210" height="10" fill="#112032"/>
<rect x="0" y="280" width="60" height="10" fill="#112032"/>
<rect x="60" y="280" width="20" height="10" fill="#82c4f9"/>
<rect x="80" y="280" width="480" height="10" fill="#112032"/>
<rect x="560" y="280" width="10" height="10" fill="#9ec3e8"/>
<rect x="570" y="280" width="230" height="10" fill="#112032"/>
<rect x="0" y="290" width="800" height="10" fill="#112032"/>
<rect x="0" y="300" width="800" height="10" fill="#112032"/>
<rect x="0" y="310" width="800" height="10" fill="#14263b"/>
<rect x="0" y="320" width="670" height="10" fill="#14283d"/>
<rect x="670" y="320" width="10" height="10" fill="#ffffff"/>
<rect x="680" y="320" width="120" height="10" fill="#14283d"/>
<rect x="0" y="330" width="650" height="10" fill="#152a40"/>
<rect x="650" y="330" width="50" height="10" fill="#ffffff"/>
<rect x="700" y="330" width="100" height="10" fill="#152a40"/>
<rect x="0" y="340" width="640" height="10" fill="#162c42"/>
<rect x="640" y="340" width="60" height="10" fill="#ffffff"/>
<rect x="700" y="340" width="100" height="10" fill="#162c42"/>
<rect x="0" y="350" width="180" height="10" fill="#172d45"/>
<rect x="180" y="350" width="140" height="10" fill="#3678ad"/>
<rect x="320" y="350" width="310" height="10" fill="#172d45"/>
<rect x="630" y="350" width="80" height="10" fill="#ffffff"/>
<rect x="710" y="350" width="90" height="10" fill="#172d45"/>
<rect x="0" y="360" width="180" height="10" fill="#182f48"/>
<rect x="180" y="360" width="10" height="10" fill="#3678ad"/>
<rect x="190" y="360" width="10" height="10" fill="#f3eee0"/>
<rect x="200" y="360" width="100" height="10" fill="#cfcabe"/>
<rect x="300" y="360" width="10" height="10" fill="#f3eee0"/>
<rect x="310" y="360" width="10" height="10" fill="#3678ad"/>
<rect x="320" y="360" width="300" height="10" fill="#182f48"/>
<rect x="620" y="360" width="100" height="10" fill="#ffffff"/>
<rect x="720" y="360" width="80" height="10" fill="#182f48"/>
<rect x="0" y="370" width="180" height="10" fill="#18314a"/>
<rect x="180" y="370" width="10" height="10" fill="#3678ad"/>
<rect x="190" y="370" width="10" height="10" fill="#f3eee0"/>
<rect x="200" y="370" width="100" height="10" fill="#cfcabe"/>
<rect x="300" y="370" width="10" height="10" fill="#f3eee0"/>
<rect x="310" y="370" width="10" height="10" fill="#3678ad"/>
<rect x="320" y="370" width="310" height="10" fill="#18314a"/>
<rect x="630" y="370" width="100" height="10" fill="#ffffff"/>
<rect x="730" y="370" width="70" height="10" fill="#18314a"/>
<rect x="0" y="380" width="180" height="10" fill="#19334d"/>
<rect x="180" y="380" width="10" height="10" fill="#3678ad"/>
<rect x="190" y="380" width="10" height="10" fill="#f3eee0"/>
<rect x="200" y="380" width="100" height="10" fill="#cfcabe"/>
<rect x="300" y="380" width="10" height="10" fill="#f3eee0"/>
<rect x="310" y="380" width="10" height="10" fill="#3678ad"/>
<rect x="320" y="380" width="320" height="10" fill="#19334d"/>
<rect x="640" y="380" width="80" height="10" fill="#ffffff"/>
<rect x="720" y="380" width="80" height="10" fill="#19334d"/>
<rect x="0" y="390" width="180" height="10" fill="#1a3550"/>
<rect x="180" y="390" width="10" height="10" fill="#3678ad"/>
<rect x="190" y="390" width="10" height="10" fill="#f3eee0"/>
<rect x="200" y="390" width="100" height="10" fill="#cfcabe"/>
<rect x="300" y="390" width="10" height="10" fill="#f3eee0"/>
<rect x="310" y="390" width="10" height="10" fill="#3678ad"/>
<rect x="320" y="390" width="380" height="10" fill="#1a3550"/>
<rect x="700" y="390" width="10" height="10" fill="#ffffff"/>
<rect x="710" y="390" width="90" height="10" fill="#1a3550"/>
<rect x="0" y="400" width="180" height="10" fill="#1b3752"/>
<rect x="180" y="400" width="140" height="10" fill="#3678ad"/>
<rect x="320" y="400" width="480" height="10" fill="#1b3752"/>
<rect x="0" y="410" width="800" height="10" fill="#1c3955"/>
<rect x="0" y="420" width="800" height="10" fill="#1c3a57"/>
<rect x="0" y="430" width="800" height="10" fill="#1d3c5a"/>
<rect x="0" y="440" width="800" height="10" fill="#1e3e5d"/>
</svg>
