<?xml version="1.0" encoding="UTF-8"?>
<svg xmlns="http://www.w3.org/2000/svg" viewBox="0 0 800 450" shape-rendering="crispEdges" preserveAspectRatio="xMidYMid slice">
<rect x="0" y="0" width="800" height="10" fill="#2e161b"/>
<rect x="0" y="10" width="800" height="10" fill="#2e161b"/>
<rect x="0" y="20" width="800" height="10" fill="#2e161b"/>
<rect x="0" y="30" width="800" height="10" fill="#2e161b"/>
<rect x="0" y="40" width="800" height="10" fill="#2e161b"/>
<rect x="0" y="50" width="540" height="10" fill="#2e161b"/>
<rect x="540" y="50" width="10" height="10" fill="#ffbcbc"/>
<rect x="550" y="50" width="250" height="10" fill="#2e161b"/>
<rect x="0" y="60" width="530" height="10" fill="#2e161b"/>
<rect x="530" y="60" width="30" height="10" fill="#ffbcbc"/>
<rect x="560" y="60" width="240" height="10" fill="#2e161b"/>
<rect x="0" y="70" width="540" height="10" fill="#2e161b"/>
<rect x="540" y="70" width="10" height="10" fill="#ffbcbc"/>
<rect x="550" y="70" width="50" height="10" fill="#2e161b"/>
<rect x="600" y="70" width="10" height="10" fill="#ffffff"/>
<rect x="610" y="70" width="30" height="10" fill="#2e161b"/>
<rect x="640" y="70" width="10" height="10" fill="#ffffff"/>
<rect x="650" y="70" width="150" height="10" fill="#2e161b"/>
<rect x="0" y="80" width="170" height="10" fill="#2e161b"/>
<rect x="170" y="80" width="10" height="10" fill="#ffbcbc"/>
<rect x="180" y="80" width="50" height="10" fill="#2e161b"/>
<rect x="230" y="80" width="10" height="10" fill="#ffbcbc"/>
<rect x="240" y="80" width="60" height="10" fill="#2e161b"/>
<rect x="300" y="80" width="10" height="10" fill="#ffbcbc"/>
<rect x="310" y="80" width="270" height="10" fill="#2e161b"/>
<rect x="580" y="80" width="90" height="10" fill="#ffffff"/>
<rect x="670" y="80" width="130" height="10" fill="#2e161b"/>
<rect x="0" y="90" width="150" height="10" fill="#2e161b"/>
<rect x="150" y="90" width="10" height="10" fill="#ffbcbc"/>
<rect x="160" y="90" width="10" height="10" fill="#ffffff"/>
<rect x="170" y="90" width="30" height="10" fill="#ffbcbc"/>
<rect x="200" y="90" width="10" height="10" fill="#2e161b"/>
<rect x="210" y="90" width="50" height="10" fill="#ffbcbc"/>
<rect x="260" y="90" width="30" height="10" fill="#2e161b"/>
<rect x="290" y="90" width="30" height="10" fill="#ffbcbc"/>
<rect x="320" y="90" width="260" height="10" fill="#2e161b"/>
<rect x="580" y="90" width="90" height="10" fill="#ffffff"/>
<rect x="670" y="90" width="130" height="10" fill="#2e161b"/>
<rect x="0" y="100" width="150" height="10" fill="#2e161b"/>
<rect x="150" y="100" width="30" height="10" fill="#ffffff"/>
<rect x="180" y="100" width="20" height="10" fill="#ffbcbc"/>
<rect x="200" y="100" width="10" height="10" fill="#2e161b"/>
<rect x="210" y="100" width="50" height="10" fill="#ffbcbc"/>
<rect x="260" y="100" width="40" height="10" fill="#2e161b"/>
<rect x="300" y="100" width="10" height="10" fill="#ffbcbc"/>
<rect x="310" y="100" width="260" height="10" fill="#2e161b"/>
<rect x="570" y="100" width="110" height="10" fill="#ffffff"/>
<rect x="680" y="100" width="120" height="10" fill="#2e161b"/>
<rect x="0" y="110" width="140" height="10" fill="#2e161b"/>
<rect x="140" y="110" width="20" height="10" fill="#ffbcbc"/>
<rect x="160" y="110" width="10" height="10" fill="#ffffff"/>
<rect x="170" y="110" width="100" height="10" fill="#ffbcbc"/>
<rect x="270" y="110" width="310" height="10" fill="#2e161b"/>
<rect x="580" y="110" width="90" height="10" fill="#ffffff"/>
<rect x="670" y="110" width="130" height="10" fill="#2e161b"/>
<rect x="0" y="120" width="150" height="10" fill="#2e161b"/>
<rect x="150" y="120" width="50" height="10" fill="#ffbcbc"/>
<rect x="200" y="120" width="10" height="10" fill="#2e161b"/>
<rect x="210" y="120" width="50" height="10" fill="#ffbcbc"/>
<rect x="260" y="120" width="310" height="10" fill="#2e161b"/>
<rect x="570" y="120" width="110" height="10" fill="#ffffff"/>
<rect x="680" y="120" width="120" height="10" fill="#2e161b"/>
<rect x="0" y="130" width="150" height="10" fill="#2e161b"/>
<rect x="150" y="130" width="50" height="10" fill="#ffbcbc"/>
<rect x="200" y="130" width="10" height="10" fill="#2e161b"/>
<rect x="210" y="130" width="50" height="10" fill="#ffbcbc"/>
<rect x="260" y="130" width="90" height="10" fill="#2e161b"/>
<rect x="350" y="130" width="10" height="10" fill="#ff6b6b"/>
<rect x="360" y="130" width="90" height="10" fill="#2e161b"/>
<rect x="450" y="130" width="10" height="10" fill="#ff6b6b"/>
<rect x="460" y="130" width="120" height="10" fill="#2e161b"/>
<rect x="580" y="130" width="90" height="10" fill="#ffffff"/>
<rect x="670" y="130" width="130" height="10" fill="#2e161b"/>
<rect x="0" y="140" width="140" height="10" fill="#2e161b"/>
<rect x="140" y="140" width="130" height="10" fill="#ffbcbc"/>
<rect x="270" y="140" width="50" height="10" fill="#2e161b"/>
<rect x="320" y="140" width="70" height="10" fill="#ff6b6b"/>
<rect x="390" y="140" width="30" height="10" fill="#2e161b"/>
<rect x="420" y="140" width="70" height="10" fill="#ff6b6b"/>
<rect x="490" y="140" width="100" height="10" fill="#2e161b"/>
<rect x="590" y="140" width="60" height="10" fill="#cccccc"/>
<rect x="650" y="140" width="10" height="10" fill="#ffffff"/>
<rect x="660" y="140" width="140" height="10" fill="#2e161b"/>
<rect x="0" y="150" width="150" height="10" fill="#2e161b"/>
<rect x="150" y="150" width="110" height="10" fill="#ffbcbc"/>
<rect x="260" y="150" width="50" height="10" fill="#2e161b"/>
<rect x="310" y="150" width="20" height="10" fill="#ff6b6b"/>
<rect x="330" y="150" width="10" height="10" fill="#ffbcbc"/>
<rect x="340" y="150" width="60" height="10" fill="#ff6b6b"/>
<rect x="400" y="150" width="10" height="10" fill="#2e161b"/>
<rect x="410" y="150" width="90" height="10" fill="#ff6b6b"/>
<rect x="500" y="150" width="100" height="10" fill="#2e161b"/>
<rect x="600" y="150" width="40" height="10" fill="#cccccc"/>
<rect x="640" y="150" width="10" height="10" fill="#ffffff"/>
<rect x="650" y="150" width="150" height="10" fill="#2e161b"/>
<rect x="0" y="160" width="160" height="10" fill="#2e161b"/>
<rect x="160" y="160" width="10" height="10" fill="#ffbcbc"/>
<rect x="170" y="160" width="60" height="10" fill="#b38484"/>
<rect x="230" y="160" width="20" height="10" fill="#ffbcbc"/>
<rect x="250" y="160" width="50" height="10" fill="#2e161b"/>
<rect x="300" y="160" width="20" height="10" fill="#ff6b6b"/>
<rect x="320" y="160" width="30" height="10" fill="#ffbcbc"/>
<rect x="350" y="160" width="160" height="10" fill="#ff6b6b"/>
<rect x="510" y="160" width="100" height="10" fill="#2e161b"/>
<rect x="610" y="160" width="20" height="10" fill="#cccccc"/>
<rect x="630" y="160" width="10" height="10" fill="#ffffff"/>
<rect x="640" y="160" width="160" height="10" fill="#2e161b"/>
<rect x="0" y="170" width="140" height="10" fill="#2e161b"/>
<rect x="140" y="170" width="10" height="10" fill="#ffbcbc"/>
<rect x="150" y="170" width="20" height="10" fill="#2e161b"/>
<rect x="170" y="170" width="10" height="10" fill="#ffbcbc"/>
<rect x="180" y="170" width="40" height="10" fill="#b38484"/>
<rect x="220" y="170" width="20" height="10" fill="#ffbcbc"/>
<rect x="240" y="170" width="60" height="10" fill="#2e161b"/>
<rect x="300" y="170" width="10" height="10" fill="#ff6b6b"/>
<rect x="310" y="170" width="50" height="10" fill="#ffbcbc"/>
<rect x="360" y="170" width="150" height="10" fill="#ff6b6b"/>
<rect x="510" y="170" width="110" height="10" fill="#2e161b"/>
<rect x="620" y="170" width="10" height="10" fill="#ffffff"/>
<rect x="630" y="170" width="170" height="10" fill="#2e161b"/>
<rect x="0" y="180" width="130" height="10" fill="#2e161b"/>
<rect x="130" y="180" width="30" height="10" fill="#ffbcbc"/>
<rect x="160" y="180" width="20" height="10" fill="#2e161b"/>
<rect x="180" y="180" width="10" height="10" fill="#ffbcbc"/>
<rect x="190" y="180" width="20" height="10" fill="#b38484"/>
<rect x="210" y="180" width="20" height="10" fill="#ffbcbc"/>
<rect x="230" y="180" width="70" height="10" fill="#2e161b"/>
<rect x="300" y="180" width="20" height="10" fill="#ff6b6b"/>
<rect x="320" y="180" width="30" height="10" fill="#ffbcbc"/>
<rect x="350" y="180" width="160" height="10" fill="#ff6b6b"/>
<rect x="510" y="180" width="290" height="10" fill="#2e161b"/>
<rect x="0" y="190" width="140" height="10" fill="#2e161b"/>
<rect x="140" y="190" width="10" height="10" fill="#ffbcbc"/>
<rect x="150" y="190" width="40" height="10" fill="#2e161b"/>
<rect x="190" y="190" width="30" height="10" fill="#ffbcbc"/>
<rect x="220" y="190" width="70" height="10" fill="#2e161b"/>
<rect x="290" y="190" width="40" height="10" fill="#ff6b6b"/>
<rect x="330" y="190" width="10" height="10" fill="#ffbcbc"/>
<rect x="340" y="190" width="180" height="10" fill="#ff6b6b"/>
<rect x="520" y="190" width="280" height="10" fill="#2e161b"/>
<rect x="0" y="200" width="200" height="10" fill="#2e161b"/>
<rect x="200" y="200" width="10" height="10" fill="#ffbcbc"/>
<rect x="210" y="200" width="90" height="10" fill="#2e161b"/>
<rect x="300" y="200" width="210" height="10" fill="#ff6b6b"/>
<rect x="510" y="200" width="290" height="10" fill="#2e161b"/>
<rect x="0" y="210" width="200" height="10" fill="#2e161b"/>
<rect x="200" y="210" width="10" height="10" fill="#ffbcbc"/>
<rect x="210" y="210" width="90" height="10" fill="#2e161b"/>
<rect x="300" y="210" width="210" height="10" fill="#ff6b6b"/>
<rect x="510" y="210" width="190" height="10" fill="#2e161b"/>
<rect x="700" y="210" width="10" height="10" fill="#ffbcbc"/>
<rect x="710" y="210" width="90" height="10" fill="#2e161b"/>
<rect x="0" y="220" width="300" height="10" fill="#2e161b"/>
<rect x="300" y="220" width="210" height="10" fill="#ff6b6b"/>
<rect x="510" y="220" width="180" height="10" fill="#2e161b"/>
<rect x="690" y="220" width="30" height="10" fill="#ffbcbc"/>
<rect x="720" y="220" width="80" height="10" fill="#2e161b"/>
<rect x="0" y="230" width="310" height="10" fill="#2e161b"/>
<rect x="310" y="230" width="90" height="10" fill="#ff6b6b"/>
<rect x="400" y="230" width="10" height="10" fill="#2e161b"/>
<rect x="410" y="230" width="90" height="10" fill="#ff6b6b"/>
<rect x="500" y="230" width="200" height="10" fill="#2e161b"/>
<rect x="700" y="230" width="10" height="10" fill="#ffbcbc"/>
<rect x="710" y="230" width="90" height="10" fill="#2e161b"/>
<rect x="0" y="240" width="280" height="10" fill="#2e161b"/>
<rect x="280" y="240" width="250" height="10" fill="#ff6b6b"/>
<rect x="530" y="240" width="270" height="10" fill="#2e161b"/>
<rect x="0" y="250" width="290" height="10" fill="#2e161b"/>
<rect x="290" y="250" width="230" height="10" fill="#ff6b6b"/>
<rect x="520" y="250" width="280" height="10" fill="#2e161b"/>
<rect x="0" y="260" width="300" height="10" fill="#2e161b"/>
<rect x="300" y="260" width="210" height="10" fill="#ff6b6b"/>
<rect x="510" y="260" width="290" height="10" fill="#2e161b"/>
<rect x="0" y="270" width="100" height="10" fill="#2e161b"/>
<rect x="100" y="270" width="10" height="10" fill="#ffbcbc"/>
<rect x="110" y="270" width="200" height="10" fill="#2e161b"/>
<rect x="310" y="270" width="190" height="10" fill="#ff6b6b"/>
<rect x="500" y="270" width="300" height="10" fill="#2e161b"/>
<rect x="0" y="280" width="90" height="10" fill="#2e161b"/>
<rect x="90" y="280" width="30" height="10" fill="#ffbcbc"/>
<rect x="120" y="280" width="200" height="10" fill="#2e161b"/>
<rect x="320" y="280" width="20" height="10" fill="#ff6b6b"/>
<rect x="340" y="280" width="120" height="10" fill="#994040"/>
<rect x="460" y="280" width="30" height="10" fill="#ff6b6b"/>
<rect x="490" y="280" width="310" height="10" fill="#2e161b"/>
<rect x="0" y="290" width="100" height="10" fill="#2e161b"/>
<rect x="100" y="290" width="10" height="10" fill="#ffbcbc"/>
<rect x="110" y="290" width="220" height="10" fill="#2e161b"/>
<rect x="330" y="290" width="20" height="10" fill="#ff6b6b"/>
<rect x="350" y="290" width="100" height="10" fill="#994040"/>
<rect x="450" y="290" width="30" height="10" fill="#ff6b6b"/>
<rect x="480" y="290" width="320" height="10" fill="#2e161b"/>
<rect x="0" y="300" width="340" height="10" fill="#2e161b"/>
<rect x="340" y="300" width="20" height="10" fill="#ff6b6b"/>
<rect x="360" y="300" width="80" height="10" fill="#994040"/>
<rect x="440" y="300" width="30" height="10" fill="#ff6b6b"/>
<rect x="470" y="300" width="330" height="10" fill="#2e161b"/>
<rect x="0" y="310" width="350" height="10" fill="#371a1e"/>
<rect x="350" y="310" width="20" height="10" fill="#ff6b6b"/>
<rect x="370" y="310" width="60" height="10" fill="#994040"/>
<rect x="430" y="310" width="30" height="10" fill="#ff6b6b"/>
<rect x="460" y="310" width="260" height="10" fill="#371a1e"/>
<rect x="720" y="310" width="10" height="10" fill="#ffbcbc"/>
<rect x="730" y="310" width="70" height="10" fill="#371a1e"/>
<rect x="0" y="320" width="360" height="10" fill="#3a1b20"/>
<rect x="360" y="320" width="20" height="10" fill="#ff6b6b"/>
<rect x="380" y="320" width="40" height="10" fill="#994040"/>
<rect x="420" y="320" width="30" height="10" fill="#ff6b6b"/>
<rect x="450" y="320" width="260" height="10" fill="#3a1b20"/>
<rect x="710" y="320" width="30" height="10" fill="#ffbcbc"/>
<rect x="740" y="320" width="60" height="10" fill="#3a1b20"/>
<rect x="0" y="330" width="370" height="10" fill="#3d1c21"/>
<rect x="370" y="330" width="20" height="10" fill="#ff6b6b"/>
<rect x="390" y="330" width="20" height="10" fill="#994040"/>
<rect x="410" y="330" width="30" height="10" fill="#ff6b6b"/>
<rect x="440" y="330" width="280" height="10" fill="#3d1c21"/>
<rect x="720" y="330" width="10" height="10" fill="#ffbcbc"/>
<rect x="730" y="330" width="70" height="10" fill="#3d1c21"/>
<rect x="0" y="340" width="380" height="10" fill="#3f1d22"/>
<rect x="380" y="340" width="50" height="10" fill="#ff6b6b"/>
<rect x="430" y="340" width="370" height="10" fill="#3f1d22"/>
<rect x="0" y="350" width="390" height="10" fill="#421e23"/>
<rect x="390" y="350" width="30" height="10" fill="#ff6b6b"/>
<rect x="420" y="350" width="380" height="10" fill="#421e23"/>
<rect x="0" y="360" width="400" height="10" fill="#451f24"/>
<rect x="400" y="360" width="10" height="10" fill="#ff6b6b"/>
<rect x="410" y="360" width="390" height="10" fill="#451f24"/>
<rect x="0" y="370" width="800" height="10" fill="#e66060"/>
<rect x="0" y="380" width="40" height="10" fill="#b34b4b"/>
<rect x="40" y="380" width="40" height="10" fill="#733030"/>
<rect x="80" y="380" width="40" height="10" fill="#b34b4b"/>
<rect x="120" y="380" width="40" height="10" fill="#733030"/>
<rect x="160" y="380" width="40" height="10" fill="#b34b4b"/>
<rect x="200" y="380" width="40" height="10" fill="#733030"/>
<rect x="240" y="380" width="40" height="10" fill="#b34b4b"/>
<rect x="280" y="380" width="40" height="10" fill="#733030"/>
<rect x="320" y="380" width="40" height="10" fill="#b34b4b"/>
<rect x="360" y="380" width="40" height="10" fill="#733030"/>
<rect x="400" y="380" width="40" height="10" fill="#b34b4b"/>
<rect x="440" y="380" width="40" height="10" fill="#733030"/>
<rect x="480" y="380" width="40" height="10" fill="#b34b4b"/>
<rect x="520" y="380" width="40" height="10" fill="#733030"/>
<rect x="560" y="380" width="40" height="10" fill="#b34b4b"/>
<rect x="600" y="380" width="40" height="10" fill="#733030"/>
<rect x="640" y="380" width="40" height="10" fill="#b34b4b"/>
<rect x="680" y="380" width="40" height="10" fill="#733030"/>
<rect x="720" y="380" width="40" height="10" fill="#b34b4b"/>
<rect x="760" y="380" width="40" height="10" fill="#733030"/>
<rect x="0" y="390" width="40" height="10" fill="#b34b4b"/>
<rect x="40" y="390" width="40" height="10" fill="#733030"/>
<rect x="80" y="390" width="40" height="10" fill="#b34b4b"/>
<rect x="120" y="390" width="40" height="10" fill="#733030"/>
<rect x="160" y="390" width="40" height="10" fill="#b34b4b"/>
<rect x="200" y="390" width="40" height="10" fill="#733030"/>
<rect x="240" y="390" width="40" height="10" fill="#b34b4b"/>
<rect x="280" y="390" width="40" height="10" fill="#733030"/>
<rect x="320" y="390" width="40" height="10" fill="#b34b4b"/>
<rect x="360" y="390" width="40" height="10" fill="#733030"/>
<rect x="400" y="390" width="40" height="10" fill="#b34b4b"/>
<rect x="440" y="390" width="40" height="10" fill="#733030"/>
<rect x="480" y="390" width="40" height="10" fill="#b34b4b"/>
<rect x="520" y="390" width="40" height="10" fill="#733030"/>
<rect x="560" y="390" width="40" height="10" fill="#b34b4b"/>
<rect x="600" y="390" width="40" height="10" fill="#733030"/>
<rect x="640" y="390" width="40" height="10" fill="#b34b4b"/>
<rect x="680" y="390" width="40" height="10" fill="#733030"/>
<rect x="720" y="390" width="40" height="10" fill="#b34b4b"/>
<rect x="760" y="390" width="40" height="10" fill="#733030"/>
<rect x="0" y="400" width="40" height="10" fill="#733030"/>
<rect x="40" y="400" width="40" height="10" fill="#b34b4b"/>
<rect x="80" y="400" width="40" height="10" fill="#733030"/>
<rect x="120" y="400" width="40" height="10" fill="#b34b4b"/>
<rect x="160" y="400" width="40" height="10" fill="#733030"/>
<rect x="200" y="400" width="40" height="10" fill="#b34b4b"/>
<rect x="240" y="400" width="40" height="10" fill="#733030"/>
<rect x="280" y="400" width="40" height="10" fill="#b34b4b"/>
<rect x="320" y="400" width="40" height="10" fill="#733030"/>
<rect x="360" y="400" width="40" height="10" fill="#b34b4b"/>
<rect x="400" y="400" width="40" height="10" fill="#733030"/>
<rect x="440" y="400" width="40" height="10" fill="#b34b4b"/>
<rect x="480" y="400" width="40" height="10" fill="#733030"/>
<rect x="520" y="400" width="40" height="10" fill="#b34b4b"/>
<rect x="560" y="400" width="40" height="10" fill="#733030"/>
<rect x="600" y="400" width="40" height="10" fill="#b34b4b"/>
<rect x="640" y="400" width="40" height="10" fill="#733030"/>
<rect x="680" y="400" width="40" height="10" fill="#b34b4b"/>
<rect x="720" y="400" width="40" height="10" fill="#733030"/>
<rect x="760" y="400" width="40" height="10" fill="#b34b4b"/>
<rect x="0" y="410" width="40" height="10" fill="#733030"/>
<rect x="40" y="410" width="40" height="10" fill="#b34b4b"/>
<rect x="80" y="410" width="40" height="10" fill="#733030"/>
<rect x="120" y="410" width="40" height="10" fill="#b34b4b"/>
<rect x="160" y="410" width="40" height="10" fill="#733030"/>
<rect x="200" y="410" width="40" height="10" fill="#b34b4b"/>
<rect x="240" y="410" width="40" height="10" fill="#733030"/>
<rect x="280" y="410" width="40" height="10" fill="#b34b4b"/>
<rect x="320" y="410" width="40" height="10" fill="#733030"/>
<rect x="360" y="410" width="40" height="10" fill="#b34b4b"/>
<rect x="400" y="410" width="40" height="10" fill="#733030"/>
<rect x="440" y="410" width="40" height="10" fill="#b34b4b"/>
<rect x="480" y="410" width="40" height="10" fill="#733030"/>
<rect x="520" y="410" width="40" height="10" fill="#b34b4b"/>
<rect x="560" y="410" width="40" height="10" fill="#733030"/>
<rect x="600" y="410" width="40" height="10" fill="#b34b4b"/>
<rect x="640" y="410" width="40" height="10" fill="#733030"/>
<rect x="680" y="410" width="40" height="10" fill="#b34b4b"/>
<rect x="720" y="410" width="40" height="10" fill="#733030"/>
<rect x="760" y="410" width="40" height="10" fill="#b34b4b"/>
<rect x="0" y="420" width="40" height="10" fill="#b34b4b"/>
<rect x="40" y="420" width="40" height="10" fill="#733030"/>
<rect x="80" y="420" width="40" height="10" fill="#b34b4b"/>
<rect x="120" y="420" width="40" height="10" fill="#733030"/>
<rect x="160" y="420" width="40" height="10" fill="#b34b4b"/>
<rect x="200" y="420" width="40" height="10" fill="#733030"/>
<rect x="240" y="420" width="40" height="10" fill="#b34b4b"/>
<rect x="280" y="420" width="40" height="10" fill="#733030"/>
<rect x="320" y="420" width="40" height="10" fill="#b34b4b"/>
<rect x="360" y="420" width="40" height="10" fill="#733030"/>
<rect x="400" y="420" width="40" height="10" fill="#b34b4b"/>
<rect x="440" y="420" width="40" height="10" fill="#733030"/>
<rect x="480" y="420" width="40" height="10" fill="#b34b4b"/>
<rect x="520" y="420" width="40" height="10" fill="#733030"/>
<rect x="560" y="420" width="40" height="10" fill="#b34b4b"/>
<rect x="600" y="420" width="40" height="10" fill="#733030"/>
<rect x="640" y="420" width="40" height="10" fill="#b34b4b"/>
<rect x="680" y="420" width="40" height="10" fill="#733030"/>
<rect x="720" y="420" width="40" height="10" fill="#b34b4b"/>
<rect x="760" y="420" width="40" height="10" fill="#733030"/>
<rect x="0" y="430" width="40" height="10" fill="#b34b4b"/>
<rect x="40" y="430" width="40" height="10" fill="#733030"/>
<rect x="80" y="430" width="40" height="10" fill="#b34b4b"/>
<rect x="120" y="430" width="40" height="10" fill="#733030"/>
<rect x="160" y="430" width="40" height="10" fill="#b34b4b"/>
<rect x="200" y="430" width="40" height="10" fill="#733030"/>
<rect x="240" y="430" width="40" height="10" fill="#b34b4b"/>
<rect x="280" y="430" width="40" height="10" fill="#733030"/>
<rect x="320" y="430" width="40" height="10" fill="#b34b4b"/>
<rect x="360" y="430" width="40" height="10" fill="#733030"/>
<rect x="400" y="430" width="40" height="10" fill="#b34b4b"/>
<rect x="440" y="430" width="40" height="10" fill="#733030"/>
<rect x="480" y="430" width="40" height="10" fill="#b34b4b"/>
<rect x="520" y="430" width="40" height="10" fill="#733030"/>
<rect x="560" y="430" width="40" height="10" fill="#b34b4b"/>
<rect x="600" y="430" width="40" height="10" fill="#733030"/>
<rect x="640" y="430" width="40" height="10" fill="#b34b4b"/>
<rect x="680" y="430" width="40" height="10" fill="#733030"/>
<rect x="720" y="430" width="40" height="10" fill="#b34b4b"/>
<rect x="760" y="430" width="40" height="10" fill="#733030"/>
<rect x="0" y="440" width="40" height="10" fill="#733030"/>
<rect x="40" y="440" width="40" height="10" fill="#b34b4b"/>
<rect x="80" y="440" width="40" height="10" fill="#733030"/>
<rect x="120" y="440" width="40" height="10" fill="#b34b4b"/>
<rect x="160" y="440" width="40" height="10" fill="#733030"/>
<rect x="200" y="440" width="40" height="10" fill="#b34b4b"/>
<rect x="240" y="440" width="40" height="10" fill="#733030"/>
<rect x="280" y="440" width="40" height="10" fill="#b34b4b"/>
<rect x="320" y="440" width="40" height="10" fill="#733030"/>
<rect x="360" y="440" width="40" height="10" fill="#b34b4b"/>
<rect x="400" y="440" width="40" height="10" fill="#733030"/>
<rect x="440" y="440" width="40" height="10" fill="#b34b4b"/>
<rect x="480" y="440" width="40" height="10" fill="#733030"/>
<rect x="520" y="440" width="40" height="10" fill="#b34b4b"/>
<rect x="560" y="440" width="40" height="10" fill="#733030"/>
<rect x="600" y="440" width="40" height="10" fill="#b34b4b"/>
<rect x="640" y="440" width="40" height="10" fill="#733030"/>
<rect x="680" y="440" width="40" height="10" fill="#b34b4b"/>
<rect x="720" y="440" width="40" height="10" fill="#733030"/>
<rect x="760" y="440" width="40" height="10" fill="#b34b4b"/>
</svg>
