<?xml version="1.0" encoding="UTF-8"?>
<svg xmlns="http://www.w3.org/2000/svg" viewBox="0 0 800 450" shape-rendering="crispEdges" preserveAspectRatio="xMidYMid slice">
<rect x="0" y="0" width="800" height="10" fill="#151531"/>
<rect x="0" y="10" width="800" height="10" fill="#151531"/>
<rect x="0" y="20" width="800" height="10" fill="#151531"/>
<rect x="0" y="30" width="400" height="10" fill="#151531"/>
<rect x="400" y="30" width="10" height="10" fill="#3233NaN"/>
<rect x="410" y="30" width="390" height="10" fill="#151531"/>
<rect x="0" y="40" width="350" height="10" fill="#151531"/>
<rect x="350" y="40" width="50" height="10" fill="#3233NaN"/>
<rect x="400" y="40" width="10" height="10" fill="#151531"/>
<rect x="410" y="40" width="50" height="10" fill="#3233NaN"/>
<rect x="460" y="40" width="340" height="10" fill="#151531"/>
<rect x="0" y="50" width="320" height="10" fill="#151531"/>
<rect x="320" y="50" width="30" height="10" fill="#3233NaN"/>
<rect x="350" y="50" width="50" height="10" fill="#151531"/>
<rect x="400" y="50" width="10" height="10" fill="#e2e8f0"/>
<rect x="410" y="50" width="50" height="10" fill="#151531"/>
<rect x="460" y="50" width="30" height="10" fill="#3233NaN"/>
<rect x="490" y="50" width="310" height="10" fill="#151531"/>
<rect x="0" y="60" width="310" height="10" fill="#151531"/>
<rect x="310" y="60" width="20" height="10" fill="#3233NaN"/>
<rect x="330" y="60" width="20" height="10" fill="#151531"/>
<rect x="350" y="60" width="110" height="10" fill="#e2e8f0"/>
<rect x="460" y="60" width="20" height="10" fill="#151531"/>
<rect x="480" y="60" width="20" height="10" fill="#3233NaN"/>
<rect x="500" y="60" width="300" height="10" fill="#151531"/>
<rect x="0" y="70" width="80" height="10" fill="#151531"/>
<rect x="80" y="70" width="10" height="10" fill="#ffffff"/>
<rect x="90" y="70" width="210" height="10" fill="#151531"/>
<rect x="300" y="70" width="10" height="10" fill="#3233NaN"/>
<rect x="310" y="70" width="30" height="10" fill="#151531"/>
<rect x="340" y="70" width="130" height="10" fill="#e2e8f0"/>
<rect x="470" y="70" width="30" height="10" fill="#151531"/>
<rect x="500" y="70" width="10" height="10" fill="#3233NaN"/>
<rect x="510" y="70" width="290" height="10" fill="#151531"/>
<rect x="0" y="80" width="70" height="10" fill="#151531"/>
<rect x="70" y="80" width="30" height="10" fill="#ffffff"/>
<rect x="100" y="80" width="180" height="10" fill="#151531"/>
<rect x="280" y="80" width="20" height="10" fill="#3233NaN"/>
<rect x="300" y="80" width="20" height="10" fill="#151531"/>
<rect x="320" y="80" width="170" height="10" fill="#e2e8f0"/>
<rect x="490" y="80" width="20" height="10" fill="#151531"/>
<rect x="510" y="80" width="20" height="10" fill="#3233NaN"/>
<rect x="530" y="80" width="270" height="10" fill="#151531"/>
<rect x="0" y="90" width="80" height="10" fill="#151531"/>
<rect x="80" y="90" width="10" height="10" fill="#ffffff"/>
<rect x="90" y="90" width="190" height="10" fill="#151531"/>
<rect x="280" y="90" width="10" height="10" fill="#3233NaN"/>
<rect x="290" y="90" width="20" height="10" fill="#151531"/>
<rect x="310" y="90" width="190" height="10" fill="#e2e8f0"/>
<rect x="500" y="90" width="20" height="10" fill="#151531"/>
<rect x="520" y="90" width="10" height="10" fill="#3233NaN"/>
<rect x="530" y="90" width="190" height="10" fill="#151531"/>
<rect x="720" y="90" width="10" height="10" fill="#6366f1"/>
<rect x="730" y="90" width="70" height="10" fill="#151531"/>
<rect x="0" y="100" width="270" height="10" fill="#151531"/>
<rect x="270" y="100" width="10" height="10" fill="#3233NaN"/>
<rect x="280" y="100" width="20" height="10" fill="#151531"/>
<rect x="300" y="100" width="210" height="10" fill="#e2e8f0"/>
<rect x="510" y="100" width="20" height="10" fill="#151531"/>
<rect x="530" y="100" width="10" height="10" fill="#3233NaN"/>
<rect x="540" y="100" width="170" height="10" fill="#151531"/>
<rect x="710" y="100" width="30" height="10" fill="#6366f1"/>
<rect x="740" y="100" width="60" height="10" fill="#151531"/>
<rect x="0" y="110" width="260" height="10" fill="#151531"/>
<rect x="260" y="110" width="10" height="10" fill="#3233NaN"/>
<rect x="270" y="110" width="30" height="10" fill="#151531"/>
<rect x="300" y="110" width="210" height="10" fill="#e2e8f0"/>
<rect x="510" y="110" width="30" height="10" fill="#151531"/>
<rect x="540" y="110" width="10" height="10" fill="#3233NaN"/>
<rect x="550" y="110" width="170" height="10" fill="#151531"/>
<rect x="720" y="110" width="10" height="10" fill="#6366f1"/>
<rect x="730" y="110" width="70" height="10" fill="#151531"/>
<rect x="0" y="120" width="250" height="10" fill="#151531"/>
<rect x="250" y="120" width="20" height="10" fill="#3233NaN"/>
<rect x="270" y="120" width="20" height="10" fill="#151531"/>
<rect x="290" y="120" width="230" height="10" fill="#e2e8f0"/>
<rect x="520" y="120" width="20" height="10" fill="#151531"/>
<rect x="540" y="120" width="20" height="10" fill="#3233NaN"/>
<rect x="560" y="120" width="240" height="10" fill="#151531"/>
<rect x="0" y="130" width="250" height="10" fill="#151531"/>
<rect x="250" y="130" width="10" height="10" fill="#3233NaN"/>
<rect x="260" y="130" width="20" height="10" fill="#151531"/>
<rect x="280" y="130" width="250" height="10" fill="#e2e8f0"/>
<rect x="530" y="130" width="20" height="10" fill="#151531"/>
<rect x="550" y="130" width="10" height="10" fill="#3233NaN"/>
<rect x="560" y="130" width="240" height="10" fill="#151531"/>
<rect x="0" y="140" width="250" height="10" fill="#151531"/>
<rect x="250" y="140" width="10" height="10" fill="#3233NaN"/>
<rect x="260" y="140" width="20" height="10" fill="#151531"/>
<rect x="280" y="140" width="250" height="10" fill="#e2e8f0"/>
<rect x="530" y="140" width="20" height="10" fill="#151531"/>
<rect x="550" y="140" width="10" height="10" fill="#3233NaN"/>
<rect x="560" y="140" width="40" height="10" fill="#9aa3b3"/>
<rect x="600" y="140" width="200" height="10" fill="#151531"/>
<rect x="0" y="150" width="240" height="10" fill="#151531"/>
<rect x="240" y="150" width="10" height="10" fill="#3233NaN"/>
<rect x="250" y="150" width="30" height="10" fill="#151531"/>
<rect x="280" y="150" width="250" height="10" fill="#e2e8f0"/>
<rect x="530" y="150" width="30" height="10" fill="#151531"/>
<rect x="560" y="150" width="10" height="10" fill="#3233NaN"/>
<rect x="570" y="150" width="230" height="10" fill="#151531"/>
<rect x="0" y="160" width="240" height="10" fill="#151531"/>
<rect x="240" y="160" width="10" height="10" fill="#3233NaN"/>
<rect x="250" y="160" width="30" height="10" fill="#151531"/>
<rect x="280" y="160" width="60" height="10" fill="#e2e8f0"/>
<rect x="340" y="160" width="40" height="10" fill="#0a0a14"/>
<rect x="380" y="160" width="50" height="10" fill="#e2e8f0"/>
<rect x="430" y="160" width="40" height="10" fill="#0a0a14"/>
<rect x="470" y="160" width="60" height="10" fill="#e2e8f0"/>
<rect x="530" y="160" width="30" height="10" fill="#151531"/>
<rect x="560" y="160" width="10" height="10" fill="#3233NaN"/>
<rect x="570" y="160" width="230" height="10" fill="#151531"/>
<rect x="0" y="170" width="240" height="10" fill="#151531"/>
<rect x="240" y="170" width="10" height="10" fill="#3233NaN"/>
<rect x="250" y="170" width="30" height="10" fill="#151531"/>
<rect x="280" y="170" width="60" height="10" fill="#e2e8f0"/>
<rect x="340" y="170" width="20" height="10" fill="#0a0a14"/>
<rect x="360" y="170" width="10" height="10" fill="#ffffff"/>
<rect x="370" y="170" width="10" height="10" fill="#0a0a14"/>
<rect x="380" y="170" width="50" height="10" fill="#e2e8f0"/>
<rect x="430" y="170" width="20" height="10" fill="#0a0a14"/>
<rect x="450" y="170" width="10" height="10" fill="#ffffff"/>
<rect x="460" y="170" width="10" height="10" fill="#0a0a14"/>
<rect x="470" y="170" width="60" height="10" fill="#e2e8f0"/>
<rect x="530" y="170" width="30" height="10" fill="#151531"/>
<rect x="560" y="170" width="10" height="10" fill="#3233NaN"/>
<rect x="570" y="170" width="230" height="10" fill="#151531"/>
<rect x="0" y="180" width="240" height="10" fill="#151531"/>
<rect x="240" y="180" width="10" height="10" fill="#3233NaN"/>
<rect x="250" y="180" width="20" height="10" fill="#151531"/>
<rect x="270" y="180" width="70" height="10" fill="#e2e8f0"/>
<rect x="340" y="180" width="40" height="10" fill="#0a0a14"/>
<rect x="380" y="180" width="50" height="10" fill="#e2e8f0"/>
<rect x="430" y="180" width="40" height="10" fill="#0a0a14"/>
<rect x="470" y="180" width="70" height="10" fill="#e2e8f0"/>
<rect x="540" y="180" width="20" height="10" fill="#151531"/>
<rect x="560" y="180" width="10" height="10" fill="#3233NaN"/>
<rect x="570" y="180" width="230" height="10" fill="#151531"/>
<rect x="0" y="190" width="240" height="10" fill="#151531"/>
<rect x="240" y="190" width="10" height="10" fill="#3233NaN"/>
<rect x="250" y="190" width="20" height="10" fill="#151531"/>
<rect x="270" y="190" width="70" height="10" fill="#e2e8f0"/>
<rect x="340" y="190" width="40" height="10" fill="#0a0a14"/>
<rect x="380" y="190" width="50" height="10" fill="#e2e8f0"/>
<rect x="430" y="190" width="40" height="10" fill="#0a0a14"/>
<rect x="470" y="190" width="70" height="10" fill="#e2e8f0"/>
<rect x="540" y="190" width="20" height="10" fill="#151531"/>
<rect x="560" y="190" width="10" height="10" fill="#3233NaN"/>
<rect x="570" y="190" width="230" height="10" fill="#151531"/>
<rect x="0" y="200" width="230" height="10" fill="#151531"/>
<rect x="230" y="200" width="10" height="10" fill="#3233NaN"/>
<rect x="240" y="200" width="30" height="10" fill="#151531"/>
<rect x="270" y="200" width="70" height="10" fill="#e2e8f0"/>
<rect x="340" y="200" width="40" height="10" fill="#0a0a14"/>
<rect x="380" y="200" width="50" height="10" fill="#e2e8f0"/>
<rect x="430" y="200" width="40" height="10" fill="#0a0a14"/>
<rect x="470" y="200" width="70" height="10" fill="#e2e8f0"/>
<rect x="540" y="200" width="30" height="10" fill="#151531"/>
<rect x="570" y="200" width="10" height="10" fill="#3233NaN"/>
<rect x="580" y="200" width="40" height="10" fill="#9aa3b3"/>
<rect x="620" y="200" width="180" height="10" fill="#151531"/>
<rect x="0" y="210" width="240" height="10" fill="#151531"/>
<rect x="240" y="210" width="10" height="10" fill="#3233NaN"/>
<rect x="250" y="210" width="20" height="10" fill="#151531"/>
<rect x="270" y="210" width="270" height="10" fill="#e2e8f0"/>
<rect x="540" y="210" width="20" height="10" fill="#151531"/>
<rect x="560" y="210" width="10" height="10" fill="#3233NaN"/>
<rect x="570" y="210" width="230" height="10" fill="#151531"/>
<rect x="0" y="220" width="240" height="10" fill="#151531"/>
<rect x="240" y="220" width="10" height="10" fill="#3233NaN"/>
<rect x="250" y="220" width="20" height="10" fill="#151531"/>
<rect x="270" y="220" width="270" height="10" fill="#e2e8f0"/>
<rect x="540" y="220" width="20" height="10" fill="#151531"/>
<rect x="560" y="220" width="10" height="10" fill="#3233NaN"/>
<rect x="570" y="220" width="230" height="10" fill="#151531"/>
<rect x="0" y="230" width="240" height="10" fill="#151531"/>
<rect x="240" y="230" width="10" height="10" fill="#3233NaN"/>
<rect x="250" y="230" width="20" height="10" fill="#151531"/>
<rect x="270" y="230" width="120" height="10" fill="#e2e8f0"/>
<rect x="390" y="230" width="30" height="10" fill="#0a0a14"/>
<rect x="420" y="230" width="120" height="10" fill="#e2e8f0"/>
<rect x="540" y="230" width="20" height="10" fill="#151531"/>
<rect x="560" y="230" width="10" height="10" fill="#3233NaN"/>
<rect x="570" y="230" width="230" height="10" fill="#151531"/>
<rect x="0" y="240" width="240" height="10" fill="#151531"/>
<rect x="240" y="240" width="10" height="10" fill="#3233NaN"/>
<rect x="250" y="240" width="20" height="10" fill="#151531"/>
<rect x="270" y="240" width="120" height="10" fill="#e2e8f0"/>
<rect x="390" y="240" width="30" height="10" fill="#0a0a14"/>
<rect x="420" y="240" width="120" height="10" fill="#e2e8f0"/>
<rect x="540" y="240" width="20" height="10" fill="#151531"/>
<rect x="560" y="240" width="10" height="10" fill="#3233NaN"/>
<rect x="570" y="240" width="230" height="10" fill="#151531"/>
<rect x="0" y="250" width="240" height="10" fill="#151531"/>
<rect x="240" y="250" width="10" height="10" fill="#3233NaN"/>
<rect x="250" y="250" width="20" height="10" fill="#151531"/>
<rect x="270" y="250" width="270" height="10" fill="#e2e8f0"/>
<rect x="540" y="250" width="20" height="10" fill="#151531"/>
<rect x="560" y="250" width="10" height="10" fill="#3233NaN"/>
<rect x="570" y="250" width="230" height="10" fill="#151531"/>
<rect x="0" y="260" width="250" height="10" fill="#151531"/>
<rect x="250" y="260" width="10" height="10" fill="#3233NaN"/>
<rect x="260" y="260" width="10" height="10" fill="#151531"/>
<rect x="270" y="260" width="270" height="10" fill="#e2e8f0"/>
<rect x="540" y="260" width="10" height="10" fill="#151531"/>
<rect x="550" y="260" width="10" height="10" fill="#3233NaN"/>
<rect x="560" y="260" width="30" height="10" fill="#9aa3b3"/>
<rect x="590" y="260" width="210" height="10" fill="#151531"/>
<rect x="0" y="270" width="250" height="10" fill="#151531"/>
<rect x="250" y="270" width="10" height="10" fill="#3233NaN"/>
<rect x="260" y="270" width="10" height="10" fill="#151531"/>
<rect x="270" y="270" width="270" height="10" fill="#e2e8f0"/>
<rect x="540" y="270" width="10" height="10" fill="#151531"/>
<rect x="550" y="270" width="10" height="10" fill="#3233NaN"/>
<rect x="560" y="270" width="240" height="10" fill="#151531"/>
<rect x="0" y="280" width="250" height="10" fill="#151531"/>
<rect x="250" y="280" width="20" height="10" fill="#3233NaN"/>
<rect x="270" y="280" width="270" height="10" fill="#e2e8f0"/>
<rect x="540" y="280" width="20" height="10" fill="#3233NaN"/>
<rect x="560" y="280" width="240" height="10" fill="#151531"/>
<rect x="0" y="290" width="260" height="10" fill="#151531"/>
<rect x="260" y="290" width="10" height="10" fill="#3233NaN"/>
<rect x="270" y="290" width="270" height="10" fill="#e2e8f0"/>
<rect x="540" y="290" width="10" height="10" fill="#3233NaN"/>
<rect x="550" y="290" width="250" height="10" fill="#151531"/>
<rect x="0" y="300" width="270" height="10" fill="#151531"/>
<rect x="270" y="300" width="10" height="10" fill="#3233NaN"/>
<rect x="280" y="300" width="250" height="10" fill="#e2e8f0"/>
<rect x="530" y="300" width="10" height="10" fill="#3233NaN"/>
<rect x="540" y="300" width="260" height="10" fill="#151531"/>
<rect x="0" y="310" width="270" height="10" fill="#181939"/>
<rect x="270" y="310" width="10" height="10" fill="#e2e8f0"/>
<rect x="280" y="310" width="10" height="10" fill="#3233NaN"/>
<rect x="290" y="310" width="230" height="10" fill="#e2e8f0"/>
<rect x="520" y="310" width="10" height="10" fill="#3233NaN"/>
<rect x="530" y="310" width="10" height="10" fill="#e2e8f0"/>
<rect x="540" y="310" width="260" height="10" fill="#181939"/>
<rect x="0" y="320" width="280" height="10" fill="#191a3c"/>
<rect x="280" y="320" width="20" height="10" fill="#3233NaN"/>
<rect x="300" y="320" width="210" height="10" fill="#e2e8f0"/>
<rect x="510" y="320" width="20" height="10" fill="#3233NaN"/>
<rect x="530" y="320" width="10" height="10" fill="#e2e8f0"/>
<rect x="540" y="320" width="260" height="10" fill="#191a3c"/>
<rect x="0" y="330" width="290" height="10" fill="#1a1b3e"/>
<rect x="290" y="330" width="10" height="10" fill="#e2e8f0"/>
<rect x="300" y="330" width="10" height="10" fill="#3233NaN"/>
<rect x="310" y="330" width="20" height="10" fill="#e2e8f0"/>
<rect x="330" y="330" width="10" height="10" fill="#1a1b3e"/>
<rect x="340" y="330" width="40" height="10" fill="#e2e8f0"/>
<rect x="380" y="330" width="10" height="10" fill="#1a1b3e"/>
<rect x="390" y="330" width="40" height="10" fill="#e2e8f0"/>
<rect x="430" y="330" width="10" height="10" fill="#1a1b3e"/>
<rect x="440" y="330" width="40" height="10" fill="#e2e8f0"/>
<rect x="480" y="330" width="10" height="10" fill="#1a1b3e"/>
<rect x="490" y="330" width="10" height="10" fill="#e2e8f0"/>
<rect x="500" y="330" width="10" height="10" fill="#3233NaN"/>
<rect x="510" y="330" width="20" height="10" fill="#e2e8f0"/>
<rect x="530" y="330" width="270" height="10" fill="#1a1b3e"/>
<rect x="0" y="340" width="290" height="10" fill="#1c1c41"/>
<rect x="290" y="340" width="20" height="10" fill="#e2e8f0"/>
<rect x="310" y="340" width="20" height="10" fill="#3233NaN"/>
<rect x="330" y="340" width="10" height="10" fill="#1c1c41"/>
<rect x="340" y="340" width="30" height="10" fill="#e2e8f0"/>
<rect x="370" y="340" width="20" height="10" fill="#1c1c41"/>
<rect x="390" y="340" width="30" height="10" fill="#e2e8f0"/>
<rect x="420" y="340" width="20" height="10" fill="#1c1c41"/>
<rect x="440" y="340" width="30" height="10" fill="#e2e8f0"/>
<rect x="470" y="340" width="10" height="10" fill="#1c1c41"/>
<rect x="480" y="340" width="20" height="10" fill="#3233NaN"/>
<rect x="500" y="340" width="20" height="10" fill="#e2e8f0"/>
<rect x="520" y="340" width="280" height="10" fill="#1c1c41"/>
<rect x="0" y="350" width="300" height="10" fill="#1d1d44"/>
<rect x="300" y="350" width="10" height="10" fill="#e2e8f0"/>
<rect x="310" y="350" width="10" height="10" fill="#1d1d44"/>
<rect x="320" y="350" width="30" height="10" fill="#3233NaN"/>
<rect x="350" y="350" width="10" height="10" fill="#e2e8f0"/>
<rect x="360" y="350" width="40" height="10" fill="#1d1d44"/>
<rect x="400" y="350" width="10" height="10" fill="#e2e8f0"/>
<rect x="410" y="350" width="40" height="10" fill="#1d1d44"/>
<rect x="450" y="350" width="10" height="10" fill="#e2e8f0"/>
<rect x="460" y="350" width="30" height="10" fill="#3233NaN"/>
<rect x="490" y="350" width="10" height="10" fill="#1d1d44"/>
<rect x="500" y="350" width="10" height="10" fill="#e2e8f0"/>
<rect x="510" y="350" width="170" height="10" fill="#1d1d44"/>
<rect x="680" y="350" width="10" height="10" fill="#ffffff"/>
<rect x="690" y="350" width="110" height="10" fill="#1d1d44"/>
<rect x="0" y="360" width="300" height="10" fill="#1e1e46"/>
<rect x="300" y="360" width="10" height="10" fill="#e2e8f0"/>
<rect x="310" y="360" width="40" height="10" fill="#1e1e46"/>
<rect x="350" y="360" width="50" height="10" fill="#3233NaN"/>
<rect x="400" y="360" width="10" height="10" fill="#e2e8f0"/>
<rect x="410" y="360" width="50" height="10" fill="#3233NaN"/>
<rect x="460" y="360" width="40" height="10" fill="#1e1e46"/>
<rect x="500" y="360" width="10" height="10" fill="#e2e8f0"/>
<rect x="510" y="360" width="160" height="10" fill="#1e1e46"/>
<rect x="670" y="360" width="30" height="10" fill="#ffffff"/>
<rect x="700" y="360" width="100" height="10" fill="#1e1e46"/>
<rect x="0" y="370" width="400" height="10" fill="#1f1f49"/>
<rect x="400" y="370" width="10" height="10" fill="#3233NaN"/>
<rect x="410" y="370" width="270" height="10" fill="#1f1f49"/>
<rect x="680" y="370" width="10" height="10" fill="#ffffff"/>
<rect x="690" y="370" width="110" height="10" fill="#1f1f49"/>
<rect x="0" y="380" width="800" height="10" fill="#20204b"/>
<rect x="0" y="390" width="800" height="10" fill="#21214e"/>
<rect x="0" y="400" width="800" height="10" fill="#222250"/>
<rect x="0" y="410" width="800" height="10" fill="#232353"/>
<rect x="0" y="420" width="800" height="10" fill="#242455"/>
<rect x="0" y="430" width="800" height="10" fill="#252558"/>
<rect x="0" y="440" width="800" height="10" fill="#26275b"/>
</svg>
