<svg xmlns="http://www.w3.org/2000/svg" viewBox="0 0 640 360" shape-rendering="crispEdges">
  <defs>
    <radialGradient id="g" cx="62%" cy="45%" r="55%">
      <stop offset="0%" stop-color="#67E8F9" stop-opacity="0.18"/>
      <stop offset="100%" stop-color="#67E8F9" stop-opacity="0"/>
    </radialGradient>
  </defs>
  <rect width="640" height="360" fill="#06111a"/>
  <rect width="640" height="360" fill="url(#g)"/>

  <!-- ── Left: .posecode editor panel ── -->
  <rect x="48" y="56" width="200" height="4" fill="#67E8F9" opacity="0.5"/>
  <rect x="48" y="292" width="200" height="4" fill="#67E8F9" opacity="0.5"/>
  <rect x="48" y="56" width="4" height="240" fill="#67E8F9" opacity="0.5"/>
  <rect x="244" y="56" width="4" height="240" fill="#67E8F9" opacity="0.5"/>
  <!-- title bar -->
  <rect x="52" y="60" width="192" height="20" fill="#67E8F9" opacity="0.12"/>
  <rect x="60" y="66" width="8" height="8" fill="#67E8F9" opacity="0.7"/>
  <rect x="72" y="66" width="8" height="8" fill="#67E8F9" opacity="0.4"/>
  <rect x="84" y="66" width="8" height="8" fill="#67E8F9" opacity="0.25"/>
  <rect x="152" y="66" width="84" height="8" fill="#67E8F9" opacity="0.3"/>

  <!-- code lines: phases of a movement -->
  <rect x="64" y="96" width="48" height="8" fill="#67E8F9" opacity="0.9"/>
  <rect x="120" y="96" width="72" height="8" fill="#E0FBFF" opacity="0.5"/>

  <rect x="80" y="112" width="40" height="8" fill="#67E8F9" opacity="0.45"/>
  <rect x="128" y="112" width="56" height="8" fill="#67E8F9" opacity="0.25"/>
  <rect x="80" y="128" width="56" height="8" fill="#67E8F9" opacity="0.45"/>
  <rect x="144" y="128" width="40" height="8" fill="#67E8F9" opacity="0.25"/>
  <rect x="80" y="144" width="32" height="8" fill="#67E8F9" opacity="0.45"/>
  <rect x="120" y="144" width="64" height="8" fill="#67E8F9" opacity="0.25"/>

  <rect x="64" y="168" width="48" height="8" fill="#67E8F9" opacity="0.9"/>
  <rect x="120" y="168" width="56" height="8" fill="#E0FBFF" opacity="0.5"/>

  <rect x="80" y="184" width="48" height="8" fill="#67E8F9" opacity="0.45"/>
  <rect x="136" y="184" width="48" height="8" fill="#67E8F9" opacity="0.25"/>
  <rect x="80" y="200" width="64" height="8" fill="#67E8F9" opacity="0.45"/>
  <rect x="152" y="200" width="32" height="8" fill="#67E8F9" opacity="0.25"/>

  <rect x="64" y="224" width="56" height="8" fill="#67E8F9" opacity="0.9"/>
  <rect x="128" y="224" width="40" height="8" fill="#E0FBFF" opacity="0.5"/>

  <rect x="80" y="240" width="40" height="8" fill="#67E8F9" opacity="0.45"/>
  <rect x="128" y="240" width="64" height="8" fill="#67E8F9" opacity="0.25"/>
  <!-- blinking cursor -->
  <rect x="80" y="260" width="10" height="12" fill="#E0FBFF" opacity="0.9"/>

  <!-- ── Arrow: text → motion ── -->
  <rect x="268" y="172" width="8" height="8" fill="#67E8F9" opacity="0.35"/>
  <rect x="280" y="172" width="8" height="8" fill="#67E8F9" opacity="0.6"/>
  <rect x="292" y="172" width="8" height="8" fill="#67E8F9" opacity="0.9"/>
  <rect x="300" y="164" width="8" height="8" fill="#67E8F9" opacity="0.9"/>
  <rect x="300" y="180" width="8" height="8" fill="#67E8F9" opacity="0.9"/>

  <!-- ── Right: animated figure, lunge + arm raise ── -->
  <!-- motion ghost arcs (previous arm positions) -->
  <rect x="452" y="128" width="48" height="8" fill="#67E8F9" opacity="0.12"/>
  <rect x="452" y="112" width="12" height="8" fill="#67E8F9" opacity="0.2"/>
  <rect x="464" y="106" width="12" height="8" fill="#67E8F9" opacity="0.2"/>
  <rect x="476" y="100" width="12" height="8" fill="#67E8F9" opacity="0.2"/>
  <!-- arc trace dots -->
  <rect x="508" y="120" width="6" height="6" fill="#67E8F9" opacity="0.35"/>
  <rect x="514" y="104" width="6" height="6" fill="#67E8F9" opacity="0.3"/>
  <rect x="514" y="88" width="6" height="6" fill="#67E8F9" opacity="0.25"/>
  <rect x="508" y="72" width="6" height="6" fill="#67E8F9" opacity="0.2"/>

  <!-- head -->
  <rect x="428" y="84" width="24" height="24" fill="#67E8F9" opacity="0.92"/>
  <!-- torso -->
  <rect x="436" y="108" width="8" height="76" fill="#67E8F9" opacity="0.85"/>

  <!-- raised arm (stairs up-right from shoulder to hand) -->
  <rect x="444" y="116" width="16" height="8" fill="#67E8F9" opacity="0.85"/>
  <rect x="456" y="108" width="16" height="8" fill="#67E8F9" opacity="0.85"/>
  <rect x="468" y="100" width="16" height="8" fill="#67E8F9" opacity="0.85"/>
  <rect x="480" y="92" width="16" height="8" fill="#67E8F9" opacity="0.85"/>
  <!-- hand -->
  <rect x="494" y="84" width="10" height="10" fill="#E0FBFF" opacity="0.95"/>

  <!-- lower arm (down-left) -->
  <rect x="424" y="124" width="12" height="8" fill="#67E8F9" opacity="0.85"/>
  <rect x="414" y="132" width="12" height="8" fill="#67E8F9" opacity="0.85"/>
  <rect x="404" y="140" width="12" height="8" fill="#67E8F9" opacity="0.85"/>

  <!-- front leg (lunge forward, down-right) -->
  <rect x="444" y="184" width="12" height="8" fill="#67E8F9" opacity="0.85"/>
  <rect x="454" y="192" width="12" height="8" fill="#67E8F9" opacity="0.85"/>
  <rect x="462" y="200" width="12" height="8" fill="#67E8F9" opacity="0.85"/>
  <rect x="468" y="208" width="8" height="36" fill="#67E8F9" opacity="0.85"/>
  <rect x="468" y="244" width="8" height="40" fill="#67E8F9" opacity="0.85"/>
  <rect x="468" y="284" width="20" height="8" fill="#67E8F9" opacity="0.85"/>

  <!-- back leg (down-left) -->
  <rect x="424" y="192" width="12" height="8" fill="#67E8F9" opacity="0.85"/>
  <rect x="412" y="200" width="12" height="8" fill="#67E8F9" opacity="0.85"/>
  <rect x="400" y="208" width="12" height="8" fill="#67E8F9" opacity="0.85"/>
  <rect x="390" y="216" width="12" height="8" fill="#67E8F9" opacity="0.85"/>
  <rect x="380" y="224" width="12" height="8" fill="#67E8F9" opacity="0.85"/>
  <rect x="372" y="232" width="8" height="52" fill="#67E8F9" opacity="0.85"/>
  <rect x="356" y="284" width="24" height="8" fill="#67E8F9" opacity="0.85"/>

  <!-- glowing joints (ROM-clamped) -->
  <rect x="430" y="110" width="20" height="20" fill="#67E8F9" opacity="0.2"/>
  <rect x="435" y="115" width="10" height="10" fill="#E0FBFF" opacity="0.95"/>
  <rect x="430" y="178" width="20" height="20" fill="#67E8F9" opacity="0.2"/>
  <rect x="435" y="183" width="10" height="10" fill="#E0FBFF" opacity="0.95"/>
  <rect x="462" y="202" width="20" height="20" fill="#67E8F9" opacity="0.2"/>
  <rect x="467" y="207" width="10" height="10" fill="#E0FBFF" opacity="0.95"/>
  <rect x="366" y="226" width="20" height="20" fill="#67E8F9" opacity="0.2"/>
  <rect x="371" y="231" width="10" height="10" fill="#E0FBFF" opacity="0.95"/>
  <rect x="463" y="97" width="18" height="18" fill="#67E8F9" opacity="0.18"/>
  <rect x="468" y="102" width="8" height="8" fill="#E0FBFF" opacity="0.9"/>

  <!-- ground line -->
  <rect x="336" y="296" width="256" height="4" fill="#67E8F9" opacity="0.35"/>
  <rect x="344" y="304" width="16" height="4" fill="#67E8F9" opacity="0.15"/>
  <rect x="384" y="304" width="24" height="4" fill="#67E8F9" opacity="0.15"/>
  <rect x="440" y="304" width="16" height="4" fill="#67E8F9" opacity="0.15"/>
  <rect x="488" y="304" width="24" height="4" fill="#67E8F9" opacity="0.15"/>
  <rect x="544" y="304" width="16" height="4" fill="#67E8F9" opacity="0.15"/>

  <!-- 60fps tick marks top right -->
  <rect x="560" y="48" width="6" height="10" fill="#67E8F9" opacity="0.5"/>
  <rect x="570" y="44" width="6" height="14" fill="#67E8F9" opacity="0.35"/>
  <rect x="580" y="50" width="6" height="8" fill="#67E8F9" opacity="0.25"/>
</svg>
