<?xml version="1.0" encoding="UTF-8"?>
<svg xmlns="http://www.w3.org/2000/svg" viewBox="0 0 800 450" shape-rendering="crispEdges" preserveAspectRatio="xMidYMid slice">
<rect x="0" y="0" width="800" height="10" fill="#201b32"/>
<rect x="0" y="10" width="800" height="10" fill="#201b32"/>
<rect x="0" y="20" width="800" height="10" fill="#201b32"/>
<rect x="0" y="30" width="800" height="10" fill="#201b32"/>
<rect x="0" y="40" width="800" height="10" fill="#201b32"/>
<rect x="0" y="50" width="800" height="10" fill="#201b32"/>
<rect x="0" y="60" width="800" height="10" fill="#201b32"/>
<rect x="0" y="70" width="800" height="10" fill="#201b32"/>
<rect x="0" y="80" width="160" height="10" fill="#201b32"/>
<rect x="160" y="80" width="20" height="10" fill="#cbd5e1"/>
<rect x="180" y="80" width="460" height="10" fill="#201b32"/>
<rect x="640" y="80" width="20" height="10" fill="#cbd5e1"/>
<rect x="660" y="80" width="140" height="10" fill="#201b32"/>
<rect x="0" y="90" width="150" height="10" fill="#201b32"/>
<rect x="150" y="90" width="10" height="10" fill="#7d8b9c"/>
<rect x="160" y="90" width="40" height="10" fill="#cbd5e1"/>
<rect x="200" y="90" width="420" height="10" fill="#201b32"/>
<rect x="620" y="90" width="30" height="10" fill="#cbd5e1"/>
<rect x="650" y="90" width="10" height="10" fill="#7d8b9c"/>
<rect x="660" y="90" width="140" height="10" fill="#201b32"/>
<rect x="0" y="100" width="160" height="10" fill="#201b32"/>
<rect x="160" y="100" width="20" height="10" fill="#7d8b9c"/>
<rect x="180" y="100" width="30" height="10" fill="#cbd5e1"/>
<rect x="210" y="100" width="400" height="10" fill="#201b32"/>
<rect x="610" y="100" width="20" height="10" fill="#cbd5e1"/>
<rect x="630" y="100" width="20" height="10" fill="#7d8b9c"/>
<rect x="650" y="100" width="150" height="10" fill="#201b32"/>
<rect x="0" y="110" width="180" height="10" fill="#201b32"/>
<rect x="180" y="110" width="10" height="10" fill="#7d8b9c"/>
<rect x="190" y="110" width="40" height="10" fill="#cbd5e1"/>
<rect x="230" y="110" width="360" height="10" fill="#201b32"/>
<rect x="590" y="110" width="30" height="10" fill="#cbd5e1"/>
<rect x="620" y="110" width="10" height="10" fill="#7d8b9c"/>
<rect x="630" y="110" width="170" height="10" fill="#201b32"/>
<rect x="0" y="120" width="190" height="10" fill="#201b32"/>
<rect x="190" y="120" width="20" height="10" fill="#7d8b9c"/>
<rect x="210" y="120" width="30" height="10" fill="#cbd5e1"/>
<rect x="240" y="120" width="340" height="10" fill="#201b32"/>
<rect x="580" y="120" width="20" height="10" fill="#cbd5e1"/>
<rect x="600" y="120" width="20" height="10" fill="#7d8b9c"/>
<rect x="620" y="120" width="180" height="10" fill="#201b32"/>
<rect x="0" y="130" width="210" height="10" fill="#201b32"/>
<rect x="210" y="130" width="10" height="10" fill="#7d8b9c"/>
<rect x="220" y="130" width="40" height="10" fill="#cbd5e1"/>
<rect x="260" y="130" width="300" height="10" fill="#201b32"/>
<rect x="560" y="130" width="30" height="10" fill="#cbd5e1"/>
<rect x="590" y="130" width="10" height="10" fill="#7d8b9c"/>
<rect x="600" y="130" width="200" height="10" fill="#201b32"/>
<rect x="0" y="140" width="220" height="10" fill="#201b32"/>
<rect x="220" y="140" width="20" height="10" fill="#7d8b9c"/>
<rect x="240" y="140" width="40" height="10" fill="#cbd5e1"/>
<rect x="280" y="140" width="260" height="10" fill="#201b32"/>
<rect x="540" y="140" width="30" height="10" fill="#cbd5e1"/>
<rect x="570" y="140" width="20" height="10" fill="#7d8b9c"/>
<rect x="590" y="140" width="210" height="10" fill="#201b32"/>
<rect x="0" y="150" width="240" height="10" fill="#201b32"/>
<rect x="240" y="150" width="20" height="10" fill="#7d8b9c"/>
<rect x="260" y="150" width="30" height="10" fill="#cbd5e1"/>
<rect x="290" y="150" width="240" height="10" fill="#201b32"/>
<rect x="530" y="150" width="20" height="10" fill="#cbd5e1"/>
<rect x="550" y="150" width="20" height="10" fill="#7d8b9c"/>
<rect x="570" y="150" width="230" height="10" fill="#201b32"/>
<rect x="0" y="160" width="260" height="10" fill="#201b32"/>
<rect x="260" y="160" width="10" height="10" fill="#7d8b9c"/>
<rect x="270" y="160" width="40" height="10" fill="#cbd5e1"/>
<rect x="310" y="160" width="200" height="10" fill="#201b32"/>
<rect x="510" y="160" width="30" height="10" fill="#cbd5e1"/>
<rect x="540" y="160" width="10" height="10" fill="#7d8b9c"/>
<rect x="550" y="160" width="250" height="10" fill="#201b32"/>
<rect x="0" y="170" width="270" height="10" fill="#201b32"/>
<rect x="270" y="170" width="20" height="10" fill="#7d8b9c"/>
<rect x="290" y="170" width="30" height="10" fill="#cbd5e1"/>
<rect x="320" y="170" width="180" height="10" fill="#201b32"/>
<rect x="500" y="170" width="20" height="10" fill="#cbd5e1"/>
<rect x="520" y="170" width="20" height="10" fill="#7d8b9c"/>
<rect x="540" y="170" width="260" height="10" fill="#201b32"/>
<rect x="0" y="180" width="290" height="10" fill="#201b32"/>
<rect x="290" y="180" width="10" height="10" fill="#7d8b9c"/>
<rect x="300" y="180" width="40" height="10" fill="#cbd5e1"/>
<rect x="340" y="180" width="140" height="10" fill="#201b32"/>
<rect x="480" y="180" width="30" height="10" fill="#cbd5e1"/>
<rect x="510" y="180" width="10" height="10" fill="#7d8b9c"/>
<rect x="520" y="180" width="280" height="10" fill="#201b32"/>
<rect x="0" y="190" width="300" height="10" fill="#201b32"/>
<rect x="300" y="190" width="20" height="10" fill="#7d8b9c"/>
<rect x="320" y="190" width="30" height="10" fill="#cbd5e1"/>
<rect x="350" y="190" width="120" height="10" fill="#201b32"/>
<rect x="470" y="190" width="20" height="10" fill="#cbd5e1"/>
<rect x="490" y="190" width="20" height="10" fill="#7d8b9c"/>
<rect x="510" y="190" width="290" height="10" fill="#201b32"/>
<rect x="0" y="200" width="320" height="10" fill="#201b32"/>
<rect x="320" y="200" width="10" height="10" fill="#7d8b9c"/>
<rect x="330" y="200" width="40" height="10" fill="#cbd5e1"/>
<rect x="370" y="200" width="80" height="10" fill="#201b32"/>
<rect x="450" y="200" width="30" height="10" fill="#cbd5e1"/>
<rect x="480" y="200" width="10" height="10" fill="#7d8b9c"/>
<rect x="490" y="200" width="310" height="10" fill="#201b32"/>
<rect x="0" y="210" width="330" height="10" fill="#201b32"/>
<rect x="330" y="210" width="20" height="10" fill="#7d8b9c"/>
<rect x="350" y="210" width="30" height="10" fill="#cbd5e1"/>
<rect x="380" y="210" width="60" height="10" fill="#201b32"/>
<rect x="440" y="210" width="20" height="10" fill="#cbd5e1"/>
<rect x="460" y="210" width="20" height="10" fill="#7d8b9c"/>
<rect x="480" y="210" width="320" height="10" fill="#201b32"/>
<rect x="0" y="220" width="350" height="10" fill="#201b32"/>
<rect x="350" y="220" width="10" height="10" fill="#7d8b9c"/>
<rect x="360" y="220" width="40" height="10" fill="#cbd5e1"/>
<rect x="400" y="220" width="20" height="10" fill="#201b32"/>
<rect x="420" y="220" width="30" height="10" fill="#cbd5e1"/>
<rect x="450" y="220" width="10" height="10" fill="#7d8b9c"/>
<rect x="460" y="220" width="340" height="10" fill="#201b32"/>
<rect x="0" y="230" width="360" height="10" fill="#201b32"/>
<rect x="360" y="230" width="20" height="10" fill="#7d8b9c"/>
<rect x="380" y="230" width="50" height="10" fill="#cbd5e1"/>
<rect x="430" y="230" width="20" height="10" fill="#7d8b9c"/>
<rect x="450" y="230" width="350" height="10" fill="#201b32"/>
<rect x="0" y="240" width="380" height="10" fill="#201b32"/>
<rect x="380" y="240" width="10" height="10" fill="#7d8b9c"/>
<rect x="390" y="240" width="30" height="10" fill="#cbd5e1"/>
<rect x="420" y="240" width="10" height="10" fill="#7d8b9c"/>
<rect x="430" y="240" width="370" height="10" fill="#201b32"/>
<rect x="0" y="250" width="370" height="10" fill="#201b32"/>
<rect x="370" y="250" width="30" height="10" fill="#cbd5e1"/>
<rect x="400" y="250" width="20" height="10" fill="#7d8b9c"/>
<rect x="420" y="250" width="30" height="10" fill="#cbd5e1"/>
<rect x="450" y="250" width="350" height="10" fill="#201b32"/>
<rect x="0" y="260" width="360" height="10" fill="#201b32"/>
<rect x="360" y="260" width="20" height="10" fill="#cbd5e1"/>
<rect x="380" y="260" width="20" height="10" fill="#7d8b9c"/>
<rect x="400" y="260" width="10" height="10" fill="#201b32"/>
<rect x="410" y="260" width="20" height="10" fill="#7d8b9c"/>
<rect x="430" y="260" width="30" height="10" fill="#cbd5e1"/>
<rect x="460" y="260" width="340" height="10" fill="#201b32"/>
<rect x="0" y="270" width="340" height="10" fill="#201b32"/>
<rect x="340" y="270" width="30" height="10" fill="#cbd5e1"/>
<rect x="370" y="270" width="10" height="10" fill="#7d8b9c"/>
<rect x="380" y="270" width="10" height="10" fill="#201b32"/>
<rect x="390" y="270" width="20" height="10" fill="#a78bfa"/>
<rect x="410" y="270" width="20" height="10" fill="#201b32"/>
<rect x="430" y="270" width="10" height="10" fill="#7d8b9c"/>
<rect x="440" y="270" width="40" height="10" fill="#cbd5e1"/>
<rect x="480" y="270" width="320" height="10" fill="#201b32"/>
<rect x="0" y="280" width="200" height="10" fill="#201b32"/>
<rect x="200" y="280" width="80" height="10" fill="#fbbf24"/>
<rect x="280" y="280" width="50" height="10" fill="#201b32"/>
<rect x="330" y="280" width="20" height="10" fill="#cbd5e1"/>
<rect x="350" y="280" width="20" height="10" fill="#7d8b9c"/>
<rect x="370" y="280" width="20" height="10" fill="#201b32"/>
<rect x="390" y="280" width="20" height="10" fill="#a78bfa"/>
<rect x="410" y="280" width="30" height="10" fill="#201b32"/>
<rect x="440" y="280" width="20" height="10" fill="#7d8b9c"/>
<rect x="460" y="280" width="30" height="10" fill="#cbd5e1"/>
<rect x="490" y="280" width="30" height="10" fill="#201b32"/>
<rect x="520" y="280" width="80" height="10" fill="#fbbf24"/>
<rect x="600" y="280" width="200" height="10" fill="#201b32"/>
<rect x="0" y="290" width="200" height="10" fill="#201b32"/>
<rect x="200" y="290" width="80" height="10" fill="#fbbf24"/>
<rect x="280" y="290" width="30" height="10" fill="#201b32"/>
<rect x="310" y="290" width="30" height="10" fill="#cbd5e1"/>
<rect x="340" y="290" width="10" height="10" fill="#7d8b9c"/>
<rect x="350" y="290" width="30" height="10" fill="#201b32"/>
<rect x="380" y="290" width="40" height="10" fill="#a78bfa"/>
<rect x="420" y="290" width="40" height="10" fill="#201b32"/>
<rect x="460" y="290" width="10" height="10" fill="#7d8b9c"/>
<rect x="470" y="290" width="40" height="10" fill="#cbd5e1"/>
<rect x="510" y="290" width="10" height="10" fill="#201b32"/>
<rect x="520" y="290" width="80" height="10" fill="#fbbf24"/>
<rect x="600" y="290" width="200" height="10" fill="#201b32"/>
<rect x="0" y="300" width="260" height="10" fill="#201b32"/>
<rect x="260" y="300" width="40" height="10" fill="#fbbf24"/>
<rect x="300" y="300" width="20" height="10" fill="#cbd5e1"/>
<rect x="320" y="300" width="20" height="10" fill="#7d8b9c"/>
<rect x="340" y="300" width="40" height="10" fill="#201b32"/>
<rect x="380" y="300" width="40" height="10" fill="#a78bfa"/>
<rect x="420" y="300" width="50" height="10" fill="#201b32"/>
<rect x="470" y="300" width="20" height="10" fill="#7d8b9c"/>
<rect x="490" y="300" width="10" height="10" fill="#cbd5e1"/>
<rect x="500" y="300" width="40" height="10" fill="#fbbf24"/>
<rect x="540" y="300" width="260" height="10" fill="#201b32"/>
<rect x="0" y="310" width="200" height="10" fill="#26203b"/>
<rect x="200" y="310" width="60" height="10" fill="#a78b3f"/>
<rect x="260" y="310" width="40" height="10" fill="#fbbf24"/>
<rect x="300" y="310" width="10" height="10" fill="#cbd5e1"/>
<rect x="310" y="310" width="10" height="10" fill="#7d8b9c"/>
<rect x="320" y="310" width="60" height="10" fill="#26203b"/>
<rect x="380" y="310" width="40" height="10" fill="#a78bfa"/>
<rect x="420" y="310" width="70" height="10" fill="#26203b"/>
<rect x="490" y="310" width="10" height="10" fill="#7d8b9c"/>
<rect x="500" y="310" width="40" height="10" fill="#fbbf24"/>
<rect x="540" y="310" width="60" height="10" fill="#a78b3f"/>
<rect x="600" y="310" width="200" height="10" fill="#26203b"/>
<rect x="0" y="320" width="200" height="10" fill="#28213d"/>
<rect x="200" y="320" width="60" height="10" fill="#a78b3f"/>
<rect x="260" y="320" width="40" height="10" fill="#fbbf24"/>
<rect x="300" y="320" width="20" height="10" fill="#28213d"/>
<rect x="320" y="320" width="160" height="10" fill="#7d8b9c"/>
<rect x="480" y="320" width="20" height="10" fill="#28213d"/>
<rect x="500" y="320" width="40" height="10" fill="#fbbf24"/>
<rect x="540" y="320" width="60" height="10" fill="#a78b3f"/>
<rect x="600" y="320" width="200" height="10" fill="#28213d"/>
<rect x="0" y="330" width="260" height="10" fill="#292340"/>
<rect x="260" y="330" width="40" height="10" fill="#fbbf24"/>
<rect x="300" y="330" width="20" height="10" fill="#292340"/>
<rect x="320" y="330" width="10" height="10" fill="#7d8b9c"/>
<rect x="330" y="330" width="140" height="10" fill="#cbd5e1"/>
<rect x="470" y="330" width="10" height="10" fill="#7d8b9c"/>
<rect x="480" y="330" width="20" height="10" fill="#292340"/>
<rect x="500" y="330" width="40" height="10" fill="#fbbf24"/>
<rect x="540" y="330" width="260" height="10" fill="#292340"/>
<rect x="0" y="340" width="320" height="10" fill="#2b2443"/>
<rect x="320" y="340" width="10" height="10" fill="#7d8b9c"/>
<rect x="330" y="340" width="140" height="10" fill="#cbd5e1"/>
<rect x="470" y="340" width="10" height="10" fill="#7d8b9c"/>
<rect x="480" y="340" width="320" height="10" fill="#2b2443"/>
<rect x="0" y="350" width="320" height="10" fill="#2d2645"/>
<rect x="320" y="350" width="10" height="10" fill="#7d8b9c"/>
<rect x="330" y="350" width="10" height="10" fill="#cbd5e1"/>
<rect x="340" y="350" width="120" height="10" fill="#1c1c2c"/>
<rect x="460" y="350" width="10" height="10" fill="#cbd5e1"/>
<rect x="470" y="350" width="10" height="10" fill="#7d8b9c"/>
<rect x="480" y="350" width="320" height="10" fill="#2d2645"/>
<rect x="0" y="360" width="320" height="10" fill="#2f2748"/>
<rect x="320" y="360" width="10" height="10" fill="#7d8b9c"/>
<rect x="330" y="360" width="140" height="10" fill="#cbd5e1"/>
<rect x="470" y="360" width="10" height="10" fill="#7d8b9c"/>
<rect x="480" y="360" width="320" height="10" fill="#2f2748"/>
<rect x="0" y="370" width="320" height="10" fill="#31294b"/>
<rect x="320" y="370" width="10" height="10" fill="#7d8b9c"/>
<rect x="330" y="370" width="140" height="10" fill="#cbd5e1"/>
<rect x="470" y="370" width="10" height="10" fill="#7d8b9c"/>
<rect x="480" y="370" width="320" height="10" fill="#31294b"/>
<rect x="0" y="380" width="320" height="10" fill="#322a4d"/>
<rect x="320" y="380" width="10" height="10" fill="#7d8b9c"/>
<rect x="330" y="380" width="140" height="10" fill="#cbd5e1"/>
<rect x="470" y="380" width="10" height="10" fill="#7d8b9c"/>
<rect x="480" y="380" width="320" height="10" fill="#322a4d"/>
<rect x="0" y="390" width="320" height="10" fill="#342c50"/>
<rect x="320" y="390" width="160" height="10" fill="#7d8b9c"/>
<rect x="480" y="390" width="320" height="10" fill="#342c50"/>
<rect x="0" y="400" width="800" height="10" fill="#362d53"/>
<rect x="0" y="410" width="800" height="10" fill="#866fc8"/>
<rect x="0" y="420" width="800" height="10" fill="#54467d"/>
<rect x="0" y="430" width="800" height="10" fill="#54467d"/>
<rect x="0" y="440" width="800" height="10" fill="#54467d"/>
</svg>
