<?xml version="1.0" encoding="UTF-8"?>
<svg xmlns="http://www.w3.org/2000/svg" viewBox="0 0 800 450" shape-rendering="crispEdges" preserveAspectRatio="xMidYMid slice">
  <defs>
    <radialGradient id="glow" cx="50%" cy="42%" r="55%">
      <stop offset="0%" stop-color="#FF4D6D" stop-opacity="0.22"/>
      <stop offset="100%" stop-color="#FF4D6D" stop-opacity="0"/>
    </radialGradient>
  </defs>
  <rect width="800" height="450" fill="#0f0712"/>
  <rect width="800" height="450" fill="url(#glow)"/>

  <!-- ── Center: vertical 9:16 reel screen ── -->
  <rect x="330" y="95" width="140" height="250" fill="#FF4D6D"/>
  <rect x="340" y="105" width="120" height="230" fill="#0f0712"/>
  <rect x="388" y="99" width="24" height="6" fill="#0f0712"/>

  <!-- play triangle -->
  <rect x="384" y="180" width="14" height="14" fill="#ffe3ea"/>
  <rect x="384" y="194" width="28" height="14" fill="#ffe3ea"/>
  <rect x="384" y="208" width="42" height="14" fill="#ffe3ea"/>
  <rect x="384" y="222" width="42" height="14" fill="#ffe3ea"/>
  <rect x="384" y="236" width="28" height="14" fill="#ffe3ea"/>
  <rect x="384" y="250" width="14" height="14" fill="#ffe3ea"/>

  <!-- word-synced caption bars -->
  <rect x="352" y="296" width="64" height="12" fill="#FF4D6D"/>
  <rect x="420" y="296" width="28" height="12" fill="#FF4D6D" opacity="0.45"/>
  <rect x="352" y="312" width="40" height="12" fill="#FF4D6D" opacity="0.6"/>
  <!-- scrubber -->
  <rect x="352" y="330" width="96" height="4" fill="#FF4D6D" opacity="0.25"/>
  <rect x="352" y="330" width="44" height="4" fill="#ffe3ea" opacity="0.9"/>

  <!-- ── Film strip on left ── -->
  <rect x="70" y="150" width="110" height="14" fill="#FF4D6D" opacity="0.5"/>
  <rect x="80" y="136" width="18" height="14" fill="#FF4D6D" opacity="0.5"/>
  <rect x="112" y="136" width="18" height="14" fill="#FF4D6D" opacity="0.5"/>
  <rect x="144" y="136" width="18" height="14" fill="#FF4D6D" opacity="0.5"/>
  <rect x="76" y="164" width="30" height="80" fill="#FF4D6D" opacity="0.14"/>
  <rect x="114" y="164" width="30" height="80" fill="#FF4D6D" opacity="0.14"/>
  <rect x="152" y="164" width="20" height="80" fill="#FF4D6D" opacity="0.14"/>
  <!-- mini play in frame -->
  <rect x="124" y="190" width="8" height="8" fill="#FF4D6D" opacity="0.8"/>
  <rect x="124" y="198" width="16" height="8" fill="#FF4D6D" opacity="0.8"/>
  <rect x="124" y="206" width="16" height="8" fill="#FF4D6D" opacity="0.8"/>
  <rect x="124" y="214" width="8" height="8" fill="#FF4D6D" opacity="0.8"/>
  <rect x="70" y="244" width="110" height="14" fill="#FF4D6D" opacity="0.5"/>
  <rect x="80" y="258" width="18" height="14" fill="#FF4D6D" opacity="0.5"/>
  <rect x="112" y="258" width="18" height="14" fill="#FF4D6D" opacity="0.5"/>
  <rect x="144" y="258" width="18" height="14" fill="#FF4D6D" opacity="0.5"/>

  <!-- ── Film strip on right (mirror) ── -->
  <rect x="620" y="150" width="110" height="14" fill="#FF4D6D" opacity="0.5"/>
  <rect x="638" y="136" width="18" height="14" fill="#FF4D6D" opacity="0.5"/>
  <rect x="670" y="136" width="18" height="14" fill="#FF4D6D" opacity="0.5"/>
  <rect x="702" y="136" width="18" height="14" fill="#FF4D6D" opacity="0.5"/>
  <rect x="628" y="164" width="20" height="80" fill="#FF4D6D" opacity="0.14"/>
  <rect x="656" y="164" width="30" height="80" fill="#FF4D6D" opacity="0.14"/>
  <rect x="694" y="164" width="30" height="80" fill="#FF4D6D" opacity="0.14"/>
  <rect x="664" y="190" width="8" height="8" fill="#FF4D6D" opacity="0.8"/>
  <rect x="664" y="198" width="16" height="8" fill="#FF4D6D" opacity="0.8"/>
  <rect x="664" y="206" width="16" height="8" fill="#FF4D6D" opacity="0.8"/>
  <rect x="664" y="214" width="8" height="8" fill="#FF4D6D" opacity="0.8"/>
  <rect x="620" y="244" width="110" height="14" fill="#FF4D6D" opacity="0.5"/>
  <rect x="638" y="258" width="18" height="14" fill="#FF4D6D" opacity="0.5"/>
  <rect x="670" y="258" width="18" height="14" fill="#FF4D6D" opacity="0.5"/>
  <rect x="702" y="258" width="18" height="14" fill="#FF4D6D" opacity="0.5"/>

  <!-- floating pixels -->
  <rect x="250" y="120" width="10" height="10" fill="#FF4D6D" opacity="0.3"/>
  <rect x="540" y="150" width="10" height="10" fill="#FF4D6D" opacity="0.3"/>
  <rect x="270" y="320" width="10" height="10" fill="#FF4D6D" opacity="0.2"/>
  <rect x="520" y="310" width="10" height="10" fill="#FF4D6D" opacity="0.2"/>
  <rect x="400" y="60" width="10" height="10" fill="#FF4D6D" opacity="0.25"/>
</svg>
