<?xml version="1.0" encoding="UTF-8"?>
<svg xmlns="http://www.w3.org/2000/svg" viewBox="0 0 800 450" shape-rendering="crispEdges" preserveAspectRatio="xMidYMid slice">
<rect x="0" y="0" width="800" height="10" fill="#0e2332"/>
<rect x="0" y="10" width="800" height="10" fill="#0e2332"/>
<rect x="0" y="20" width="800" height="10" fill="#0e2332"/>
<rect x="0" y="30" width="800" height="10" fill="#0e2332"/>
<rect x="0" y="40" width="800" height="10" fill="#0e2332"/>
<rect x="0" y="50" width="800" height="10" fill="#0e2332"/>
<rect x="0" y="60" width="460" height="10" fill="#0e2332"/>
<rect x="460" y="60" width="240" height="10" fill="#0f172a"/>
<rect x="700" y="60" width="100" height="10" fill="#0e2332"/>
<rect x="0" y="70" width="460" height="10" fill="#0e2332"/>
<rect x="460" y="70" width="10" height="10" fill="#0f172a"/>
<rect x="470" y="70" width="220" height="10" fill="#f1f5f9"/>
<rect x="690" y="70" width="10" height="10" fill="#0f172a"/>
<rect x="700" y="70" width="100" height="10" fill="#0e2332"/>
<rect x="0" y="80" width="80" height="10" fill="#0e2332"/>
<rect x="80" y="80" width="220" height="10" fill="#0f172a"/>
<rect x="300" y="80" width="160" height="10" fill="#0e2332"/>
<rect x="460" y="80" width="10" height="10" fill="#0f172a"/>
<rect x="470" y="80" width="220" height="10" fill="#f1f5f9"/>
<rect x="690" y="80" width="10" height="10" fill="#0f172a"/>
<rect x="700" y="80" width="100" height="10" fill="#0e2332"/>
<rect x="0" y="90" width="80" height="10" fill="#0e2332"/>
<rect x="80" y="90" width="10" height="10" fill="#0f172a"/>
<rect x="90" y="90" width="200" height="10" fill="#f1f5f9"/>
<rect x="290" y="90" width="10" height="10" fill="#0f172a"/>
<rect x="300" y="90" width="160" height="10" fill="#0e2332"/>
<rect x="460" y="90" width="10" height="10" fill="#0f172a"/>
<rect x="470" y="90" width="20" height="10" fill="#f1f5f9"/>
<rect x="490" y="90" width="140" height="10" fill="#0f172a"/>
<rect x="630" y="90" width="60" height="10" fill="#f1f5f9"/>
<rect x="690" y="90" width="10" height="10" fill="#0f172a"/>
<rect x="700" y="90" width="100" height="10" fill="#0e2332"/>
<rect x="0" y="100" width="80" height="10" fill="#0e2332"/>
<rect x="80" y="100" width="10" height="10" fill="#0f172a"/>
<rect x="90" y="100" width="200" height="10" fill="#f1f5f9"/>
<rect x="290" y="100" width="10" height="10" fill="#0f172a"/>
<rect x="300" y="100" width="160" height="10" fill="#0e2332"/>
<rect x="460" y="100" width="10" height="10" fill="#0f172a"/>
<rect x="470" y="100" width="220" height="10" fill="#f1f5f9"/>
<rect x="690" y="100" width="10" height="10" fill="#0f172a"/>
<rect x="700" y="100" width="100" height="10" fill="#0e2332"/>
<rect x="0" y="110" width="80" height="10" fill="#0e2332"/>
<rect x="80" y="110" width="10" height="10" fill="#0f172a"/>
<rect x="90" y="110" width="200" height="10" fill="#f1f5f9"/>
<rect x="290" y="110" width="10" height="10" fill="#0f172a"/>
<rect x="300" y="110" width="160" height="10" fill="#0e2332"/>
<rect x="460" y="110" width="10" height="10" fill="#0f172a"/>
<rect x="470" y="110" width="20" height="10" fill="#f1f5f9"/>
<rect x="490" y="110" width="180" height="10" fill="#0f172a"/>
<rect x="670" y="110" width="20" height="10" fill="#f1f5f9"/>
<rect x="690" y="110" width="10" height="10" fill="#0f172a"/>
<rect x="700" y="110" width="100" height="10" fill="#0e2332"/>
<rect x="0" y="120" width="80" height="10" fill="#0e2332"/>
<rect x="80" y="120" width="10" height="10" fill="#0f172a"/>
<rect x="90" y="120" width="30" height="10" fill="#f1f5f9"/>
<rect x="120" y="120" width="40" height="10" fill="#38bdf8"/>
<rect x="160" y="120" width="20" height="10" fill="#f1f5f9"/>
<rect x="180" y="120" width="40" height="10" fill="#4cc4f9"/>
<rect x="220" y="120" width="20" height="10" fill="#f1f5f9"/>
<rect x="240" y="120" width="40" height="10" fill="#227195"/>
<rect x="280" y="120" width="10" height="10" fill="#f1f5f9"/>
<rect x="290" y="120" width="10" height="10" fill="#0f172a"/>
<rect x="300" y="120" width="160" height="10" fill="#0e2332"/>
<rect x="460" y="120" width="10" height="10" fill="#0f172a"/>
<rect x="470" y="120" width="220" height="10" fill="#f1f5f9"/>
<rect x="690" y="120" width="10" height="10" fill="#0f172a"/>
<rect x="700" y="120" width="100" height="10" fill="#0e2332"/>
<rect x="0" y="130" width="80" height="10" fill="#0e2332"/>
<rect x="80" y="130" width="10" height="10" fill="#0f172a"/>
<rect x="90" y="130" width="30" height="10" fill="#f1f5f9"/>
<rect x="120" y="130" width="40" height="10" fill="#38bdf8"/>
<rect x="160" y="130" width="20" height="10" fill="#f1f5f9"/>
<rect x="180" y="130" width="40" height="10" fill="#4cc4f9"/>
<rect x="220" y="130" width="20" height="10" fill="#f1f5f9"/>
<rect x="240" y="130" width="40" height="10" fill="#227195"/>
<rect x="280" y="130" width="10" height="10" fill="#f1f5f9"/>
<rect x="290" y="130" width="10" height="10" fill="#0f172a"/>
<rect x="300" y="130" width="160" height="10" fill="#0e2332"/>
<rect x="460" y="130" width="10" height="10" fill="#0f172a"/>
<rect x="470" y="130" width="20" height="10" fill="#f1f5f9"/>
<rect x="490" y="130" width="100" height="10" fill="#0f172a"/>
<rect x="590" y="130" width="100" height="10" fill="#f1f5f9"/>
<rect x="690" y="130" width="10" height="10" fill="#0f172a"/>
<rect x="700" y="130" width="100" height="10" fill="#0e2332"/>
<rect x="0" y="140" width="80" height="10" fill="#0e2332"/>
<rect x="80" y="140" width="10" height="10" fill="#0f172a"/>
<rect x="90" y="140" width="30" height="10" fill="#f1f5f9"/>
<rect x="120" y="140" width="40" height="10" fill="#38bdf8"/>
<rect x="160" y="140" width="20" height="10" fill="#f1f5f9"/>
<rect x="180" y="140" width="40" height="10" fill="#4cc4f9"/>
<rect x="220" y="140" width="20" height="10" fill="#f1f5f9"/>
<rect x="240" y="140" width="40" height="10" fill="#227195"/>
<rect x="280" y="140" width="10" height="10" fill="#f1f5f9"/>
<rect x="290" y="140" width="10" height="10" fill="#0f172a"/>
<rect x="300" y="140" width="160" height="10" fill="#0e2332"/>
<rect x="460" y="140" width="10" height="10" fill="#0f172a"/>
<rect x="470" y="140" width="220" height="10" fill="#f1f5f9"/>
<rect x="690" y="140" width="10" height="10" fill="#0f172a"/>
<rect x="700" y="140" width="100" height="10" fill="#0e2332"/>
<rect x="0" y="150" width="80" height="10" fill="#0e2332"/>
<rect x="80" y="150" width="10" height="10" fill="#0f172a"/>
<rect x="90" y="150" width="30" height="10" fill="#f1f5f9"/>
<rect x="120" y="150" width="40" height="10" fill="#38bdf8"/>
<rect x="160" y="150" width="20" height="10" fill="#f1f5f9"/>
<rect x="180" y="150" width="40" height="10" fill="#4cc4f9"/>
<rect x="220" y="150" width="20" height="10" fill="#f1f5f9"/>
<rect x="240" y="150" width="40" height="10" fill="#227195"/>
<rect x="280" y="150" width="10" height="10" fill="#f1f5f9"/>
<rect x="290" y="150" width="10" height="10" fill="#0f172a"/>
<rect x="300" y="150" width="160" height="10" fill="#0e2332"/>
<rect x="460" y="150" width="240" height="10" fill="#0f172a"/>
<rect x="700" y="150" width="100" height="10" fill="#0e2332"/>
<rect x="0" y="160" width="80" height="10" fill="#0e2332"/>
<rect x="80" y="160" width="10" height="10" fill="#0f172a"/>
<rect x="90" y="160" width="200" height="10" fill="#f1f5f9"/>
<rect x="290" y="160" width="10" height="10" fill="#0f172a"/>
<rect x="300" y="160" width="300" height="10" fill="#0e2332"/>
<rect x="600" y="160" width="10" height="10" fill="#0f172a"/>
<rect x="610" y="160" width="50" height="10" fill="#f1f5f9"/>
<rect x="660" y="160" width="10" height="10" fill="#0f172a"/>
<rect x="670" y="160" width="130" height="10" fill="#0e2332"/>
<rect x="0" y="170" width="80" height="10" fill="#0e2332"/>
<rect x="80" y="170" width="10" height="10" fill="#0f172a"/>
<rect x="90" y="170" width="200" height="10" fill="#f1f5f9"/>
<rect x="290" y="170" width="10" height="10" fill="#0f172a"/>
<rect x="300" y="170" width="310" height="10" fill="#0e2332"/>
<rect x="610" y="170" width="20" height="10" fill="#0f172a"/>
<rect x="630" y="170" width="30" height="10" fill="#f1f5f9"/>
<rect x="660" y="170" width="10" height="10" fill="#0f172a"/>
<rect x="670" y="170" width="130" height="10" fill="#0e2332"/>
<rect x="0" y="180" width="80" height="10" fill="#0e2332"/>
<rect x="80" y="180" width="10" height="10" fill="#0f172a"/>
<rect x="90" y="180" width="200" height="10" fill="#f1f5f9"/>
<rect x="290" y="180" width="10" height="10" fill="#0f172a"/>
<rect x="300" y="180" width="330" height="10" fill="#0e2332"/>
<rect x="630" y="180" width="10" height="10" fill="#0f172a"/>
<rect x="640" y="180" width="20" height="10" fill="#f1f5f9"/>
<rect x="660" y="180" width="10" height="10" fill="#0f172a"/>
<rect x="670" y="180" width="130" height="10" fill="#0e2332"/>
<rect x="0" y="190" width="80" height="10" fill="#0e2332"/>
<rect x="80" y="190" width="220" height="10" fill="#0f172a"/>
<rect x="300" y="190" width="340" height="10" fill="#0e2332"/>
<rect x="640" y="190" width="30" height="10" fill="#0f172a"/>
<rect x="670" y="190" width="130" height="10" fill="#0e2332"/>
<rect x="0" y="200" width="120" height="10" fill="#0e2332"/>
<rect x="120" y="200" width="10" height="10" fill="#0f172a"/>
<rect x="130" y="200" width="50" height="10" fill="#f1f5f9"/>
<rect x="180" y="200" width="10" height="10" fill="#0f172a"/>
<rect x="190" y="200" width="470" height="10" fill="#0e2332"/>
<rect x="660" y="200" width="10" height="10" fill="#0f172a"/>
<rect x="670" y="200" width="130" height="10" fill="#0e2332"/>
<rect x="0" y="210" width="120" height="10" fill="#0e2332"/>
<rect x="120" y="210" width="10" height="10" fill="#0f172a"/>
<rect x="130" y="210" width="30" height="10" fill="#f1f5f9"/>
<rect x="160" y="210" width="20" height="10" fill="#0f172a"/>
<rect x="180" y="210" width="620" height="10" fill="#0e2332"/>
<rect x="0" y="220" width="120" height="10" fill="#0e2332"/>
<rect x="120" y="220" width="10" height="10" fill="#0f172a"/>
<rect x="130" y="220" width="20" height="10" fill="#f1f5f9"/>
<rect x="150" y="220" width="10" height="10" fill="#0f172a"/>
<rect x="160" y="220" width="640" height="10" fill="#0e2332"/>
<rect x="0" y="230" width="120" height="10" fill="#0e2332"/>
<rect x="120" y="230" width="30" height="10" fill="#0f172a"/>
<rect x="150" y="230" width="650" height="10" fill="#0e2332"/>
<rect x="0" y="240" width="120" height="10" fill="#0e2332"/>
<rect x="120" y="240" width="10" height="10" fill="#0f172a"/>
<rect x="130" y="240" width="410" height="10" fill="#0e2332"/>
<rect x="540" y="240" width="40" height="10" fill="#74d1fa"/>
<rect x="580" y="240" width="220" height="10" fill="#0e2332"/>
<rect x="0" y="250" width="540" height="10" fill="#0e2332"/>
<rect x="540" y="250" width="40" height="10" fill="#38bdf8"/>
<rect x="580" y="250" width="220" height="10" fill="#0e2332"/>
<rect x="0" y="260" width="300" height="10" fill="#0e2332"/>
<rect x="300" y="260" width="40" height="10" fill="#74d1fa"/>
<rect x="340" y="260" width="200" height="10" fill="#0e2332"/>
<rect x="540" y="260" width="40" height="10" fill="#38bdf8"/>
<rect x="580" y="260" width="220" height="10" fill="#0e2332"/>
<rect x="0" y="270" width="300" height="10" fill="#0e2332"/>
<rect x="300" y="270" width="40" height="10" fill="#38bdf8"/>
<rect x="340" y="270" width="200" height="10" fill="#0e2332"/>
<rect x="540" y="270" width="40" height="10" fill="#38bdf8"/>
<rect x="580" y="270" width="220" height="10" fill="#0e2332"/>
<rect x="0" y="280" width="300" height="10" fill="#0e2332"/>
<rect x="300" y="280" width="40" height="10" fill="#38bdf8"/>
<rect x="340" y="280" width="120" height="10" fill="#0e2332"/>
<rect x="460" y="280" width="40" height="10" fill="#649cb5"/>
<rect x="500" y="280" width="40" height="10" fill="#0e2332"/>
<rect x="540" y="280" width="40" height="10" fill="#38bdf8"/>
<rect x="580" y="280" width="220" height="10" fill="#0e2332"/>
<rect x="0" y="290" width="300" height="10" fill="#0e2332"/>
<rect x="300" y="290" width="40" height="10" fill="#38bdf8"/>
<rect x="340" y="290" width="120" height="10" fill="#0e2332"/>
<rect x="460" y="290" width="40" height="10" fill="#227195"/>
<rect x="500" y="290" width="40" height="10" fill="#0e2332"/>
<rect x="540" y="290" width="40" height="10" fill="#38bdf8"/>
<rect x="580" y="290" width="220" height="10" fill="#0e2332"/>
<rect x="0" y="300" width="220" height="10" fill="#0e2332"/>
<rect x="220" y="300" width="40" height="10" fill="#82d6fb"/>
<rect x="260" y="300" width="40" height="10" fill="#0e2332"/>
<rect x="300" y="300" width="40" height="10" fill="#38bdf8"/>
<rect x="340" y="300" width="120" height="10" fill="#0e2332"/>
<rect x="460" y="300" width="40" height="10" fill="#227195"/>
<rect x="500" y="300" width="40" height="10" fill="#0e2332"/>
<rect x="540" y="300" width="40" height="10" fill="#38bdf8"/>
<rect x="580" y="300" width="220" height="10" fill="#0e2332"/>
<rect x="0" y="310" width="220" height="10" fill="#102a3b"/>
<rect x="220" y="310" width="40" height="10" fill="#4cc4f9"/>
<rect x="260" y="310" width="40" height="10" fill="#102a3b"/>
<rect x="300" y="310" width="40" height="10" fill="#38bdf8"/>
<rect x="340" y="310" width="120" height="10" fill="#102a3b"/>
<rect x="460" y="310" width="40" height="10" fill="#227195"/>
<rect x="500" y="310" width="40" height="10" fill="#102a3b"/>
<rect x="540" y="310" width="40" height="10" fill="#38bdf8"/>
<rect x="580" y="310" width="40" height="10" fill="#102a3b"/>
<rect x="620" y="310" width="40" height="10" fill="#82d6fb"/>
<rect x="660" y="310" width="140" height="10" fill="#102a3b"/>
<rect x="0" y="320" width="220" height="10" fill="#102c3d"/>
<rect x="220" y="320" width="40" height="10" fill="#4cc4f9"/>
<rect x="260" y="320" width="40" height="10" fill="#102c3d"/>
<rect x="300" y="320" width="40" height="10" fill="#38bdf8"/>
<rect x="340" y="320" width="40" height="10" fill="#102c3d"/>
<rect x="380" y="320" width="40" height="10" fill="#82d6fb"/>
<rect x="420" y="320" width="40" height="10" fill="#102c3d"/>
<rect x="460" y="320" width="40" height="10" fill="#227195"/>
<rect x="500" y="320" width="40" height="10" fill="#102c3d"/>
<rect x="540" y="320" width="40" height="10" fill="#38bdf8"/>
<rect x="580" y="320" width="40" height="10" fill="#102c3d"/>
<rect x="620" y="320" width="40" height="10" fill="#4cc4f9"/>
<rect x="660" y="320" width="140" height="10" fill="#102c3d"/>
<rect x="0" y="330" width="220" height="10" fill="#112e40"/>
<rect x="220" y="330" width="40" height="10" fill="#4cc4f9"/>
<rect x="260" y="330" width="40" height="10" fill="#112e40"/>
<rect x="300" y="330" width="40" height="10" fill="#38bdf8"/>
<rect x="340" y="330" width="40" height="10" fill="#112e40"/>
<rect x="380" y="330" width="40" height="10" fill="#4cc4f9"/>
<rect x="420" y="330" width="40" height="10" fill="#112e40"/>
<rect x="460" y="330" width="40" height="10" fill="#227195"/>
<rect x="500" y="330" width="40" height="10" fill="#112e40"/>
<rect x="540" y="330" width="40" height="10" fill="#38bdf8"/>
<rect x="580" y="330" width="40" height="10" fill="#112e40"/>
<rect x="620" y="330" width="40" height="10" fill="#4cc4f9"/>
<rect x="660" y="330" width="140" height="10" fill="#112e40"/>
<rect x="0" y="340" width="140" height="10" fill="#123043"/>
<rect x="140" y="340" width="40" height="10" fill="#649cb5"/>
<rect x="180" y="340" width="40" height="10" fill="#123043"/>
<rect x="220" y="340" width="40" height="10" fill="#4cc4f9"/>
<rect x="260" y="340" width="40" height="10" fill="#123043"/>
<rect x="300" y="340" width="40" height="10" fill="#38bdf8"/>
<rect x="340" y="340" width="40" height="10" fill="#123043"/>
<rect x="380" y="340" width="40" height="10" fill="#4cc4f9"/>
<rect x="420" y="340" width="40" height="10" fill="#123043"/>
<rect x="460" y="340" width="40" height="10" fill="#227195"/>
<rect x="500" y="340" width="40" height="10" fill="#123043"/>
<rect x="540" y="340" width="40" height="10" fill="#38bdf8"/>
<rect x="580" y="340" width="40" height="10" fill="#123043"/>
<rect x="620" y="340" width="40" height="10" fill="#4cc4f9"/>
<rect x="660" y="340" width="140" height="10" fill="#123043"/>
<rect x="0" y="350" width="140" height="10" fill="#123245"/>
<rect x="140" y="350" width="40" height="10" fill="#227195"/>
<rect x="180" y="350" width="40" height="10" fill="#123245"/>
<rect x="220" y="350" width="40" height="10" fill="#4cc4f9"/>
<rect x="260" y="350" width="40" height="10" fill="#123245"/>
<rect x="300" y="350" width="40" height="10" fill="#38bdf8"/>
<rect x="340" y="350" width="40" height="10" fill="#123245"/>
<rect x="380" y="350" width="40" height="10" fill="#4cc4f9"/>
<rect x="420" y="350" width="40" height="10" fill="#123245"/>
<rect x="460" y="350" width="40" height="10" fill="#227195"/>
<rect x="500" y="350" width="40" height="10" fill="#123245"/>
<rect x="540" y="350" width="40" height="10" fill="#38bdf8"/>
<rect x="580" y="350" width="40" height="10" fill="#123245"/>
<rect x="620" y="350" width="40" height="10" fill="#4cc4f9"/>
<rect x="660" y="350" width="140" height="10" fill="#123245"/>
<rect x="0" y="360" width="140" height="10" fill="#133448"/>
<rect x="140" y="360" width="40" height="10" fill="#227195"/>
<rect x="180" y="360" width="40" height="10" fill="#133448"/>
<rect x="220" y="360" width="40" height="10" fill="#4cc4f9"/>
<rect x="260" y="360" width="40" height="10" fill="#133448"/>
<rect x="300" y="360" width="40" height="10" fill="#38bdf8"/>
<rect x="340" y="360" width="40" height="10" fill="#133448"/>
<rect x="380" y="360" width="40" height="10" fill="#4cc4f9"/>
<rect x="420" y="360" width="40" height="10" fill="#133448"/>
<rect x="460" y="360" width="40" height="10" fill="#227195"/>
<rect x="500" y="360" width="40" height="10" fill="#133448"/>
<rect x="540" y="360" width="40" height="10" fill="#38bdf8"/>
<rect x="580" y="360" width="40" height="10" fill="#133448"/>
<rect x="620" y="360" width="40" height="10" fill="#4cc4f9"/>
<rect x="660" y="360" width="140" height="10" fill="#133448"/>
<rect x="0" y="370" width="140" height="10" fill="#13364a"/>
<rect x="140" y="370" width="40" height="10" fill="#227195"/>
<rect x="180" y="370" width="40" height="10" fill="#13364a"/>
<rect x="220" y="370" width="40" height="10" fill="#4cc4f9"/>
<rect x="260" y="370" width="40" height="10" fill="#13364a"/>
<rect x="300" y="370" width="40" height="10" fill="#38bdf8"/>
<rect x="340" y="370" width="40" height="10" fill="#13364a"/>
<rect x="380" y="370" width="40" height="10" fill="#4cc4f9"/>
<rect x="420" y="370" width="40" height="10" fill="#13364a"/>
<rect x="460" y="370" width="40" height="10" fill="#227195"/>
<rect x="500" y="370" width="40" height="10" fill="#13364a"/>
<rect x="540" y="370" width="40" height="10" fill="#38bdf8"/>
<rect x="580" y="370" width="40" height="10" fill="#13364a"/>
<rect x="620" y="370" width="40" height="10" fill="#4cc4f9"/>
<rect x="660" y="370" width="140" height="10" fill="#13364a"/>
<rect x="0" y="380" width="140" height="10" fill="#14384d"/>
<rect x="140" y="380" width="40" height="10" fill="#227195"/>
<rect x="180" y="380" width="40" height="10" fill="#14384d"/>
<rect x="220" y="380" width="40" height="10" fill="#4cc4f9"/>
<rect x="260" y="380" width="40" height="10" fill="#14384d"/>
<rect x="300" y="380" width="40" height="10" fill="#38bdf8"/>
<rect x="340" y="380" width="40" height="10" fill="#14384d"/>
<rect x="380" y="380" width="40" height="10" fill="#4cc4f9"/>
<rect x="420" y="380" width="40" height="10" fill="#14384d"/>
<rect x="460" y="380" width="40" height="10" fill="#227195"/>
<rect x="500" y="380" width="40" height="10" fill="#14384d"/>
<rect x="540" y="380" width="40" height="10" fill="#38bdf8"/>
<rect x="580" y="380" width="40" height="10" fill="#14384d"/>
<rect x="620" y="380" width="40" height="10" fill="#4cc4f9"/>
<rect x="660" y="380" width="140" height="10" fill="#14384d"/>
<rect x="0" y="390" width="140" height="10" fill="#143a50"/>
<rect x="140" y="390" width="40" height="10" fill="#227195"/>
<rect x="180" y="390" width="40" height="10" fill="#143a50"/>
<rect x="220" y="390" width="40" height="10" fill="#4cc4f9"/>
<rect x="260" y="390" width="40" height="10" fill="#143a50"/>
<rect x="300" y="390" width="40" height="10" fill="#38bdf8"/>
<rect x="340" y="390" width="40" height="10" fill="#143a50"/>
<rect x="380" y="390" width="40" height="10" fill="#4cc4f9"/>
<rect x="420" y="390" width="40" height="10" fill="#143a50"/>
<rect x="460" y="390" width="40" height="10" fill="#227195"/>
<rect x="500" y="390" width="40" height="10" fill="#143a50"/>
<rect x="540" y="390" width="40" height="10" fill="#38bdf8"/>
<rect x="580" y="390" width="40" height="10" fill="#143a50"/>
<rect x="620" y="390" width="40" height="10" fill="#4cc4f9"/>
<rect x="660" y="390" width="140" height="10" fill="#143a50"/>
<rect x="0" y="400" width="80" height="10" fill="#153c52"/>
<rect x="80" y="400" width="640" height="10" fill="#0f172a"/>
<rect x="720" y="400" width="80" height="10" fill="#153c52"/>
<rect x="0" y="410" width="800" height="10" fill="#153e55"/>
<rect x="0" y="420" width="800" height="10" fill="#164058"/>
<rect x="0" y="430" width="800" height="10" fill="#17425a"/>
<rect x="0" y="440" width="800" height="10" fill="#17445d"/>
</svg>
