<?xml version="1.0" encoding="UTF-8"?>
<svg xmlns="http://www.w3.org/2000/svg" viewBox="0 0 800 450" shape-rendering="crispEdges" preserveAspectRatio="xMidYMid slice">
<rect x="0" y="0" width="800" height="10" fill="#2c1727"/>
<rect x="0" y="10" width="800" height="10" fill="#2c1727"/>
<rect x="0" y="20" width="800" height="10" fill="#2c1727"/>
<rect x="0" y="30" width="800" height="10" fill="#2c1727"/>
<rect x="0" y="40" width="670" height="10" fill="#2c1727"/>
<rect x="670" y="40" width="10" height="10" fill="#ffffff"/>
<rect x="680" y="40" width="10" height="10" fill="#2c1727"/>
<rect x="690" y="40" width="10" height="10" fill="#ffffff"/>
<rect x="700" y="40" width="100" height="10" fill="#2c1727"/>
<rect x="0" y="50" width="660" height="10" fill="#2c1727"/>
<rect x="660" y="50" width="50" height="10" fill="#ffffff"/>
<rect x="710" y="50" width="90" height="10" fill="#2c1727"/>
<rect x="0" y="60" width="660" height="10" fill="#2c1727"/>
<rect x="660" y="60" width="50" height="10" fill="#ffffff"/>
<rect x="710" y="60" width="90" height="10" fill="#2c1727"/>
<rect x="0" y="70" width="80" height="10" fill="#2c1727"/>
<rect x="80" y="70" width="10" height="10" fill="#fab9db"/>
<rect x="90" y="70" width="10" height="10" fill="#f472b6"/>
<rect x="100" y="70" width="10" height="10" fill="#2c1727"/>
<rect x="110" y="70" width="10" height="10" fill="#f472b6"/>
<rect x="120" y="70" width="550" height="10" fill="#2c1727"/>
<rect x="670" y="70" width="30" height="10" fill="#ffffff"/>
<rect x="700" y="70" width="100" height="10" fill="#2c1727"/>
<rect x="0" y="80" width="70" height="10" fill="#2c1727"/>
<rect x="70" y="80" width="30" height="10" fill="#fab9db"/>
<rect x="100" y="80" width="30" height="10" fill="#f472b6"/>
<rect x="130" y="80" width="550" height="10" fill="#2c1727"/>
<rect x="680" y="80" width="10" height="10" fill="#ffffff"/>
<rect x="690" y="80" width="110" height="10" fill="#2c1727"/>
<rect x="0" y="90" width="70" height="10" fill="#2c1727"/>
<rect x="70" y="90" width="10" height="10" fill="#f472b6"/>
<rect x="80" y="90" width="10" height="10" fill="#fab9db"/>
<rect x="90" y="90" width="50" height="10" fill="#f472b6"/>
<rect x="140" y="90" width="540" height="10" fill="#2c1727"/>
<rect x="680" y="90" width="10" height="10" fill="#ffffff"/>
<rect x="690" y="90" width="110" height="10" fill="#2c1727"/>
<rect x="0" y="100" width="70" height="10" fill="#2c1727"/>
<rect x="70" y="100" width="70" height="10" fill="#f472b6"/>
<rect x="140" y="100" width="660" height="10" fill="#2c1727"/>
<rect x="0" y="110" width="80" height="10" fill="#2c1727"/>
<rect x="80" y="110" width="50" height="10" fill="#f472b6"/>
<rect x="130" y="110" width="570" height="10" fill="#2c1727"/>
<rect x="700" y="110" width="10" height="10" fill="#fab9db"/>
<rect x="710" y="110" width="10" height="10" fill="#f472b6"/>
<rect x="720" y="110" width="10" height="10" fill="#2c1727"/>
<rect x="730" y="110" width="10" height="10" fill="#f472b6"/>
<rect x="740" y="110" width="60" height="10" fill="#2c1727"/>
<rect x="0" y="120" width="80" height="10" fill="#2c1727"/>
<rect x="80" y="120" width="40" height="10" fill="#92446d"/>
<rect x="120" y="120" width="570" height="10" fill="#2c1727"/>
<rect x="690" y="120" width="30" height="10" fill="#fab9db"/>
<rect x="720" y="120" width="30" height="10" fill="#f472b6"/>
<rect x="750" y="120" width="50" height="10" fill="#2c1727"/>
<rect x="0" y="130" width="90" height="10" fill="#2c1727"/>
<rect x="90" y="130" width="20" height="10" fill="#92446d"/>
<rect x="110" y="130" width="580" height="10" fill="#2c1727"/>
<rect x="690" y="130" width="10" height="10" fill="#f472b6"/>
<rect x="700" y="130" width="10" height="10" fill="#fab9db"/>
<rect x="710" y="130" width="50" height="10" fill="#f472b6"/>
<rect x="760" y="130" width="40" height="10" fill="#2c1727"/>
<rect x="0" y="140" width="100" height="10" fill="#2c1727"/>
<rect x="100" y="140" width="10" height="10" fill="#f472b6"/>
<rect x="110" y="140" width="110" height="10" fill="#2c1727"/>
<rect x="220" y="140" width="10" height="10" fill="#3a2a1a"/>
<rect x="230" y="140" width="340" height="10" fill="#ddd2c2"/>
<rect x="570" y="140" width="10" height="10" fill="#3a2a1a"/>
<rect x="580" y="140" width="110" height="10" fill="#2c1727"/>
<rect x="690" y="140" width="70" height="10" fill="#f472b6"/>
<rect x="760" y="140" width="40" height="10" fill="#2c1727"/>
<rect x="0" y="150" width="220" height="10" fill="#2c1727"/>
<rect x="220" y="150" width="30" height="10" fill="#3a2a1a"/>
<rect x="250" y="150" width="300" height="10" fill="#ddd2c2"/>
<rect x="550" y="150" width="30" height="10" fill="#3a2a1a"/>
<rect x="580" y="150" width="120" height="10" fill="#2c1727"/>
<rect x="700" y="150" width="50" height="10" fill="#f472b6"/>
<rect x="750" y="150" width="50" height="10" fill="#2c1727"/>
<rect x="0" y="160" width="220" height="10" fill="#2c1727"/>
<rect x="220" y="160" width="10" height="10" fill="#3a2a1a"/>
<rect x="230" y="160" width="20" height="10" fill="#f5e9d8"/>
<rect x="250" y="160" width="10" height="10" fill="#3a2a1a"/>
<rect x="260" y="160" width="280" height="10" fill="#ddd2c2"/>
<rect x="540" y="160" width="10" height="10" fill="#3a2a1a"/>
<rect x="550" y="160" width="20" height="10" fill="#f5e9d8"/>
<rect x="570" y="160" width="10" height="10" fill="#3a2a1a"/>
<rect x="580" y="160" width="120" height="10" fill="#2c1727"/>
<rect x="700" y="160" width="40" height="10" fill="#92446d"/>
<rect x="740" y="160" width="60" height="10" fill="#2c1727"/>
<rect x="0" y="170" width="220" height="10" fill="#2c1727"/>
<rect x="220" y="170" width="10" height="10" fill="#3a2a1a"/>
<rect x="230" y="170" width="30" height="10" fill="#f5e9d8"/>
<rect x="260" y="170" width="20" height="10" fill="#3a2a1a"/>
<rect x="280" y="170" width="250" height="10" fill="#ddd2c2"/>
<rect x="530" y="170" width="10" height="10" fill="#3a2a1a"/>
<rect x="540" y="170" width="30" height="10" fill="#f5e9d8"/>
<rect x="570" y="170" width="10" height="10" fill="#3a2a1a"/>
<rect x="580" y="170" width="130" height="10" fill="#2c1727"/>
<rect x="710" y="170" width="20" height="10" fill="#92446d"/>
<rect x="730" y="170" width="70" height="10" fill="#2c1727"/>
<rect x="0" y="180" width="220" height="10" fill="#2c1727"/>
<rect x="220" y="180" width="10" height="10" fill="#3a2a1a"/>
<rect x="230" y="180" width="50" height="10" fill="#f5e9d8"/>
<rect x="280" y="180" width="10" height="10" fill="#3a2a1a"/>
<rect x="290" y="180" width="220" height="10" fill="#ddd2c2"/>
<rect x="510" y="180" width="20" height="10" fill="#3a2a1a"/>
<rect x="530" y="180" width="40" height="10" fill="#f5e9d8"/>
<rect x="570" y="180" width="10" height="10" fill="#3a2a1a"/>
<rect x="580" y="180" width="140" height="10" fill="#2c1727"/>
<rect x="720" y="180" width="10" height="10" fill="#f472b6"/>
<rect x="730" y="180" width="70" height="10" fill="#2c1727"/>
<rect x="0" y="190" width="220" height="10" fill="#2c1727"/>
<rect x="220" y="190" width="10" height="10" fill="#3a2a1a"/>
<rect x="230" y="190" width="60" height="10" fill="#f5e9d8"/>
<rect x="290" y="190" width="20" height="10" fill="#3a2a1a"/>
<rect x="310" y="190" width="190" height="10" fill="#ddd2c2"/>
<rect x="500" y="190" width="10" height="10" fill="#3a2a1a"/>
<rect x="510" y="190" width="60" height="10" fill="#f5e9d8"/>
<rect x="570" y="190" width="10" height="10" fill="#3a2a1a"/>
<rect x="580" y="190" width="220" height="10" fill="#2c1727"/>
<rect x="0" y="200" width="220" height="10" fill="#2c1727"/>
<rect x="220" y="200" width="10" height="10" fill="#3a2a1a"/>
<rect x="230" y="200" width="80" height="10" fill="#f5e9d8"/>
<rect x="310" y="200" width="10" height="10" fill="#3a2a1a"/>
<rect x="320" y="200" width="160" height="10" fill="#ddd2c2"/>
<rect x="480" y="200" width="20" height="10" fill="#3a2a1a"/>
<rect x="500" y="200" width="70" height="10" fill="#f5e9d8"/>
<rect x="570" y="200" width="10" height="10" fill="#3a2a1a"/>
<rect x="580" y="200" width="220" height="10" fill="#2c1727"/>
<rect x="0" y="210" width="140" height="10" fill="#2c1727"/>
<rect x="140" y="210" width="10" height="10" fill="#ffffff"/>
<rect x="150" y="210" width="70" height="10" fill="#2c1727"/>
<rect x="220" y="210" width="10" height="10" fill="#3a2a1a"/>
<rect x="230" y="210" width="90" height="10" fill="#f5e9d8"/>
<rect x="320" y="210" width="20" height="10" fill="#3a2a1a"/>
<rect x="340" y="210" width="130" height="10" fill="#ddd2c2"/>
<rect x="470" y="210" width="10" height="10" fill="#3a2a1a"/>
<rect x="480" y="210" width="90" height="10" fill="#f5e9d8"/>
<rect x="570" y="210" width="10" height="10" fill="#3a2a1a"/>
<rect x="580" y="210" width="220" height="10" fill="#2c1727"/>
<rect x="0" y="220" width="130" height="10" fill="#2c1727"/>
<rect x="130" y="220" width="30" height="10" fill="#ffffff"/>
<rect x="160" y="220" width="60" height="10" fill="#2c1727"/>
<rect x="220" y="220" width="10" height="10" fill="#3a2a1a"/>
<rect x="230" y="220" width="110" height="10" fill="#f5e9d8"/>
<rect x="340" y="220" width="10" height="10" fill="#3a2a1a"/>
<rect x="350" y="220" width="100" height="10" fill="#ddd2c2"/>
<rect x="450" y="220" width="20" height="10" fill="#3a2a1a"/>
<rect x="470" y="220" width="100" height="10" fill="#f5e9d8"/>
<rect x="570" y="220" width="10" height="10" fill="#3a2a1a"/>
<rect x="580" y="220" width="220" height="10" fill="#2c1727"/>
<rect x="0" y="230" width="140" height="10" fill="#2c1727"/>
<rect x="140" y="230" width="10" height="10" fill="#ffffff"/>
<rect x="150" y="230" width="70" height="10" fill="#2c1727"/>
<rect x="220" y="230" width="10" height="10" fill="#3a2a1a"/>
<rect x="230" y="230" width="120" height="10" fill="#f5e9d8"/>
<rect x="350" y="230" width="20" height="10" fill="#3a2a1a"/>
<rect x="370" y="230" width="70" height="10" fill="#ddd2c2"/>
<rect x="440" y="230" width="10" height="10" fill="#3a2a1a"/>
<rect x="450" y="230" width="120" height="10" fill="#f5e9d8"/>
<rect x="570" y="230" width="10" height="10" fill="#3a2a1a"/>
<rect x="580" y="230" width="220" height="10" fill="#2c1727"/>
<rect x="0" y="240" width="220" height="10" fill="#2c1727"/>
<rect x="220" y="240" width="10" height="10" fill="#3a2a1a"/>
<rect x="230" y="240" width="140" height="10" fill="#f5e9d8"/>
<rect x="370" y="240" width="10" height="10" fill="#3a2a1a"/>
<rect x="380" y="240" width="10" height="10" fill="#cf619b"/>
<rect x="390" y="240" width="30" height="10" fill="#ddd2c2"/>
<rect x="420" y="240" width="10" height="10" fill="#cf619b"/>
<rect x="430" y="240" width="10" height="10" fill="#3a2a1a"/>
<rect x="440" y="240" width="130" height="10" fill="#f5e9d8"/>
<rect x="570" y="240" width="10" height="10" fill="#3a2a1a"/>
<rect x="580" y="240" width="220" height="10" fill="#2c1727"/>
<rect x="0" y="250" width="220" height="10" fill="#2c1727"/>
<rect x="220" y="250" width="10" height="10" fill="#3a2a1a"/>
<rect x="230" y="250" width="130" height="10" fill="#f5e9d8"/>
<rect x="360" y="250" width="10" height="10" fill="#cf619b"/>
<rect x="370" y="250" width="10" height="10" fill="#f8aad3"/>
<rect x="380" y="250" width="70" height="10" fill="#cf619b"/>
<rect x="450" y="250" width="120" height="10" fill="#f5e9d8"/>
<rect x="570" y="250" width="10" height="10" fill="#3a2a1a"/>
<rect x="580" y="250" width="220" height="10" fill="#2c1727"/>
<rect x="0" y="260" width="220" height="10" fill="#2c1727"/>
<rect x="220" y="260" width="10" height="10" fill="#3a2a1a"/>
<rect x="230" y="260" width="130" height="10" fill="#f5e9d8"/>
<rect x="360" y="260" width="30" height="10" fill="#f8aad3"/>
<rect x="390" y="260" width="60" height="10" fill="#cf619b"/>
<rect x="450" y="260" width="120" height="10" fill="#f5e9d8"/>
<rect x="570" y="260" width="10" height="10" fill="#3a2a1a"/>
<rect x="580" y="260" width="220" height="10" fill="#2c1727"/>
<rect x="0" y="270" width="220" height="10" fill="#2c1727"/>
<rect x="220" y="270" width="10" height="10" fill="#3a2a1a"/>
<rect x="230" y="270" width="120" height="10" fill="#f5e9d8"/>
<rect x="350" y="270" width="20" height="10" fill="#cf619b"/>
<rect x="370" y="270" width="10" height="10" fill="#f8aad3"/>
<rect x="380" y="270" width="80" height="10" fill="#cf619b"/>
<rect x="460" y="270" width="110" height="10" fill="#f5e9d8"/>
<rect x="570" y="270" width="10" height="10" fill="#3a2a1a"/>
<rect x="580" y="270" width="220" height="10" fill="#2c1727"/>
<rect x="0" y="280" width="220" height="10" fill="#2c1727"/>
<rect x="220" y="280" width="10" height="10" fill="#3a2a1a"/>
<rect x="230" y="280" width="130" height="10" fill="#f5e9d8"/>
<rect x="360" y="280" width="90" height="10" fill="#cf619b"/>
<rect x="450" y="280" width="120" height="10" fill="#f5e9d8"/>
<rect x="570" y="280" width="10" height="10" fill="#3a2a1a"/>
<rect x="580" y="280" width="220" height="10" fill="#2c1727"/>
<rect x="0" y="290" width="220" height="10" fill="#2c1727"/>
<rect x="220" y="290" width="10" height="10" fill="#3a2a1a"/>
<rect x="230" y="290" width="120" height="10" fill="#f5e9d8"/>
<rect x="350" y="290" width="110" height="10" fill="#cf619b"/>
<rect x="460" y="290" width="110" height="10" fill="#f5e9d8"/>
<rect x="570" y="290" width="10" height="10" fill="#3a2a1a"/>
<rect x="580" y="290" width="220" height="10" fill="#2c1727"/>
<rect x="0" y="300" width="70" height="10" fill="#2c1727"/>
<rect x="70" y="300" width="10" height="10" fill="#f472b6"/>
<rect x="80" y="300" width="10" height="10" fill="#2c1727"/>
<rect x="90" y="300" width="10" height="10" fill="#f472b6"/>
<rect x="100" y="300" width="120" height="10" fill="#2c1727"/>
<rect x="220" y="300" width="10" height="10" fill="#3a2a1a"/>
<rect x="230" y="300" width="130" height="10" fill="#f5e9d8"/>
<rect x="360" y="300" width="90" height="10" fill="#cf619b"/>
<rect x="450" y="300" width="120" height="10" fill="#f5e9d8"/>
<rect x="570" y="300" width="10" height="10" fill="#3a2a1a"/>
<rect x="580" y="300" width="220" height="10" fill="#2c1727"/>
<rect x="0" y="310" width="60" height="10" fill="#351b2d"/>
<rect x="60" y="310" width="50" height="10" fill="#f472b6"/>
<rect x="110" y="310" width="110" height="10" fill="#351b2d"/>
<rect x="220" y="310" width="10" height="10" fill="#3a2a1a"/>
<rect x="230" y="310" width="140" height="10" fill="#f5e9d8"/>
<rect x="370" y="310" width="60" height="10" fill="#91446d"/>
<rect x="430" y="310" width="10" height="10" fill="#cf619b"/>
<rect x="440" y="310" width="130" height="10" fill="#f5e9d8"/>
<rect x="570" y="310" width="10" height="10" fill="#3a2a1a"/>
<rect x="580" y="310" width="150" height="10" fill="#351b2d"/>
<rect x="730" y="310" width="10" height="10" fill="#f472b6"/>
<rect x="740" y="310" width="10" height="10" fill="#351b2d"/>
<rect x="750" y="310" width="10" height="10" fill="#f472b6"/>
<rect x="760" y="310" width="40" height="10" fill="#351b2d"/>
<rect x="0" y="320" width="60" height="10" fill="#371c2f"/>
<rect x="60" y="320" width="50" height="10" fill="#f472b6"/>
<rect x="110" y="320" width="110" height="10" fill="#371c2f"/>
<rect x="220" y="320" width="10" height="10" fill="#3a2a1a"/>
<rect x="230" y="320" width="150" height="10" fill="#f5e9d8"/>
<rect x="380" y="320" width="40" height="10" fill="#91446d"/>
<rect x="420" y="320" width="10" height="10" fill="#cf619b"/>
<rect x="430" y="320" width="140" height="10" fill="#f5e9d8"/>
<rect x="570" y="320" width="10" height="10" fill="#3a2a1a"/>
<rect x="580" y="320" width="140" height="10" fill="#371c2f"/>
<rect x="720" y="320" width="50" height="10" fill="#f472b6"/>
<rect x="770" y="320" width="30" height="10" fill="#371c2f"/>
<rect x="0" y="330" width="70" height="10" fill="#3a1d31"/>
<rect x="70" y="330" width="20" height="10" fill="#92446d"/>
<rect x="90" y="330" width="10" height="10" fill="#f472b6"/>
<rect x="100" y="330" width="120" height="10" fill="#3a1d31"/>
<rect x="220" y="330" width="10" height="10" fill="#3a2a1a"/>
<rect x="230" y="330" width="160" height="10" fill="#f5e9d8"/>
<rect x="390" y="330" width="20" height="10" fill="#91446d"/>
<rect x="410" y="330" width="10" height="10" fill="#cf619b"/>
<rect x="420" y="330" width="150" height="10" fill="#f5e9d8"/>
<rect x="570" y="330" width="10" height="10" fill="#3a2a1a"/>
<rect x="580" y="330" width="140" height="10" fill="#3a1d31"/>
<rect x="720" y="330" width="50" height="10" fill="#f472b6"/>
<rect x="770" y="330" width="30" height="10" fill="#3a1d31"/>
<rect x="0" y="340" width="80" height="10" fill="#3d1f33"/>
<rect x="80" y="340" width="10" height="10" fill="#f472b6"/>
<rect x="90" y="340" width="130" height="10" fill="#3d1f33"/>
<rect x="220" y="340" width="10" height="10" fill="#3a2a1a"/>
<rect x="230" y="340" width="170" height="10" fill="#f5e9d8"/>
<rect x="400" y="340" width="10" height="10" fill="#cf619b"/>
<rect x="410" y="340" width="160" height="10" fill="#f5e9d8"/>
<rect x="570" y="340" width="10" height="10" fill="#3a2a1a"/>
<rect x="580" y="340" width="150" height="10" fill="#3d1f33"/>
<rect x="730" y="340" width="20" height="10" fill="#92446d"/>
<rect x="750" y="340" width="10" height="10" fill="#f472b6"/>
<rect x="760" y="340" width="40" height="10" fill="#3d1f33"/>
<rect x="0" y="350" width="80" height="10" fill="#3f2035"/>
<rect x="80" y="350" width="10" height="10" fill="#f472b6"/>
<rect x="90" y="350" width="130" height="10" fill="#3f2035"/>
<rect x="220" y="350" width="360" height="10" fill="#3a2a1a"/>
<rect x="580" y="350" width="160" height="10" fill="#3f2035"/>
<rect x="740" y="350" width="10" height="10" fill="#f472b6"/>
<rect x="750" y="350" width="50" height="10" fill="#3f2035"/>
<rect x="0" y="360" width="740" height="10" fill="#422137"/>
<rect x="740" y="360" width="10" height="10" fill="#f472b6"/>
<rect x="750" y="360" width="50" height="10" fill="#422137"/>
<rect x="0" y="370" width="800" height="10" fill="#452239"/>
<rect x="0" y="380" width="800" height="10" fill="#47233b"/>
<rect x="0" y="390" width="800" height="10" fill="#4a253c"/>
<rect x="0" y="400" width="800" height="10" fill="#4d263e"/>
<rect x="0" y="410" width="800" height="10" fill="#4f2740"/>
<rect x="0" y="420" width="800" height="10" fill="#522842"/>
<rect x="0" y="430" width="800" height="10" fill="#552a44"/>
<rect x="0" y="440" width="800" height="10" fill="#572b46"/>
</svg>
